<svg width="2376" height="703" viewBox="0 0 2376 703" fill="none" xmlns="http://www.w3.org/2000/svg">
<path d="M1324.89 313.797C1301.89 313.797 1289.57 304.555 1281.56 283.196L1224.26 129.578C1222.41 124.239 1220.98 117.872 1220.98 111.711C1220.98 95.4866 1233.91 84.8073 1250.96 84.8073C1265.54 84.8073 1275.19 92.6114 1279.71 108.836L1324.28 256.498H1325.51L1370.08 108.22C1374.18 92.406 1384.25 84.8073 1398.21 84.8073C1414.85 84.8073 1427.37 96.3081 1427.37 111.506C1427.37 117.051 1425.94 123.212 1424.09 128.346L1366.79 283.196C1359.19 304.35 1346.66 313.797 1324.89 313.797Z" fill="white"/>
<path d="M1652.92 335.977C1635.46 335.977 1622.93 325.298 1622.93 304.76V62.2164C1622.93 41.6792 1635.46 30.7945 1652.92 30.7945C1670.58 30.7945 1682.9 41.6792 1682.9 62.2164V304.76C1682.9 325.298 1670.58 335.977 1652.92 335.977Z" fill="white"/>
<path d="M1494.43 328.826C1426.25 319.616 1391.85 272.07 1401.39 201.448C1410.87 131.232 1457.8 92.1868 1522.32 100.902C1584.19 109.261 1619.99 157.202 1611.99 216.427C1609.76 232.913 1599.13 241.01 1582.65 238.783L1458.09 221.957L1457.73 224.603C1453.36 256.963 1470.04 280.769 1500.16 284.838C1521.94 287.78 1537.18 282.377 1555.81 265.622C1563 259.961 1568.6 258.437 1576.33 259.482C1589.15 261.214 1598.43 270.757 1596.59 284.393C1595.96 289.075 1593.87 293.767 1590.57 298.294C1572.49 323.207 1536.56 334.518 1494.43 328.826ZM1463.62 185.609L1556.23 198.118C1558.86 169.46 1543.04 148.465 1516.99 144.946C1490.94 141.427 1469.43 158.001 1463.62 185.609Z" fill="white"/>
<path d="M1127.08 328.764C1085.51 333.989 1050.55 311.062 1045.6 271.734C1040.61 232 1068.28 205.132 1122.48 195.007L1177.09 184.831L1175.27 170.363C1172.71 149.986 1156.96 139.961 1134.54 142.778C1116.41 145.058 1106.15 152.35 1095.05 171.132C1089.45 179.287 1082.38 183.903 1072.8 185.107C1058.33 186.925 1046.76 178.858 1045.07 165.409C1044.48 160.723 1044.96 156.316 1046.44 151.577C1053.35 124.214 1086.37 103.71 1131.61 98.0239C1187.64 90.9801 1227.76 115.33 1233.29 159.344L1248.94 283.847C1251.42 303.612 1240.68 315.312 1223.77 317.438C1207.67 319.461 1195.34 311.904 1191.91 294.534L1190.5 283.327L1189.28 283.48C1179.97 308.247 1154.39 325.331 1127.08 328.764ZM1141.24 283.31C1167.32 280.031 1186.59 260.429 1183.62 236.792L1181.62 220.898L1135.93 229.539C1113.92 233.961 1102.54 245.534 1104.49 261.02C1106.54 277.322 1121.27 285.82 1141.24 283.31Z" fill="white"/>
<path d="M965.29 328.587C947.224 329.089 935.004 318.128 934.45 298.215L929.796 130.696C929.266 111.604 940.659 100.193 957.904 99.714C974.738 99.2463 986.543 110.013 987.073 129.105L987.472 143.475L988.704 143.441C993.694 115.978 1011.31 99.2575 1033.28 98.6472C1041.28 98.4248 1047.7 100.096 1052.11 103.671C1057.98 108.028 1061.06 115.339 1061.35 125.603C1061.61 135.047 1058.94 142.312 1053.33 147.398C1047.71 152.485 1039.17 155.393 1027.47 155.924C1000.18 157.093 990.957 172.758 991.681 198.83L994.396 296.549C994.949 316.463 983.561 328.079 965.29 328.587Z" fill="white"/>
<path d="M883.703 341.926C864.469 345.194 851.135 335.377 847.73 315.332L811.439 101.726L751.103 111.977C734.5 114.798 721.748 107.173 719.064 91.3807C716.381 75.588 725.698 64.2144 742.503 61.3593L924.524 30.4347C941.126 27.614 953.677 35.2725 956.36 51.0652C959.043 66.8579 949.524 78.266 933.124 81.0523L872.585 91.3376L908.876 304.944C912.281 324.988 902.938 338.658 883.703 341.926Z" fill="white"/>
<path d="M984.896 648.234C967.439 648.234 954.911 637.555 954.911 617.018V449.435C954.911 430.746 965.796 419.245 983.869 419.245C1001.94 419.245 1013.85 430.746 1013.85 449.64V461.962H1015.09C1026.79 434.648 1048.97 419.656 1082.86 419.656C1131.74 419.656 1159.26 450.461 1159.26 502.01V617.018C1159.26 637.555 1146.73 648.234 1129.27 648.234C1111.61 648.234 1099.29 637.555 1099.29 617.018V514.537C1099.29 485.785 1085.73 469.356 1058.83 469.356C1031.93 469.356 1014.88 489.071 1014.88 517.618V617.018C1014.88 637.555 1002.56 648.234 984.896 648.234Z" fill="white"/>
<path d="M1195.99 397.54C1177.92 397.54 1163.95 383.78 1163.95 366.529C1163.95 349.072 1177.92 335.518 1195.99 335.518C1214.06 335.518 1228.03 349.072 1228.03 366.529C1228.03 383.78 1214.06 397.54 1195.99 397.54ZM1195.99 649.326C1177.3 649.326 1166 637.62 1166 618.109V451.758C1166 432.248 1177.3 420.336 1195.99 420.336C1214.47 420.336 1225.97 432.248 1225.97 451.758V618.109C1225.97 637.62 1214.47 649.326 1195.99 649.326Z" fill="white"/>
<path d="M1272.77 649.326C1254.91 649.326 1242.79 638.441 1242.79 618.109V450.937C1242.79 430.81 1254.7 420.336 1271.75 420.336C1288.79 420.336 1300.7 430.81 1300.7 450.937V464.696H1301.94C1311.18 438.204 1334.79 420.747 1364.78 420.747C1396.61 420.747 1418.79 437.177 1426.19 465.929H1427.42C1437.28 438.204 1463.56 420.747 1495.81 420.747C1538.93 420.747 1567.89 450.32 1567.89 494.681V618.109C1567.89 638.441 1555.57 649.326 1537.7 649.326C1520.04 649.326 1507.92 638.441 1507.92 618.109V509.673C1507.92 484.207 1495.19 470.242 1471.98 470.242C1449.19 470.242 1434.19 486.877 1434.19 511.316V618.109C1434.19 638.441 1423.1 649.326 1405.24 649.326C1387.58 649.326 1376.49 638.441 1376.49 618.109V507.825C1376.49 484.207 1363.14 470.242 1340.96 470.242C1318.16 470.242 1302.76 487.493 1302.76 512.137V618.109C1302.76 638.441 1290.43 649.326 1272.77 649.326Z" fill="white"/>
<path d="M1632.73 643.311C1591.18 637.921 1563.1 606.942 1568.2 567.634C1573.35 527.92 1606.89 508.869 1661.89 512.692L1717.3 516.567L1719.18 502.107C1721.82 481.74 1709.1 468.078 1686.7 465.172C1668.57 462.82 1656.81 467.3 1641.35 482.69C1633.88 489.176 1625.87 491.865 1616.3 490.623C1601.84 488.747 1592.67 478.031 1594.41 464.589C1595.02 459.904 1596.59 455.76 1599.21 451.543C1612.77 426.795 1649.89 415.25 1695.1 421.116C1751.11 428.383 1783.81 462.033 1778.11 506.024L1761.96 630.464C1759.4 650.219 1746.06 658.843 1729.16 656.65C1713.07 654.563 1703.03 644.148 1704.08 626.475L1705.53 615.273L1704.31 615.115C1689.08 636.747 1660.02 646.852 1632.73 643.311ZM1657.86 602.874C1683.93 606.257 1707.5 592.127 1710.57 568.502L1712.63 552.616L1666.23 549.496C1643.82 548.245 1629.9 556.586 1627.89 572.065C1625.78 588.358 1637.9 600.285 1657.86 602.874Z" fill="white"/>
<path d="M1808.38 599.215V480.51H1796.88C1782.71 480.51 1773.67 471.884 1773.67 457.919C1773.67 443.954 1782.71 435.328 1796.88 435.328H1808.38V410.889C1808.38 391.584 1819.68 379.673 1838.37 379.673C1857.06 379.673 1868.35 391.584 1868.35 410.889V435.328H1889.5C1903.68 435.328 1912.51 444.159 1912.51 457.919C1912.51 471.679 1903.68 480.51 1889.5 480.51H1868.35V585.866C1868.35 601.474 1873.69 608.046 1886.63 609.073L1890.53 609.484C1905.32 611.127 1913.33 617.288 1913.33 631.253C1913.33 648.915 1896.08 657.951 1870.82 657.951H1868.76C1828.71 657.951 1808.38 638.03 1808.38 599.215Z" fill="white"/>
<path d="M2027.64 644.284C1961.86 654.336 1913.39 618.53 1902.47 547.069C1891.7 476.622 1927.79 427.271 1992.96 417.313C2058.13 407.355 2107.27 443.473 2118.07 514.123C2129.02 585.787 2093.42 634.233 2027.64 644.284ZM2020.72 599.012C2049.75 594.576 2064.47 567.188 2057.8 523.539C2051.2 480.297 2028.7 458.18 1999.88 462.586C1971.05 466.991 1955.98 494.847 1962.59 538.089C1969.26 581.737 1991.49 603.479 2020.72 599.012Z" fill="white"/>
<path d="M2164.36 667.854C2146.32 666.777 2135.1 654.793 2136.29 634.907L2146.26 467.621C2147.4 448.555 2159.75 438.182 2176.97 439.209C2193.78 440.212 2204.6 451.967 2203.46 471.033L2202.61 485.384L2203.84 485.457C2211.2 458.534 2230.21 443.414 2252.15 444.723C2260.14 445.2 2266.39 447.424 2270.47 451.371C2275.94 456.224 2278.37 463.775 2277.76 474.025C2277.2 483.456 2273.9 490.46 2267.87 495.037C2261.83 499.615 2253.06 501.767 2241.37 501.275C2214.07 500.058 2203.52 514.859 2201.97 540.895L2196.15 638.478C2194.96 658.364 2182.6 668.942 2164.36 667.854Z" fill="white"/>
<path d="M736.451 652.51C716.894 651.99 704.923 640.22 705.405 622.12C705.543 616.918 707.188 609.883 710.097 602.257L798.01 381.194C807.396 357.085 822.467 346.242 846.185 346.874C870.736 347.527 885.012 358.733 893.305 383.522L969.75 609.165C972.447 617.357 973.338 623.002 973.172 629.243C972.712 646.512 959.278 658.438 940.969 657.951C923.285 657.481 914.138 649.118 909.041 629.411L894.491 581.554L786.094 578.67L769.036 625.062C762.679 644.88 753.096 652.953 736.451 652.51ZM801.121 530.35L881.222 532.481L844.755 408.463L843.298 408.425L801.121 530.35Z" fill="white"/>
<mask id="mask0_8056_25824" style="mask-type:luminance" maskUnits="userSpaceOnUse" x="17" y="24" width="655" height="650">
<path d="M671.778 348.887C671.778 169.526 525.327 24.125 344.67 24.125C164.014 24.125 17.5625 169.526 17.5625 348.887C17.5625 528.249 164.014 673.65 344.67 673.65C525.327 673.65 671.778 528.249 671.778 348.887Z" fill="white"/>
</mask>
<g mask="url(#mask0_8056_25824)">
<path d="M671.778 348.887C671.778 169.526 525.327 24.125 344.67 24.125C164.014 24.125 17.5625 169.526 17.5625 348.887C17.5625 528.249 164.014 673.65 344.67 673.65C525.327 673.65 671.778 528.249 671.778 348.887Z" fill="white"/>
<path d="M344.67 673.649C525.326 673.649 671.778 528.249 671.778 348.888C671.778 169.526 525.326 24.125 344.67 24.125C164.014 24.125 17.5625 169.526 17.5625 348.888C17.5625 418.453 39.5933 482.911 77.1058 535.758C108.899 484.421 147.504 437.405 191.978 396.017C200.604 387.981 209.388 380.195 218.333 372.657C232.541 360.732 247.224 349.386 262.383 338.622C274.741 329.867 287.388 321.511 300.325 313.552C281.34 296.442 261.587 279.665 241.224 263.349L199.294 231.454L193.185 226.723C192.504 226.21 191.796 225.73 191.07 225.239C190.889 225.116 190.705 224.992 190.521 224.867C189.928 224.463 189.574 224.197 189.23 223.938C189.042 223.796 188.854 223.655 188.634 223.496C188.006 223.039 187.38 222.579 186.753 222.119C184.912 220.768 183.063 219.412 181.142 218.101C180.362 217.256 179.657 216.346 179.036 215.38C176.68 211.703 175.512 207.399 175.69 203.044C175.868 198.691 177.381 194.495 180.028 191.018C182.674 187.542 186.327 184.952 190.498 183.595C194.669 182.238 199.159 182.179 203.364 183.425L206.806 184.763L218.87 189.473L253.494 202.85L310.317 225.175L399.7 260.155C410.63 254.115 421.183 248.494 431.26 243.38C444.214 236.829 456.369 231.17 467.402 226.579L469.416 225.691C488.297 217.908 503.569 213.483 513.354 213.632C516.606 213.442 519.831 214.313 522.539 216.109C523.06 219.364 522.471 222.698 520.865 225.582C516.809 234.483 506.3 246.335 491.279 260.014L489.617 261.45C480.761 269.435 470.455 277.978 458.999 286.864C450.059 293.749 440.478 300.885 430.343 308.165L429.054 330.322L426.463 373.003L419.2 489.436L418.456 500.681L417.653 513.526L417.419 517.189C416.779 521.5 414.827 525.514 411.824 528.693C408.823 531.872 404.913 534.063 400.621 534.974C396.329 535.886 391.859 535.473 387.81 533.791C383.76 532.11 380.325 529.24 377.966 525.566C377.343 524.592 376.807 523.567 376.362 522.501C376.276 522.059 376.191 521.617 376.106 521.174C376.034 520.798 375.962 520.421 375.89 520.044L375.887 520.034C375.469 517.851 375.049 515.664 374.617 513.498C374.545 513.149 374.476 512.797 374.409 512.449C374.37 512.247 374.33 512.046 374.291 511.848C374.249 511.634 374.206 511.425 374.163 511.22C374.094 510.899 374.021 510.444 373.942 509.946C373.843 509.324 373.733 508.634 373.607 508.057L360.565 449.224C354.441 424.573 347.655 400.261 340.249 376.472L340.223 376.386L333.383 380.711C317.228 390.927 301.658 401.71 286.682 413.019C175.381 497.075 204.828 673.649 344.67 673.649Z" fill="url(#paint0_linear_8056_25824)"/>
<mask id="mask1_8056_25824" style="mask-type:alpha" maskUnits="userSpaceOnUse" x="17" y="24" width="655" height="650">
<path d="M344.67 673.649C525.326 673.649 671.778 528.249 671.778 348.888C671.778 169.526 525.326 24.125 344.67 24.125C164.014 24.125 17.5625 169.526 17.5625 348.888C17.5625 418.453 39.5933 482.911 77.1058 535.758C108.899 484.421 147.504 437.405 191.978 396.017C200.604 387.981 209.388 380.195 218.333 372.657C232.541 360.732 247.224 349.386 262.383 338.622C274.741 329.867 287.388 321.511 300.325 313.552C281.34 296.442 261.587 279.665 241.224 263.349L199.294 231.454L193.185 226.723C192.504 226.21 191.796 225.73 191.07 225.239C190.889 225.116 190.705 224.992 190.521 224.867C189.928 224.463 189.574 224.197 189.23 223.938C189.042 223.796 188.854 223.655 188.634 223.496C188.006 223.039 187.38 222.579 186.753 222.119C184.912 220.768 183.063 219.412 181.142 218.101C180.362 217.256 179.657 216.346 179.036 215.38C176.68 211.703 175.512 207.399 175.69 203.044C175.868 198.691 177.381 194.495 180.028 191.018C182.674 187.542 186.327 184.952 190.498 183.595C194.669 182.238 199.159 182.179 203.364 183.425L206.806 184.763L218.87 189.473L253.494 202.85L310.317 225.175L399.7 260.155C410.63 254.115 421.183 248.494 431.26 243.38C444.214 236.829 456.369 231.17 467.402 226.579L469.416 225.691C488.297 217.908 503.569 213.483 513.354 213.632C516.606 213.442 519.831 214.313 522.539 216.109C523.06 219.364 522.471 222.698 520.865 225.582C516.809 234.483 506.3 246.335 491.279 260.014L489.617 261.45C480.761 269.435 470.455 277.978 458.999 286.864C450.059 293.749 440.478 300.885 430.343 308.165L429.054 330.322L426.463 373.003L419.2 489.436L418.456 500.681L417.653 513.526L417.419 517.189C416.779 521.5 414.827 525.514 411.824 528.693C408.823 531.872 404.913 534.063 400.621 534.974C396.329 535.886 391.859 535.473 387.81 533.791C383.76 532.11 380.325 529.24 377.966 525.566C377.343 524.592 376.807 523.567 376.362 522.501C376.276 522.059 376.191 521.617 376.106 521.174C376.034 520.798 375.962 520.421 375.89 520.044L375.887 520.034C375.469 517.851 375.049 515.664 374.617 513.498C374.545 513.149 374.476 512.797 374.409 512.449C374.37 512.247 374.33 512.046 374.291 511.848C374.249 511.634 374.206 511.425 374.163 511.22C374.094 510.899 374.021 510.444 373.942 509.946C373.843 509.324 373.733 508.634 373.607 508.057L360.565 449.224C354.441 424.573 347.655 400.261 340.249 376.472L340.223 376.386L333.383 380.711C317.228 390.927 301.658 401.71 286.682 413.019C175.381 497.075 204.828 673.649 344.67 673.649Z" fill="url(#paint1_linear_8056_25824)"/>
</mask>
<g mask="url(#mask1_8056_25824)">
<path style="mix-blend-mode:multiply" opacity="0.3" d="M621.821 -133.939C667.191 -34.1519 676.99 77.9958 649.607 184.052C622.224 290.108 559.289 383.755 471.156 449.583C383.024 515.413 274.944 549.504 164.701 546.246C54.4573 542.988 -51.3832 502.577 -135.406 431.661C-105.494 497.629 -61.0104 556.068 -5.25215 602.651C50.5061 649.232 116.11 682.762 186.698 700.755C257.286 718.747 331.049 720.742 402.522 706.591C473.994 692.441 541.343 662.507 599.58 619.008C657.816 575.51 705.447 519.56 738.941 455.308C772.436 391.054 790.937 320.145 793.073 247.831C795.209 175.518 780.925 103.656 751.28 37.5689C721.636 -28.5179 677.39 -87.1349 621.821 -133.939Z" fill="url(#paint2_linear_8056_25824)"/>
<path d="M827.907 462.742C845.702 420.404 857.347 375.9 862.595 330.562C866.473 297.049 842.827 290.392 814.618 309.196C784.507 329.235 744.104 312.472 713.559 292.767C683.016 273.063 649.14 249.874 614.014 258.256C571.266 268.606 553.41 320.403 555.301 364.026C557.192 407.648 571.273 451.68 561.744 494.323C549.709 548.615 496.034 590.724 440.194 589.864C402.387 589.251 367.025 571.428 329.675 565.671C233.915 550.956 206.939 642.776 282.046 693.902C308.658 711.905 336.201 728.492 364.559 743.598C389.343 756.8 417.749 761.096 445.464 765.841C533.738 780.957 644.553 841.786 708.789 796.439C783.924 743.397 792.324 547.207 827.907 462.742Z" fill="url(#paint3_linear_8056_25824)"/>
<path d="M812.388 343.514C813.556 342.736 814.712 342.008 815.857 341.33L815.318 340.432C817.835 338.941 820.301 337.683 822.694 336.661L823.11 337.62C825.788 336.476 828.36 335.637 830.798 335.099L830.569 334.079C833.507 333.431 836.272 333.206 838.814 333.405L838.73 334.446C841.534 334.666 844.015 335.425 846.122 336.705L846.672 335.813C848.96 337.203 850.861 339.18 852.297 341.747L851.376 342.255C852.523 344.306 853.369 346.786 853.849 349.713L854.888 349.545C855.291 351.998 855.441 354.732 855.313 357.748L854.26 357.704C854.205 358.999 854.097 360.349 853.934 361.756C853.766 363.211 853.59 364.666 853.407 366.119L854.452 366.249C854.085 369.164 853.688 372.073 853.263 374.979L852.22 374.828C851.796 377.728 851.342 380.623 850.858 383.513L851.897 383.684C851.412 386.58 850.898 389.473 850.355 392.359L849.32 392.167C848.778 395.047 848.207 397.922 847.607 400.79L848.639 401.002C848.037 403.878 847.407 406.747 846.748 409.61L845.721 409.377C845.063 412.233 844.377 415.082 843.662 417.924L844.683 418.178C843.966 421.027 843.22 423.868 842.446 426.703L841.43 426.429C840.657 429.256 839.856 432.075 839.026 434.887L840.036 435.181C839.206 437.999 838.345 440.809 837.457 443.611L836.453 443.297C835.567 446.09 834.653 448.876 833.709 451.652L834.707 451.987C833.763 454.769 832.79 457.541 831.789 460.306L830.798 459.952C829.8 462.708 828.774 465.454 827.719 468.192L828.703 468.566C827.647 471.307 826.563 474.04 825.45 476.762L824.475 476.37C823.92 477.726 823.36 479.081 822.791 480.434C822.253 481.709 821.722 483.014 821.199 484.344L822.179 484.725C821.169 487.289 820.184 489.954 819.219 492.713L818.225 492.37C817.307 494.993 816.41 497.7 815.529 500.483L816.534 500.796C815.696 503.444 814.873 506.162 814.063 508.946L813.052 508.656C812.271 511.339 811.502 514.08 810.745 516.877L811.761 517.148C811.03 519.847 810.308 522.596 809.594 525.392L808.574 525.135C807.878 527.855 807.191 530.62 806.509 533.424L807.533 533.669C806.871 536.394 806.214 539.156 805.561 541.952L804.536 541.716C803.897 544.448 803.264 547.211 802.633 550.003L803.66 550.233C803.04 552.974 802.423 555.743 801.807 558.537L800.778 558.313C800.17 561.066 799.564 563.844 798.958 566.64L799.987 566.86C799.39 569.62 798.791 572.399 798.192 575.194L797.161 574.977C796.57 577.735 795.978 580.508 795.383 583.294L796.413 583.511C796.26 584.228 796.107 584.945 795.953 585.664C795.516 587.713 795.077 589.77 794.637 591.832L793.606 591.614C793.015 594.381 792.42 597.158 791.822 599.939L792.851 600.158C792.255 602.928 791.654 605.703 791.048 608.483L790.02 608.262C789.417 611.028 788.808 613.798 788.194 616.569L789.221 616.794C788.607 619.563 787.987 622.333 787.359 625.102L786.332 624.872C785.704 627.639 785.069 630.404 784.425 633.164L785.451 633.4C784.806 636.166 784.153 638.925 783.491 641.679L782.467 641.436C781.801 644.2 781.126 646.956 780.441 649.701L781.463 649.953C780.773 652.716 780.072 655.468 779.359 658.208L778.34 657.946C777.624 660.699 776.896 663.438 776.155 666.16L777.172 666.433C776.423 669.18 775.662 671.91 774.887 674.62L773.874 674.334C773.089 677.078 772.288 679.802 771.472 682.502L772.482 682.802C771.654 685.54 770.81 688.254 769.948 690.94L768.945 690.623C768.073 693.341 767.184 696.03 766.275 698.687L767.272 699.023C766.346 701.73 765.4 704.403 764.434 707.04L763.444 706.683C762.461 709.364 761.456 712.007 760.427 714.608L761.408 714.99C760.35 717.666 759.267 720.297 758.158 722.882L757.189 722.472C756.058 725.108 754.899 727.693 753.712 730.223L754.667 730.665C753.442 733.273 752.188 735.823 750.9 738.312L749.964 737.835C748.645 740.383 747.293 742.865 745.905 745.275L746.819 745.794C745.378 748.296 743.898 750.723 742.377 753.068L741.492 752.502C739.929 754.91 738.324 757.231 736.675 759.456L737.523 760.076C735.8 762.401 734.026 764.625 732.202 766.742L731.402 766.062C729.531 768.233 727.606 770.287 725.624 772.218L726.361 772.963C724.291 774.98 722.158 776.866 719.959 778.611L719.302 777.793C718.201 778.669 717.082 779.506 715.947 780.308C714.849 781.083 713.729 781.828 712.587 782.545L713.15 783.429C710.848 784.873 708.461 786.202 705.993 787.422L705.524 786.486C703.126 787.671 700.649 788.751 698.099 789.733L698.479 790.708C695.96 791.678 693.371 792.552 690.718 793.336L690.418 792.334C687.854 793.091 685.229 793.764 682.545 794.357L682.774 795.377C680.138 795.96 677.448 796.466 674.707 796.9L674.542 795.868C671.893 796.287 669.196 796.64 666.454 796.929L666.565 797.969C663.877 798.253 661.147 798.477 658.379 798.644L658.315 797.601C655.629 797.763 652.906 797.874 650.148 797.933L650.171 798.978C647.465 799.037 644.726 799.049 641.958 799.017L641.97 797.972C639.271 797.941 636.544 797.867 633.791 797.756L633.748 798.8C631.039 798.69 628.304 798.543 625.548 798.362L625.618 797.319C622.917 797.142 620.195 796.931 617.454 796.691L617.362 797.732C614.655 797.494 611.93 797.228 609.19 796.935L609.303 795.896C606.603 795.608 603.889 795.294 601.162 794.958L601.033 795.995C598.33 795.662 595.615 795.306 592.89 794.931L593.035 793.895C590.339 793.524 587.633 793.134 584.919 792.727L584.762 793.76C582.063 793.355 579.358 792.934 576.646 792.499L576.815 791.468C574.121 791.035 571.423 790.59 568.72 790.132L568.543 791.163C565.848 790.707 563.15 790.241 560.451 789.765L560.635 788.736C557.943 788.261 555.25 787.779 552.557 787.29L552.367 788.318C549.675 787.83 546.982 787.335 544.293 786.836L544.486 785.808C541.793 785.309 539.103 784.805 536.418 784.301L536.222 785.329C533.527 784.823 530.836 784.315 528.152 783.809L528.349 782.782L528.132 782.741C525.507 782.246 522.888 781.752 520.277 781.261L520.082 782.289C517.381 781.781 514.689 781.278 512.008 780.78L512.202 779.753C509.496 779.251 506.801 778.756 504.119 778.269L503.931 779.298C501.221 778.806 498.525 778.324 495.846 777.854L496.029 776.824C493.311 776.348 490.609 775.883 487.926 775.434L487.752 776.465C485.028 776.01 482.326 775.57 479.645 775.148L479.809 774.116C477.075 773.686 474.362 773.276 471.676 772.888L471.524 773.923C468.784 773.527 466.071 773.156 463.388 772.812L463.523 771.775C462.162 771.6 460.809 771.432 459.463 771.272C458.07 771.105 456.678 770.936 455.285 770.764L455.155 771.801C452.37 771.454 449.583 771.092 446.799 770.705L446.945 769.67C444.169 769.284 441.395 768.875 438.629 768.435L438.463 769.468C435.688 769.027 432.918 768.554 430.158 768.043L430.351 767.016C427.595 766.506 424.852 765.958 422.123 765.364L421.897 766.386C419.149 765.788 416.415 765.144 413.698 764.447L413.962 763.435C411.253 762.74 408.562 761.99 405.894 761.181L405.587 762.18C402.898 761.364 400.231 760.487 397.59 759.54L397.948 758.556C395.323 757.615 392.726 756.605 390.159 755.52L389.746 756.481C387.165 755.389 384.615 754.221 382.099 752.968L382.57 752.034C381.326 751.414 380.091 750.775 378.865 750.114C377.657 749.462 376.449 748.807 375.245 748.149L374.738 749.066C372.325 747.748 369.918 746.419 367.519 745.078L368.035 744.167C365.638 742.828 363.249 741.476 360.866 740.113L360.34 741.019C357.955 739.654 355.576 738.277 353.204 736.889L353.738 735.988C351.369 734.601 349.008 733.202 346.653 731.791L346.11 732.687C343.752 731.274 341.401 729.851 339.058 728.414L339.61 727.525C337.271 726.092 334.937 724.646 332.611 723.189L332.05 724.073C329.72 722.614 327.399 721.143 325.086 719.661L325.657 718.782C323.346 717.303 321.042 715.81 318.746 714.307L318.166 715.18C315.868 713.675 313.577 712.157 311.293 710.63L311.882 709.763C310.742 709 309.603 708.234 308.467 707.465C307.27 706.651 306.103 705.824 304.965 704.987L304.338 705.828C301.979 704.094 299.743 702.314 297.628 700.494L298.318 699.705C296.124 697.817 294.064 695.888 292.135 693.924L291.381 694.654C289.322 692.559 287.411 690.425 285.644 688.259L286.462 687.601C284.633 685.36 282.961 683.085 281.445 680.789L280.564 681.362C278.956 678.928 277.52 676.468 276.251 673.993L277.189 673.52C275.874 670.953 274.744 668.373 273.794 665.791L272.805 666.15C271.8 663.421 270.993 660.688 270.382 657.969L271.41 657.741C270.783 654.953 270.364 652.179 270.151 649.439L269.102 649.519C268.876 646.634 268.873 643.782 269.089 640.982L270.139 641.061C270.354 638.247 270.795 635.487 271.453 632.802L270.431 632.555C271.114 629.773 272.028 627.069 273.167 624.462L274.133 624.879C275.25 622.328 276.586 619.874 278.14 617.536L277.262 616.961C278.826 614.607 280.606 612.37 282.596 610.271L283.362 610.987C285.259 608.987 287.35 607.113 289.634 605.384L288.996 604.553C291.221 602.868 293.622 601.32 296.198 599.924L296.702 600.841C299.112 599.535 301.679 598.363 304.401 597.34L304.028 596.363C306.625 595.387 309.36 594.545 312.228 593.848L312.477 594.864C315.147 594.216 317.937 593.696 320.844 593.315L320.706 592.278C323.46 591.917 326.315 591.678 329.272 591.57L329.311 592.615C332.054 592.515 334.887 592.528 337.808 592.663L337.856 591.619C340.636 591.746 343.492 591.982 346.424 592.333L346.298 593.371C347.707 593.539 349.134 593.734 350.579 593.956C351.972 594.17 353.36 594.404 354.748 594.654L354.935 593.625C357.724 594.129 360.502 594.7 363.271 595.323L363.038 596.343C365.788 596.962 368.531 597.634 371.269 598.344L371.535 597.332C374.277 598.043 377.013 598.79 379.743 599.559L379.456 600.565C382.178 601.332 384.897 602.121 387.617 602.918L387.915 601.915C389.218 602.297 390.52 602.68 391.822 603.063C393.24 603.48 394.657 603.897 396.074 604.312L395.776 605.315C398.502 606.112 401.23 606.903 403.96 607.67L404.247 606.664C406.981 607.432 409.717 608.177 412.458 608.882L412.193 609.894C414.953 610.605 417.72 611.278 420.496 611.896L420.726 610.877C423.498 611.494 426.277 612.058 429.065 612.551L428.881 613.58C431.693 614.078 434.516 614.505 437.353 614.845L437.479 613.807C440.291 614.145 443.115 614.396 445.953 614.548L445.897 615.591C447.323 615.667 448.754 615.718 450.189 615.741C451.561 615.762 452.949 615.741 454.352 615.677L454.304 614.633C456.973 614.514 459.697 614.243 462.464 613.829L462.621 614.863C465.306 614.462 468.029 613.928 470.778 613.27L470.531 612.255C473.14 611.631 475.776 610.894 478.429 610.052L478.75 611.049C481.34 610.227 483.945 609.306 486.557 608.292L486.174 607.318C488.688 606.343 491.209 605.281 493.728 604.138L494.166 605.089C496.649 603.964 499.13 602.761 501.603 601.487L501.119 600.558C503.526 599.319 505.926 598.01 508.313 596.638L508.84 597.541C511.207 596.18 513.561 594.758 515.895 593.278L515.328 592.397C517.627 590.94 519.905 589.426 522.16 587.863L522.763 588.72C525.013 587.159 527.238 585.548 529.432 583.891L528.794 583.059C530.973 581.414 533.12 579.723 535.231 577.993L535.902 578.799C538.026 577.057 540.114 575.273 542.159 573.455L541.456 572.676C543.503 570.854 545.506 568.996 547.46 567.107L548.195 567.856C550.179 565.938 552.111 563.987 553.986 562.01L553.219 561.293C555.11 559.299 556.942 557.278 558.708 555.234L559.507 555.914C561.321 553.815 563.067 551.69 564.737 549.548L563.904 548.908C565.6 546.733 567.216 544.539 568.747 542.332L569.614 542.926C571.205 540.632 572.704 538.324 574.102 536.008L573.199 535.471C574.631 533.099 575.955 530.72 577.163 528.341L578.103 528.812C579.376 526.305 580.523 523.797 581.532 521.293L580.555 520.905C581.594 518.326 582.485 515.755 583.215 513.203L584.228 513.489C584.611 512.15 584.951 510.815 585.247 509.484C585.556 508.097 585.839 506.707 586.096 505.316L585.06 505.128C585.571 502.356 585.978 499.578 586.293 496.794L587.339 496.91C587.657 494.094 587.882 491.274 588.025 488.45L586.974 488.397C587.115 485.595 587.177 482.788 587.17 479.975L588.222 479.973C588.215 477.153 588.139 474.331 588.008 471.506L586.956 471.554C586.826 468.755 586.639 465.952 586.409 463.146L587.458 463.062C587.229 460.258 586.956 457.453 586.652 454.646L585.605 454.758C585.302 451.972 584.969 449.183 584.616 446.392L585.66 446.261C585.308 443.474 584.935 440.685 584.555 437.897L583.511 438.038C583.248 436.11 582.982 434.181 582.716 432.253C582.597 431.398 582.479 430.543 582.361 429.689L583.405 429.548C583.021 426.765 582.641 423.984 582.275 421.204L581.232 421.339C580.866 418.552 580.514 415.764 580.189 412.977L581.236 412.857C580.911 410.07 580.612 407.284 580.351 404.502L579.303 404.598C579.041 401.797 578.817 398.997 578.643 396.199L579.693 396.134C579.607 394.738 579.533 393.342 579.472 391.947C579.412 390.572 579.374 389.187 579.36 387.795L578.307 387.806C578.275 385.037 578.332 382.24 578.477 379.43L579.529 379.484C579.671 376.729 579.9 373.961 580.215 371.197L579.169 371.078C579.485 368.308 579.889 365.538 580.381 362.786L581.417 362.969C581.905 360.237 582.482 357.523 583.147 354.839L582.124 354.589C582.799 351.866 583.565 349.173 584.424 346.527L585.426 346.848C586.286 344.196 587.241 341.593 588.289 339.051L587.315 338.655C588.391 336.049 589.566 333.507 590.84 331.044L591.777 331.521C593.061 329.043 594.446 326.649 595.936 324.353L595.05 323.787C596.589 321.417 598.237 319.148 599.998 317.001L600.814 317.661C602.577 315.51 604.453 313.485 606.442 311.602L605.716 310.845C607.759 308.911 609.921 307.123 612.205 305.5L612.818 306.35C615.055 304.76 617.41 303.331 619.885 302.083L619.408 301.151C621.885 299.901 624.482 298.827 627.199 297.947L627.525 298.941C628.825 298.52 630.153 298.145 631.51 297.816C632.818 297.504 634.124 297.242 635.427 297.026L635.254 295.996C637.962 295.548 640.662 295.301 643.351 295.234L643.377 296.279C646.05 296.213 648.715 296.326 651.371 296.602L651.48 295.562C654.169 295.841 656.847 296.282 659.511 296.865L659.284 297.886C661.88 298.453 664.466 299.158 667.042 299.981L667.364 298.985C669.927 299.804 672.475 300.737 675.01 301.765L674.611 302.732C677.081 303.735 679.54 304.83 681.986 306L682.444 305.059C684.873 306.221 687.288 307.457 689.688 308.747L689.186 309.666C691.551 310.938 693.902 312.266 696.24 313.631L696.774 312.73C699.11 314.096 701.431 315.5 703.735 316.925L703.178 317.812C705.481 319.236 707.769 320.682 710.04 322.134L710.61 321.255C712.906 322.724 715.183 324.196 717.441 325.657L716.867 326.533C718.008 327.271 719.145 328.007 720.277 328.737C721.411 329.468 722.558 330.194 723.719 330.914L724.277 330.027C726.554 331.438 728.884 332.823 731.257 334.167L730.735 335.075C733.091 336.41 735.491 337.703 737.925 338.941L738.405 338.011C740.817 339.238 743.261 340.41 745.73 341.51L745.299 342.463C747.799 343.578 750.326 344.621 752.869 345.577L753.242 344.599C755.795 345.558 758.364 346.429 760.937 347.193L760.635 348.194C763.285 348.981 765.943 349.658 768.599 350.207L768.814 349.183C771.498 349.738 774.179 350.16 776.843 350.431L776.736 351.471C779.501 351.752 782.254 351.873 784.983 351.814L784.96 350.768C787.688 350.709 790.387 350.465 793.046 350.018L793.221 351.049C795.945 350.589 798.628 349.92 801.259 349.017L800.915 348.029C803.442 347.162 805.918 346.076 808.329 344.751L808.839 345.666C810.038 345.007 811.222 344.291 812.388 343.514Z" stroke="url(#paint4_linear_8056_25824)" stroke-width="2.30526" stroke-dasharray="9.22 9.22"/>
<path d="M-66.7192 212.843C-78.8699 244.743 -86.2786 278.063 -88.8022 311.807C-90.6874 337.019 -72.5985 341.1 -51.6462 326.23C-29.4081 310.471 1.84478 321.674 25.6988 335.355C49.5529 349.036 76.0526 365.198 102.48 357.928C134.637 348.968 146.533 310.046 143.683 277.775C140.833 245.505 128.703 213.299 134.567 181.412C141.957 140.814 181.391 107.99 223.863 106.943C252.619 106.256 280.074 118.398 308.65 121.537C381.912 129.554 399.444 60.6955 340.7 25.0737C325.824 16.1104 310.609 7.6975 295.089 -0.14838C263.91 -15.9104 228.014 -21.69 193.717 -13.366C143.579 -1.19722 96.3896 20.9293 55.2332 51.8182C-0.159622 93.3919 -42.4072 149.175 -66.7192 212.843Z" fill="url(#paint5_linear_8056_25824)"/>
<path d="M-82.3625 183.951C-81.3219 181.321 -80.2497 178.703 -79.148 176.101L-78.1721 176.491C-77.0712 173.892 -75.9408 171.307 -74.7797 168.737L-75.7456 168.324C-74.5804 165.744 -73.3845 163.178 -72.1588 160.627L-71.2028 161.062C-69.9793 158.517 -68.726 155.985 -67.4431 153.471L-68.388 153.013C-67.1 150.489 -65.7825 147.981 -64.4355 145.487L-63.5022 145.966C-62.1582 143.479 -60.785 141.009 -59.3828 138.555L-60.304 138.053C-58.8969 135.591 -57.4608 133.145 -55.996 130.716L-55.0873 131.239C-53.626 128.816 -52.1361 126.411 -50.6179 124.022L-51.5134 123.478C-49.9903 121.083 -48.4389 118.705 -46.8594 116.346L-45.9774 116.909C-44.4023 114.556 -42.7992 112.221 -41.1685 109.905L-42.0365 109.32C-40.401 106.997 -38.7378 104.692 -37.0474 102.407L-36.1939 103.012C-34.5087 100.733 -32.796 98.4738 -31.0566 96.2339L-31.895 95.6091C-30.1509 93.3633 -28.3799 91.137 -26.5823 88.9308L-25.7593 89.5751C-23.9678 87.3764 -22.1498 85.1976 -20.3056 83.0393L-21.1126 82.3759C-19.2642 80.2125 -17.3895 78.0696 -15.4889 75.9475L-14.6981 76.6294C-12.8044 74.515 -10.885 72.4214 -8.94005 70.349L-9.71404 69.6487C-7.76542 67.5724 -5.79145 65.5173 -3.79232 63.484L-3.03553 64.2021C-1.04417 62.1768 0.972163 60.1729 3.01301 58.1913L2.2738 57.4556C4.31835 55.4705 6.38741 53.5073 8.48088 51.5668L9.20214 52.3195C11.2864 50.3875 13.3948 48.4779 15.527 46.5911L14.824 45.8218C16.9594 43.9323 19.1185 42.0656 21.3011 40.2223L21.9853 41.0077C24.1582 39.1725 26.3545 37.3606 28.5737 35.5722L27.9085 34.7711C30.1296 32.9812 32.3737 31.2149 34.6404 29.4727L35.2861 30.2891C36.4151 29.4214 37.5495 28.5597 38.6896 27.7041C39.788 26.8797 40.8907 26.0616 41.9977 25.2497L41.3712 24.4188C43.5933 22.7892 45.8324 21.1848 48.0881 19.6058L48.6952 20.4506C50.9466 18.8747 53.2145 17.3242 55.4985 15.7993L54.911 14.9411C57.2038 13.4104 59.5126 11.9054 61.8373 10.4263L62.405 11.2974C64.7244 9.82159 67.0595 8.37158 69.4099 6.94757L68.8624 6.06396C71.2209 4.63508 73.5947 3.23229 75.9832 1.85585L76.5104 2.7515C78.8933 1.37837 81.2908 0.0315964 83.7027 -1.28882L83.1961 -2.19603C85.6155 -3.52057 88.0493 -4.81858 90.497 -6.08986L90.9829 -5.17153C93.424 -6.43941 95.879 -7.68065 98.3474 -8.89507L97.8827 -9.82406C100.358 -11.042 102.847 -12.2329 105.349 -13.3968L105.792 -12.4576C108.287 -13.6181 110.794 -14.7516 113.314 -15.8578L112.892 -16.8066C115.418 -17.9158 117.957 -18.9977 120.509 -20.052L120.908 -19.094C123.451 -20.1452 126.006 -21.1688 128.572 -22.165L128.194 -23.1318C130.767 -24.1304 133.35 -25.1012 135.945 -26.0444L136.302 -25.0694C138.888 -26.0093 141.485 -26.9215 144.092 -27.806L143.758 -28.7887C146.37 -29.6751 148.995 -30.5334 151.628 -31.3637L151.94 -30.3736C154.565 -31.2009 157.198 -32.0002 159.842 -32.7713L159.552 -33.7681C162.201 -34.5408 164.859 -35.2852 167.526 -36.0012L167.794 -34.9981C170.45 -35.7114 173.116 -36.3964 175.791 -37.053L175.546 -38.0619C178.225 -38.7197 180.913 -39.349 183.608 -39.9496L183.83 -38.9354C185.174 -39.2346 186.518 -39.5268 187.865 -39.8117C189.203 -40.0948 190.544 -40.353 191.886 -40.5866L191.714 -41.6107C194.436 -42.0845 197.166 -42.4578 199.9 -42.7335L199.995 -41.6989C202.714 -41.9732 205.438 -42.1499 208.159 -42.2314L208.14 -43.271C210.893 -43.3535 213.645 -43.3397 216.391 -43.2321L216.337 -42.1929C219.061 -42.0862 221.779 -41.8866 224.487 -41.5965L224.614 -42.6305C227.344 -42.3381 230.065 -41.9547 232.77 -41.483L232.573 -40.4589C235.251 -39.9919 237.915 -39.4377 240.561 -38.7986L240.825 -39.8089C243.486 -39.1661 246.128 -38.4384 248.748 -37.6284L248.419 -36.636C251.011 -35.8348 253.578 -34.9524 256.12 -33.9913L256.51 -34.9625C259.064 -33.9967 261.59 -32.9522 264.085 -31.8316L263.637 -30.8847C264.871 -30.33 266.099 -29.7563 267.318 -29.1643C268.506 -28.5875 269.692 -28.0074 270.877 -27.4239L271.36 -28.3549C273.733 -27.1862 276.098 -26.0044 278.457 -24.8095L277.963 -23.8839C280.318 -22.6907 282.667 -21.4844 285.007 -20.2651L285.511 -21.1854C287.856 -19.9642 290.193 -18.7301 292.523 -17.4829L292.009 -16.5681C294.335 -15.3228 296.654 -14.0646 298.966 -12.7934L299.492 -13.7025C301.806 -12.4294 304.114 -11.1435 306.415 -9.84463L305.879 -8.94127C308.176 -7.64446 310.465 -6.3348 312.747 -5.01236L313.292 -5.90985C315.577 -4.58548 317.854 -3.24836 320.123 -1.89856L319.568 -1.00704C320.7 -0.333382 321.831 0.3434 322.959 1.0234C324.218 1.7867 325.441 2.56524 326.629 3.35784L327.23 2.49526C329.719 4.15677 332.056 5.88056 334.242 7.65651L333.561 8.46122C335.861 10.3298 337.99 12.2557 339.951 14.2266L340.712 13.4949C342.819 15.6133 344.737 17.7847 346.467 19.9948L345.625 20.6351C347.433 22.9447 349.032 25.2951 350.425 27.6692L351.344 27.1417C352.851 29.7117 354.124 32.3116 355.166 34.9208L354.18 35.3106C355.259 38.0146 356.084 40.7258 356.66 43.4201L357.696 43.1948C358.314 46.0836 358.651 48.9568 358.716 51.7867L357.658 51.8222C357.724 54.6916 357.5 57.5123 356.995 60.254L358.036 60.4275C357.507 63.2993 356.676 66.0893 355.55 68.764L354.572 68.376C353.478 70.9757 352.096 73.4637 350.433 75.8078L351.299 76.3957C349.637 78.7397 347.701 80.9432 345.497 82.9754L344.777 82.2209C342.73 84.1093 340.443 85.8485 337.92 87.4118L338.477 88.2898C336.058 89.788 333.431 91.1265 330.599 92.2829L330.203 91.3232C327.625 92.3757 324.871 93.2762 321.943 94.0065L322.191 95.0145C319.449 95.6984 316.56 96.2347 313.526 96.6097L313.405 95.5778C310.621 95.9218 307.711 96.1284 304.676 96.1862L304.683 97.226C301.86 97.2798 298.932 97.206 295.902 96.9963L295.989 95.9587C294.55 95.8592 293.087 95.7285 291.6 95.5658C290.181 95.41 288.765 95.2316 287.35 95.0336L287.188 96.0632C284.343 95.6649 281.508 95.1876 278.681 94.653L278.892 93.6315C276.086 93.1011 273.285 92.5135 270.486 91.8901L270.24 92.9046C267.439 92.2807 264.644 91.6218 261.85 90.949L262.114 89.9387C260.301 89.5022 258.491 89.0604 256.68 88.6183C255.703 88.3796 254.725 88.1409 253.746 87.9027L253.48 88.9125C250.688 88.2333 247.895 87.5618 245.099 86.9197L245.352 85.9068C242.541 85.2609 239.724 84.6439 236.901 84.0779L236.677 85.0971C233.854 84.5312 231.025 84.017 228.189 83.5767L228.367 82.5492C225.503 82.1045 222.629 81.734 219.742 81.4608L219.628 82.4961C216.765 82.225 213.891 82.0508 211.006 81.9957L211.039 80.9559C209.587 80.9281 208.13 80.9302 206.669 80.9651C205.151 81.0026 203.637 81.08 202.128 81.1966L202.198 82.2335C199.205 82.4646 196.233 82.8511 193.29 83.3846L193.11 82.3619C190.123 82.9036 187.167 83.5949 184.254 84.4268L184.538 85.4253C181.656 86.2485 178.814 87.2115 176.025 88.3053L175.643 87.3399C172.82 88.4462 170.053 89.6849 167.347 91.047L167.821 91.9715C165.145 93.3186 162.533 94.7881 159.993 96.3711L159.434 95.4946C156.865 97.0952 154.371 98.8106 151.961 100.632L152.6 101.454C150.213 103.258 147.911 105.167 145.702 107.172L144.988 106.412C142.752 108.443 140.61 110.572 138.575 112.79L139.358 113.482C137.339 115.681 135.427 117.968 133.631 120.336L132.785 119.721C130.964 122.121 129.261 124.602 127.686 127.156L128.589 127.688C127.029 130.218 125.597 132.82 124.305 135.484L123.351 135.046C122.042 137.745 120.872 140.507 119.855 143.324L120.852 143.662C119.849 146.439 118.996 149.27 118.303 152.145L117.273 151.916C116.923 153.367 116.613 154.829 116.346 156.301M-82.3625 183.951L117.388 156.473M-82.3625 183.951L-81.3764 184.319C-81.8945 185.629 -82.4051 186.943 -82.9083 188.26M-82.3625 183.951L-85.3884 191.886L-84.393 192.229C-83.9065 190.904 -83.4116 189.58 -82.9083 188.26M116.346 156.301L117.388 156.473M116.346 156.301C116.097 157.654 115.881 159.007 115.694 160.36L116.743 160.488C116.927 159.149 117.142 157.811 117.388 156.473M-82.9083 188.26L-83.8991 187.905M85.0267 331.989C86.3345 331.625 87.6074 331.21 88.846 330.747L89.2119 331.719C87.9431 332.193 86.6395 332.618 85.3007 332.991M85.0267 331.989C83.7101 332.351 82.3934 332.654 81.0767 332.901L81.263 333.922C82.6088 333.67 83.9549 333.361 85.3007 332.991M85.0267 331.989C85.0256 331.99 85.0279 331.989 85.0267 331.989ZM85.0267 331.989L85.3007 332.991M115.972 168.571L114.915 168.527C114.765 171.255 114.721 173.983 114.764 176.711L115.822 176.682C115.78 173.976 115.823 171.273 115.972 168.571ZM116.196 184.781L115.141 184.868C115.341 187.573 115.612 190.277 115.938 192.98L116.989 192.846C116.665 190.156 116.396 187.467 116.196 184.781ZM118.096 200.871L117.05 201.039C117.461 203.71 117.908 206.382 118.378 209.052L119.421 208.863C118.953 206.198 118.506 203.534 118.096 200.871ZM120.869 216.834L119.828 217.032C120.014 218.034 120.201 219.034 120.387 220.035C120.696 221.688 121.004 223.341 121.309 224.995L122.35 224.797C122.044 223.141 121.736 221.485 121.427 219.83C121.24 218.831 121.055 217.833 120.869 216.834ZM123.776 232.772L122.733 232.956C123.189 235.615 123.62 238.274 124.01 240.931L125.057 240.77C124.665 238.103 124.233 235.437 123.776 232.772ZM126.101 248.806L125.049 248.93C125.197 250.267 125.331 251.603 125.449 252.939C125.565 254.254 125.657 255.58 125.722 256.915L126.78 256.852C126.713 255.505 126.621 254.165 126.503 252.837C126.385 251.493 126.25 250.149 126.101 248.806ZM126.877 264.911L125.819 264.897C125.752 267.548 125.587 270.211 125.321 272.87L126.375 272.96C126.643 270.275 126.809 267.586 126.877 264.911ZM125.264 280.957L124.221 280.789C123.749 283.424 123.174 286.034 122.492 288.6L123.515 288.851C124.205 286.257 124.787 283.619 125.264 280.957ZM121.087 296.575L120.092 296.234C119.165 298.763 118.122 301.225 116.962 303.6L117.915 304.041C119.093 301.632 120.148 299.137 121.087 296.575ZM113.928 311.128L113.036 310.578C111.575 312.843 109.982 314.99 108.256 316.996L109.06 317.662C110.82 315.617 112.441 313.431 113.928 311.128ZM103.275 323.43L102.589 322.647C100.559 324.371 98.3881 325.929 96.0725 327.297L96.6096 328.186C98.98 326.787 101.201 325.192 103.275 323.43ZM73.0405 334.778L73.0269 333.738C70.3284 333.804 67.6299 333.662 64.9336 333.341L64.794 334.374C67.537 334.7 70.2869 334.845 73.0405 334.778ZM56.6849 332.899L56.9487 331.89C54.3422 331.26 51.7411 330.488 49.1478 329.599L48.7888 330.582C51.4096 331.48 54.0426 332.261 56.6849 332.899ZM41.1203 327.629L41.5498 326.674C39.0676 325.619 36.5966 324.481 34.1389 323.28L33.6591 324.213C36.1307 325.42 38.6185 326.566 41.1203 327.629ZM26.3629 320.472L26.877 319.557C24.4735 318.272 22.0868 316.951 19.7184 315.615L19.1838 316.519C21.5567 317.857 23.9505 319.182 26.3629 320.472ZM12.0685 312.458L12.6109 311.558L11.8698 311.131C10.9299 310.591 9.99315 310.052 9.06058 309.518C7.88433 308.843 6.69009 308.174 5.47957 307.515L4.95793 308.426C6.16161 309.081 7.34929 309.746 8.51921 310.418C9.4595 310.957 10.4039 311.5 11.3522 312.045C11.5908 312.182 11.8295 312.32 12.0685 312.458ZM-2.30761 304.681L-1.83038 303.747C-4.29074 302.554 -6.79837 301.415 -9.33893 300.353L-9.76307 301.311C-7.24184 302.365 -4.75197 303.496 -2.30761 304.681ZM-17.4169 298.392L-17.0578 297.41C-19.6877 296.508 -22.3382 295.706 -24.9943 295.027L-25.2722 296.033C-22.6461 296.705 -20.0226 297.498 -17.4169 298.392ZM-33.3171 294.379L-33.1427 293.352C-35.9331 292.926 -38.7148 292.662 -41.4699 292.586L-41.512 293.625C-38.8055 293.7 -36.0681 293.96 -33.3171 294.379ZM-49.7418 294.012L-49.8655 292.981C-52.67 293.337 -55.4259 293.931 -58.1115 294.795L-57.7933 295.783C-55.1756 294.941 -52.4852 294.361 -49.7418 294.012ZM-65.3426 299.081L-65.8618 298.181C-67.077 298.867 -68.2698 299.623 -69.438 300.45C-70.7294 301.367 -72.0085 302.21 -73.2702 302.977L-72.7208 303.859C-71.4365 303.078 -70.1368 302.222 -68.8258 301.291C-67.6876 300.485 -66.5258 299.749 -65.3426 299.081ZM-81.0962 307.989L-81.4597 307.017C-84.616 308.188 -87.5576 308.8 -90.2079 308.868L-90.1931 309.908C-87.3994 309.836 -84.3394 309.193 -81.0962 307.989ZM-99.0486 307.619L-98.451 306.753C-100.63 305.316 -102.376 303.112 -103.527 300.062L-104.519 300.434C-103.304 303.655 -101.433 306.045 -99.0486 307.619ZM-106.103 291.456L-105.045 291.417C-105.083 290.011 -105.045 288.517 -104.926 286.934C-104.822 285.531 -104.708 284.13 -104.587 282.73L-105.641 282.653C-105.763 284.058 -105.876 285.463 -105.982 286.869C-106.103 288.485 -106.141 290.013 -106.103 291.456ZM-104.806 274.233L-103.754 274.334C-103.444 271.537 -103.099 268.745 -102.719 265.957L-103.768 265.832C-104.148 268.628 -104.494 271.428 -104.806 274.233ZM-102.528 257.455L-101.482 257.605C-101.036 254.826 -100.556 252.051 -100.043 249.282L-101.084 249.108C-101.599 251.884 -102.08 254.667 -102.528 257.455ZM-99.439 240.793L-98.402 240.993C-97.822 238.236 -97.2087 235.486 -96.5621 232.741L-97.5926 232.518C-98.2411 235.27 -98.8571 238.029 -99.439 240.793ZM-95.5464 224.287L-94.5214 224.534C-93.8091 221.807 -93.0626 219.086 -92.2837 216.374L-93.3022 216.102C-94.0839 218.823 -94.8313 221.551 -95.5464 224.287ZM-90.8601 207.972L-89.849 208.267C-89.0044 205.576 -88.1275 202.892 -87.2181 200.217L-88.2209 199.898C-89.1339 202.581 -90.0127 205.272 -90.8601 207.972Z" stroke="url(#paint6_linear_8056_25824)" stroke-width="2.30526" stroke-dasharray="9.22 9.22"/>
</g>
</g>
<defs>
<linearGradient id="paint0_linear_8056_25824" x1="351.758" y1="102.791" x2="344.085" y2="373.236" gradientUnits="userSpaceOnUse">
<stop stop-color="#27B2FF"/>
<stop offset="1" stop-color="#197BFF"/>
</linearGradient>
<linearGradient id="paint1_linear_8056_25824" x1="351.758" y1="102.791" x2="344.085" y2="373.236" gradientUnits="userSpaceOnUse">
<stop stop-color="#27B2FF"/>
<stop offset="1" stop-color="#197BFF"/>
</linearGradient>
<linearGradient id="paint2_linear_8056_25824" x1="586.925" y1="584.287" x2="403.776" y2="362.183" gradientUnits="userSpaceOnUse">
<stop stop-color="#0061E3" stop-opacity="0"/>
<stop offset="1" stop-color="#197BFF"/>
</linearGradient>
<linearGradient id="paint3_linear_8056_25824" x1="810.052" y1="275.779" x2="400.01" y2="771.55" gradientUnits="userSpaceOnUse">
<stop stop-color="#12C45A"/>
<stop offset="1" stop-color="#5FED98"/>
</linearGradient>
<linearGradient id="paint4_linear_8056_25824" x1="807.694" y1="312.572" x2="438.66" y2="758.76" gradientUnits="userSpaceOnUse">
<stop stop-color="white"/>
<stop offset="1" stop-color="#D9FFE8"/>
</linearGradient>
<linearGradient id="paint5_linear_8056_25824" x1="-26.9584" y1="358.074" x2="265.7" y2="-20.063" gradientUnits="userSpaceOnUse">
<stop stop-color="#12C45A"/>
<stop offset="1" stop-color="#5FED98"/>
</linearGradient>
<linearGradient id="paint6_linear_8056_25824" x1="-47.1942" y1="333.361" x2="231.04" y2="-29.3393" gradientUnits="userSpaceOnUse">
<stop stop-color="white"/>
<stop offset="1" stop-color="#D9FFE8"/>
</linearGradient>
</defs>
</svg>
