<svg width="5067" height="1497" viewBox="0 0 5067 1497" fill="none" xmlns="http://www.w3.org/2000/svg">
<path d="M2771.6 697.756C2720.31 697.756 2692.83 677.147 2674.97 629.518L2547.19 286.952C2543.07 275.045 2539.87 260.847 2539.87 247.108C2539.87 210.928 2568.72 187.113 2606.73 187.113C2639.25 187.113 2660.77 204.517 2670.85 240.697L2770.23 569.981H2772.98L2872.36 239.323C2881.52 204.059 2903.96 187.113 2935.1 187.113C2972.2 187.113 3000.13 212.76 3000.13 246.65C3000.13 259.016 2996.93 272.755 2992.8 284.204L2865.03 629.518C2848.08 676.689 2820.15 697.756 2771.6 697.756Z" fill="white"/>
<path d="M3503.09 747.217C3464.16 747.217 3436.22 723.402 3436.22 677.605V136.736C3436.22 90.9387 3464.16 66.666 3503.09 66.666C3542.47 66.666 3569.95 90.9387 3569.95 136.736V677.605C3569.95 723.402 3542.47 747.217 3503.09 747.217Z" fill="white"/>
<path d="M3149.66 731.271C2997.62 710.732 2920.9 604.706 2942.18 447.219C2963.33 290.64 3067.98 203.57 3211.85 223.005C3349.83 241.644 3429.66 348.553 3411.82 480.624C3406.85 517.386 3383.15 535.443 3346.39 530.477L3068.63 492.954L3067.84 498.854C3058.09 571.017 3095.28 624.104 3162.45 633.178C3211.01 639.738 3244.99 627.691 3286.55 590.326C3302.58 577.704 3315.05 574.305 3332.3 576.635C3360.89 580.498 3381.59 601.779 3377.48 632.187C3376.07 642.626 3371.42 653.089 3364.05 663.184C3323.73 718.74 3243.61 743.963 3149.66 731.271ZM3080.97 411.899L3287.47 439.795C3293.33 375.888 3258.07 329.069 3199.97 321.222C3141.88 313.374 3093.91 350.334 3080.97 411.899Z" fill="white"/>
<path d="M2330.49 731.132C2237.79 742.784 2159.82 691.657 2148.79 603.958C2137.65 515.35 2199.36 455.435 2320.22 432.857L2442 410.164L2437.94 377.902C2432.23 332.462 2397.11 310.105 2347.13 316.388C2306.69 321.472 2283.8 337.734 2259.07 379.616C2246.58 397.802 2230.8 408.095 2209.44 410.779C2177.18 414.835 2151.38 396.845 2147.61 366.855C2146.29 356.404 2147.36 346.576 2150.65 336.008C2166.06 274.989 2239.71 229.267 2340.58 216.586C2465.54 200.879 2554.99 255.179 2567.33 353.329L2602.23 630.967C2607.77 675.044 2583.81 701.134 2546.1 705.875C2510.2 710.387 2482.7 693.535 2475.06 654.8L2471.92 629.808L2469.19 630.15C2448.44 685.379 2391.38 723.478 2330.49 731.132ZM2362.06 629.77C2420.22 622.459 2463.19 578.746 2456.56 526.036L2452.11 490.593L2350.21 509.863C2301.14 519.724 2275.77 545.531 2280.11 580.066C2284.68 616.418 2317.52 635.368 2362.06 629.77Z" fill="white"/>
<path d="M1969.7 730.737C1929.41 731.856 1902.16 707.415 1900.92 663.009L1890.55 289.445C1889.36 246.87 1914.77 221.424 1953.23 220.355C1990.77 219.312 2017.09 243.321 2018.27 285.896L2019.16 317.942L2021.91 317.866C2033.04 256.623 2072.32 219.337 2121.3 217.976C2139.16 217.48 2153.46 221.206 2163.3 229.179C2176.4 238.895 2183.27 255.198 2183.91 278.087C2184.49 299.146 2178.53 315.347 2166.01 326.691C2153.5 338.034 2134.44 344.519 2108.36 345.702C2047.49 348.309 2026.93 383.242 2028.55 441.383L2034.6 659.295C2035.84 703.701 2010.44 729.605 1969.7 730.737Z" fill="white"/>
<path d="M1793.97 743.303C1750.66 747.524 1722.56 723.575 1718.16 678.45L1671.28 197.565L1535.45 210.806C1498.08 214.449 1470.92 195.47 1467.45 159.916C1463.99 124.363 1486.51 100.54 1524.34 96.8522L1934.12 56.9073C1971.5 53.2638 1998.2 72.2878 2001.67 107.841C2005.13 143.395 1982.15 167.262 1945.23 170.861L1808.94 184.146L1855.82 665.031C1860.22 710.156 1837.27 739.082 1793.97 743.303Z" fill="white"/>
<path d="M1779.91 1400.18C1686.49 1400.18 1615.5 1339.73 1615.5 1251.34C1615.5 1162.03 1684.2 1110.28 1806.93 1102.95L1930.59 1095.63V1063.11C1930.59 1017.31 1898.53 990.751 1848.15 990.751C1807.39 990.751 1782.66 1004.03 1752.89 1042.5C1738.24 1058.99 1721.29 1067.23 1699.77 1067.23C1667.25 1067.23 1643.89 1046.17 1643.89 1015.94C1643.89 1005.41 1646.18 995.788 1650.76 985.713C1673.66 927.092 1752.43 890.912 1854.1 890.912C1980.05 890.912 2062.03 955.945 2062.03 1054.87V1334.69C2062.03 1379.11 2035.01 1402.01 1996.99 1402.01C1960.81 1402.01 1935.62 1381.86 1932.88 1342.48V1317.29H1930.13C1902.65 1369.5 1841.28 1400.18 1779.91 1400.18ZM1823.88 1303.55C1882.5 1303.55 1930.59 1265.54 1930.59 1212.41V1176.69L1827.08 1183.1C1777.17 1186.76 1748.77 1209.2 1748.77 1244.01C1748.77 1280.65 1779 1303.55 1823.88 1303.55Z" fill="white"/>
<path d="M2165.55 1411.63C2126.62 1411.63 2098.69 1387.82 2098.69 1342.02V968.31C2098.69 926.634 2122.96 900.988 2163.26 900.988C2203.56 900.988 2230.12 926.634 2230.12 968.768V996.246H2232.87C2258.98 935.336 2308.44 901.903 2384 901.903C2493 901.903 2554.37 970.6 2554.37 1085.55V1342.02C2554.37 1387.82 2526.43 1411.63 2487.51 1411.63C2448.12 1411.63 2420.64 1387.82 2420.64 1342.02V1113.49C2420.64 1049.37 2390.42 1012.73 2330.42 1012.73C2270.43 1012.73 2232.41 1056.7 2232.41 1120.36V1342.02C2232.41 1387.82 2204.94 1411.63 2165.55 1411.63Z" fill="white"/>
<path d="M2636.28 852.586C2595.98 852.586 2564.84 821.902 2564.84 783.432C2564.84 744.504 2595.98 714.277 2636.28 714.277C2676.58 714.277 2707.73 744.504 2707.73 783.432C2707.73 821.902 2676.58 852.586 2636.28 852.586ZM2636.28 1414.06C2594.61 1414.06 2569.42 1387.96 2569.42 1344.45V973.491C2569.42 929.984 2594.61 903.421 2636.28 903.421C2677.5 903.421 2703.15 929.984 2703.15 973.491V1344.45C2703.15 1387.96 2677.5 1414.06 2636.28 1414.06Z" fill="white"/>
<path d="M2807.51 1414.06C2767.66 1414.06 2740.64 1389.79 2740.64 1344.45V971.659C2740.64 926.778 2767.21 903.421 2805.22 903.421C2843.23 903.421 2869.79 926.778 2869.79 971.659V1002.34H2872.54C2893.15 943.265 2945.82 904.337 3012.68 904.337C3083.67 904.337 3133.13 940.975 3149.61 1005.09H3152.36C3174.34 943.265 3232.97 904.337 3304.87 904.337C3401.04 904.337 3465.62 970.285 3465.62 1069.21V1344.45C3465.62 1389.79 3438.14 1414.06 3398.29 1414.06C3358.91 1414.06 3331.89 1389.79 3331.89 1344.45V1102.64C3331.89 1045.85 3303.49 1014.71 3251.74 1014.71C3200.91 1014.71 3167.48 1051.81 3167.48 1106.3V1344.45C3167.48 1389.79 3142.74 1414.06 3102.9 1414.06C3063.51 1414.06 3038.78 1389.79 3038.78 1344.45V1098.52C3038.78 1045.85 3009.02 1014.71 2959.55 1014.71C2908.72 1014.71 2874.37 1053.18 2874.37 1108.14V1344.45C2874.37 1389.79 2846.89 1414.06 2807.51 1414.06Z" fill="white"/>
<path d="M3610.21 1400.65C3517.55 1388.63 3454.94 1319.55 3466.31 1231.89C3477.8 1143.33 3552.58 1100.85 3675.24 1109.37L3798.81 1118.01L3802.99 1085.77C3808.89 1040.35 3780.51 1009.88 3730.55 1003.4C3690.13 998.159 3663.9 1008.15 3629.43 1042.47C3612.77 1056.93 3594.91 1062.93 3573.56 1060.16C3541.32 1055.98 3520.86 1032.08 3524.75 1002.1C3526.11 991.658 3529.62 982.415 3535.45 973.012C3565.71 917.825 3648.48 892.08 3749.3 905.161C3874.2 921.364 3947.13 996.403 3934.4 1094.5L3898.4 1372C3892.68 1416.06 3862.94 1435.29 3825.25 1430.4C3789.37 1425.74 3766.98 1402.52 3769.32 1363.11L3772.56 1338.13L3769.84 1337.77C3735.87 1386.01 3671.06 1408.55 3610.21 1400.65ZM3666.24 1310.48C3724.37 1318.02 3776.95 1286.51 3783.78 1233.83L3788.38 1198.4L3684.91 1191.44C3634.94 1188.65 3603.89 1207.26 3599.41 1241.77C3594.7 1278.11 3621.73 1304.7 3666.24 1310.48Z" fill="white"/>
<path d="M4001.91 1302.32V1037.61H3976.27C3944.67 1037.61 3924.52 1018.37 3924.52 987.231C3924.52 956.088 3944.67 936.853 3976.27 936.853H4001.91V882.354C4001.91 839.305 4027.1 812.742 4068.78 812.742C4110.45 812.742 4135.64 839.305 4135.64 882.354V936.853H4182.81C4214.41 936.853 4234.11 956.546 4234.11 987.231C4234.11 1017.91 4214.41 1037.61 4182.81 1037.61H4135.64V1272.55C4135.64 1307.36 4147.55 1322.01 4176.4 1324.3L4185.1 1325.22C4218.08 1328.88 4235.94 1342.62 4235.94 1373.76C4235.94 1413.15 4197.47 1433.3 4141.14 1433.3H4136.56C4047.25 1433.3 4001.91 1388.87 4001.91 1302.32Z" fill="white"/>
<path d="M4490.86 1402.82C4344.18 1425.24 4236.07 1345.39 4211.72 1186.03C4187.72 1028.94 4268.19 918.887 4413.51 896.68C4558.84 874.473 4668.44 955.016 4692.51 1112.56C4716.93 1272.37 4637.54 1380.41 4490.86 1402.82ZM4475.43 1301.86C4540.17 1291.97 4572.99 1230.9 4558.12 1133.56C4543.39 1037.13 4493.23 987.813 4428.94 997.636C4364.65 1007.46 4331.06 1069.58 4345.8 1166.01C4360.67 1263.34 4410.24 1311.83 4475.43 1301.86Z" fill="white"/>
<path d="M4795.73 1455.38C4755.5 1452.98 4730.49 1426.25 4733.13 1381.91L4755.39 1008.87C4757.92 966.349 4785.45 943.217 4823.85 945.508C4861.34 947.744 4885.47 973.958 4882.93 1016.47L4881.02 1048.48L4883.77 1048.64C4900.2 988.6 4942.58 954.885 4991.5 957.803C5009.33 958.866 5023.25 963.826 5032.36 972.628C5044.56 983.449 5049.98 1000.29 5048.62 1023.15C5047.36 1044.18 5040.01 1059.8 5026.55 1070C5013.1 1080.21 4993.54 1085.01 4967.46 1083.91C4906.6 1081.2 4883.07 1114.2 4879.6 1172.26L4866.62 1389.87C4863.98 1434.22 4836.42 1457.81 4795.73 1455.38Z" fill="white"/>
<mask id="mask0_14741_17557" style="mask-type:luminance" maskUnits="userSpaceOnUse" x="38" y="49" width="1396" height="1386">
<path d="M1433.1 741.57C1433.1 359.089 1120.8 49.0273 735.559 49.0273C350.316 49.0273 38.0156 359.089 38.0156 741.57C38.0156 1124.05 350.316 1434.11 735.559 1434.11C1120.8 1434.11 1433.1 1124.05 1433.1 741.57Z" fill="white"/>
</mask>
<g mask="url(#mask0_14741_17557)">
<path d="M1433.1 741.57C1433.1 359.089 1120.8 49.0273 735.559 49.0273C350.316 49.0273 38.0156 359.089 38.0156 741.57C38.0156 1124.05 350.316 1434.11 735.559 1434.11C1120.8 1434.11 1433.1 1124.05 1433.1 741.57Z" fill="white"/>
<path d="M735.559 1434.11C1120.8 1434.11 1433.1 1124.05 1433.1 741.57C1433.1 359.088 1120.8 49.0273 735.559 49.0273C350.317 49.0273 38.0156 359.088 38.0156 741.57C38.0156 889.916 84.9953 1027.37 164.989 1140.06C232.786 1030.59 315.11 930.33 409.95 842.072C428.343 824.935 447.075 808.331 466.15 792.258C496.448 766.827 527.76 742.634 560.085 719.678C586.438 701.01 613.408 683.19 640.995 666.217C600.51 629.732 558.387 593.955 514.965 559.162L425.55 491.148L412.522 481.059C411.07 479.965 409.561 478.942 408.013 477.895C407.626 477.632 407.234 477.368 406.843 477.101C405.579 476.24 404.823 475.672 404.089 475.119C403.689 474.818 403.288 474.516 402.819 474.177C401.48 473.204 400.144 472.223 398.807 471.242C394.881 468.361 390.938 465.468 386.843 462.673C385.178 460.871 383.675 458.93 382.351 456.87C377.327 449.03 374.837 439.851 375.216 430.566C375.595 421.282 378.822 412.334 384.466 404.919C390.109 397.506 397.899 391.983 406.794 389.091C415.688 386.196 425.262 386.071 434.229 388.728L441.569 391.582L467.294 401.625L541.13 430.15L662.303 477.757L852.907 552.351C876.216 539.471 898.72 527.486 920.208 516.579C947.832 502.611 973.753 490.542 997.28 480.752L1001.57 478.858C1041.84 462.262 1074.4 452.826 1095.27 453.143C1102.2 452.738 1109.08 454.594 1114.86 458.425C1115.97 465.366 1114.71 472.475 1111.29 478.625C1102.64 497.607 1080.23 522.881 1048.2 552.051L1044.65 555.114C1025.77 572.141 1003.79 590.359 979.361 609.307C960.295 623.988 939.865 639.206 918.253 654.731L915.505 701.979L909.979 792.994L894.49 1041.28L892.904 1065.26L891.192 1092.66L890.693 1100.47C889.328 1109.66 885.166 1118.22 878.762 1125C872.361 1131.78 864.025 1136.45 854.872 1138.39C845.719 1140.34 836.187 1139.46 827.553 1135.87C818.917 1132.28 811.592 1126.16 806.56 1118.33C805.233 1116.25 804.088 1114.07 803.14 1111.79C802.958 1110.85 802.777 1109.91 802.595 1108.96C802.441 1108.16 802.287 1107.36 802.134 1106.55L802.128 1106.53C801.236 1101.88 800.34 1097.21 799.419 1092.59C799.265 1091.85 799.119 1091.1 798.975 1090.36C798.893 1089.93 798.808 1089.5 798.725 1089.08C798.634 1088.62 798.543 1088.17 798.451 1087.74C798.305 1087.05 798.149 1086.08 797.979 1085.02C797.768 1083.69 797.533 1082.22 797.265 1080.99L769.455 955.533C756.394 902.966 741.925 851.122 726.132 800.392L726.075 800.209L711.489 809.432C677.039 831.216 643.837 854.211 611.902 878.328C374.557 1057.57 437.352 1434.11 735.559 1434.11Z" fill="url(#paint0_linear_14741_17557)"/>
<mask id="mask1_14741_17557" style="mask-type:alpha" maskUnits="userSpaceOnUse" x="38" y="49" width="1396" height="1386">
<path d="M735.559 1434.11C1120.8 1434.11 1433.1 1124.05 1433.1 741.57C1433.1 359.088 1120.8 49.0273 735.559 49.0273C350.317 49.0273 38.0156 359.088 38.0156 741.57C38.0156 889.916 84.9953 1027.37 164.989 1140.06C232.786 1030.59 315.11 930.33 409.95 842.072C428.343 824.935 447.075 808.331 466.15 792.258C496.448 766.827 527.76 742.634 560.085 719.678C586.438 701.01 613.408 683.19 640.995 666.217C600.51 629.732 558.387 593.955 514.965 559.162L425.55 491.148L412.522 481.059C411.07 479.965 409.561 478.942 408.013 477.895C407.626 477.632 407.234 477.368 406.843 477.101C405.579 476.24 404.823 475.672 404.089 475.119C403.689 474.818 403.288 474.516 402.819 474.177C401.48 473.204 400.144 472.223 398.807 471.242C394.881 468.361 390.938 465.468 386.843 462.673C385.178 460.871 383.675 458.93 382.351 456.87C377.327 449.03 374.837 439.851 375.216 430.566C375.595 421.282 378.822 412.334 384.466 404.919C390.109 397.506 397.899 391.983 406.794 389.091C415.688 386.196 425.262 386.071 434.229 388.728L441.569 391.582L467.294 401.625L541.13 430.15L662.303 477.757L852.907 552.351C876.216 539.471 898.72 527.486 920.208 516.579C947.832 502.611 973.753 490.542 997.28 480.752L1001.57 478.858C1041.84 462.262 1074.4 452.826 1095.27 453.143C1102.2 452.738 1109.08 454.594 1114.86 458.425C1115.97 465.366 1114.71 472.475 1111.29 478.625C1102.64 497.607 1080.23 522.881 1048.2 552.051L1044.65 555.114C1025.77 572.141 1003.79 590.359 979.361 609.307C960.295 623.988 939.865 639.206 918.253 654.731L915.505 701.979L909.979 792.994L894.49 1041.28L892.904 1065.26L891.192 1092.66L890.693 1100.47C889.328 1109.66 885.166 1118.22 878.762 1125C872.361 1131.78 864.025 1136.45 854.872 1138.39C845.719 1140.34 836.187 1139.46 827.553 1135.87C818.917 1132.28 811.592 1126.16 806.56 1118.33C805.233 1116.25 804.088 1114.07 803.14 1111.79C802.958 1110.85 802.777 1109.91 802.595 1108.96C802.441 1108.16 802.287 1107.36 802.134 1106.55L802.128 1106.53C801.236 1101.88 800.34 1097.21 799.419 1092.59C799.265 1091.85 799.119 1091.1 798.975 1090.36C798.893 1089.93 798.808 1089.5 798.725 1089.08C798.634 1088.62 798.543 1088.17 798.451 1087.74C798.305 1087.05 798.149 1086.08 797.979 1085.02C797.768 1083.69 797.533 1082.22 797.265 1080.99L769.455 955.533C756.394 902.966 741.925 851.122 726.132 800.392L726.075 800.209L711.489 809.432C677.039 831.216 643.837 854.211 611.902 878.328C374.557 1057.57 437.352 1434.11 735.559 1434.11Z" fill="url(#paint1_linear_14741_17557)"/>
</mask>
<g mask="url(#mask1_14741_17557)">
<path style="mix-blend-mode:multiply" opacity="0.3" d="M1326.65 -288.047C1423.4 -75.2542 1444.3 163.896 1385.91 390.056C1327.51 616.216 1193.31 815.914 1005.37 956.291C817.428 1096.67 586.953 1169.37 351.865 1162.42C116.774 1155.47 -108.926 1069.3 -288.102 918.073C-224.314 1058.75 -129.456 1183.37 -10.5534 1282.7C108.349 1382.03 248.246 1453.53 398.772 1491.9C549.298 1530.27 706.596 1534.53 859.007 1504.35C1011.42 1474.17 1155.04 1410.34 1279.23 1317.58C1403.41 1224.82 1504.98 1105.51 1576.41 968.498C1647.83 831.48 1687.29 680.269 1691.84 526.063C1696.4 371.859 1665.94 218.615 1602.72 77.6876C1539.51 -63.2398 1445.15 -188.238 1326.65 -288.047Z" fill="url(#paint2_linear_14741_17557)"/>
<path d="M1766.07 984.362C1804.02 894.077 1828.85 799.174 1840.04 702.493C1848.31 631.028 1797.88 616.833 1737.73 656.931C1673.52 699.663 1587.36 663.917 1522.23 621.898C1457.09 579.88 1384.85 530.43 1309.95 548.303C1218.79 570.375 1180.71 680.831 1184.75 773.853C1188.78 866.875 1218.81 960.773 1198.49 1051.71C1172.82 1167.48 1058.36 1257.28 939.286 1255.44C858.664 1254.14 783.256 1216.13 703.609 1203.85C499.406 1172.47 441.88 1368.28 602.042 1477.3C658.791 1515.69 717.526 1551.06 777.999 1583.28C830.848 1611.43 891.423 1620.59 950.526 1630.71C1138.77 1662.94 1375.07 1792.66 1512.05 1695.96C1672.28 1582.85 1690.19 1164.48 1766.07 984.362Z" fill="url(#paint3_linear_14741_17557)"/>
<path d="M1733 730.106C1735.49 728.447 1737.95 726.894 1740.39 725.449L1739.24 723.534C1744.61 720.355 1749.87 717.672 1754.97 715.492L1755.86 717.539C1761.57 715.098 1767.06 713.308 1772.25 712.163L1771.77 709.987C1778.03 708.606 1783.93 708.124 1789.35 708.549L1789.17 710.77C1795.15 711.238 1800.44 712.858 1804.93 715.586L1806.1 713.684C1810.98 716.65 1815.04 720.864 1818.1 726.338L1816.14 727.421C1818.58 731.797 1820.39 737.084 1821.41 743.326L1823.63 742.968C1824.49 748.199 1824.81 754.029 1824.53 760.461L1822.29 760.367C1822.17 763.128 1821.94 766.007 1821.59 769.008C1821.23 772.11 1820.86 775.212 1820.47 778.311L1822.7 778.589C1821.91 784.803 1821.07 791.008 1820.16 797.204L1817.94 796.883C1817.03 803.066 1816.06 809.239 1815.03 815.403L1817.25 815.767C1816.21 821.944 1815.12 828.111 1813.96 834.267L1811.75 833.857C1810.6 839.999 1809.38 846.129 1808.1 852.246L1810.3 852.698C1809.02 858.83 1807.67 864.949 1806.27 871.053L1804.08 870.556C1802.67 876.647 1801.21 882.722 1799.69 888.783L1801.86 889.324C1800.33 895.399 1798.74 901.459 1797.09 907.503L1794.93 906.919C1793.28 912.947 1791.57 918.96 1789.8 924.957L1791.96 925.583C1790.18 931.592 1788.35 937.583 1786.46 943.558L1784.31 942.889C1782.42 948.846 1780.47 954.787 1778.46 960.707L1780.59 961.42C1778.58 967.352 1776.5 973.265 1774.37 979.16L1772.25 978.406C1770.13 984.283 1767.94 990.139 1765.69 995.977L1767.79 996.775C1765.54 1002.62 1763.22 1008.45 1760.85 1014.25L1758.77 1013.42C1757.59 1016.31 1756.39 1019.2 1755.18 1022.08C1754.03 1024.8 1752.9 1027.58 1751.78 1030.42L1753.88 1031.23C1751.72 1036.7 1749.62 1042.38 1747.56 1048.27L1745.44 1047.54C1743.49 1053.13 1741.57 1058.9 1739.69 1064.84L1741.84 1065.5C1740.05 1071.15 1738.3 1076.95 1736.57 1082.88L1734.41 1082.26C1732.75 1087.99 1731.11 1093.83 1729.49 1099.8L1731.66 1100.37C1730.1 1106.13 1728.56 1111.99 1727.04 1117.95L1724.86 1117.41C1723.38 1123.21 1721.91 1129.1 1720.46 1135.08L1722.64 1135.6C1721.23 1141.42 1719.83 1147.3 1718.44 1153.27L1716.25 1152.76C1714.89 1158.59 1713.54 1164.48 1712.19 1170.44L1714.38 1170.93C1713.06 1176.77 1711.75 1182.68 1710.43 1188.63L1708.24 1188.16C1706.94 1194.03 1705.65 1199.95 1704.36 1205.91L1706.55 1206.38C1705.28 1212.27 1704 1218.19 1702.72 1224.16L1700.53 1223.69C1699.26 1229.57 1698 1235.49 1696.73 1241.43L1698.93 1241.89C1698.6 1243.42 1698.28 1244.95 1697.95 1246.48C1697.02 1250.85 1696.08 1255.24 1695.14 1259.63L1692.94 1259.17C1691.68 1265.07 1690.42 1270.99 1689.14 1276.92L1691.33 1277.39C1690.06 1283.3 1688.78 1289.21 1687.49 1295.14L1685.3 1294.67C1684.01 1300.57 1682.71 1306.48 1681.4 1312.39L1683.59 1312.87C1682.28 1318.77 1680.96 1324.68 1679.62 1330.58L1677.43 1330.09C1676.09 1335.99 1674.74 1341.89 1673.37 1347.77L1675.55 1348.28C1674.18 1354.17 1672.79 1360.06 1671.37 1365.93L1669.19 1365.41C1667.77 1371.31 1666.33 1377.18 1664.87 1383.04L1667.05 1383.57C1665.58 1389.47 1664.08 1395.34 1662.56 1401.18L1660.39 1400.62C1658.86 1406.49 1657.31 1412.33 1655.73 1418.14L1657.9 1418.72C1656.3 1424.58 1654.68 1430.4 1653.03 1436.18L1650.87 1435.57C1649.19 1441.42 1647.49 1447.23 1645.75 1452.98L1647.9 1453.62C1646.13 1459.46 1644.33 1465.25 1642.49 1470.98L1640.36 1470.3C1638.5 1476.1 1636.6 1481.83 1634.66 1487.5L1636.79 1488.21C1634.81 1493.99 1632.8 1499.69 1630.74 1505.31L1628.62 1504.55C1626.53 1510.27 1624.39 1515.9 1622.19 1521.45L1624.28 1522.26C1622.03 1527.97 1619.72 1533.58 1617.35 1539.09L1615.29 1538.22C1612.88 1543.84 1610.4 1549.35 1607.87 1554.75L1609.91 1555.69C1607.3 1561.25 1604.62 1566.69 1601.88 1572L1599.88 1570.98C1597.07 1576.41 1594.18 1581.71 1591.22 1586.84L1593.17 1587.95C1590.1 1593.29 1586.94 1598.46 1583.7 1603.46L1581.81 1602.26C1578.48 1607.39 1575.06 1612.34 1571.54 1617.09L1573.35 1618.41C1569.67 1623.36 1565.89 1628.11 1562 1632.62L1560.3 1631.17C1556.31 1635.8 1552.2 1640.18 1547.98 1644.3L1549.55 1645.89C1545.13 1650.19 1540.58 1654.21 1535.9 1657.93L1534.49 1656.19C1532.15 1658.06 1529.76 1659.84 1527.34 1661.55C1525 1663.2 1522.61 1664.79 1520.18 1666.32L1521.37 1668.21C1516.47 1671.29 1511.38 1674.12 1506.11 1676.72L1505.11 1674.73C1500 1677.25 1494.72 1679.56 1489.28 1681.65L1490.09 1683.73C1484.72 1685.8 1479.2 1687.66 1473.54 1689.33L1472.9 1687.2C1467.43 1688.81 1461.83 1690.25 1456.11 1691.51L1456.6 1693.69C1450.98 1694.93 1445.24 1696.01 1439.4 1696.93L1439.04 1694.73C1433.4 1695.63 1427.64 1696.38 1421.8 1697L1422.03 1699.21C1416.3 1699.82 1410.48 1700.3 1404.58 1700.65L1404.44 1698.43C1398.71 1698.77 1392.91 1699.01 1387.03 1699.14L1387.08 1701.37C1381.3 1701.49 1375.46 1701.52 1369.56 1701.45L1369.59 1699.22C1363.83 1699.15 1358.02 1699 1352.15 1698.76L1352.05 1700.99C1346.28 1700.75 1340.44 1700.44 1334.57 1700.05L1334.72 1697.83C1328.96 1697.45 1323.15 1697 1317.31 1696.49L1317.11 1698.71C1311.34 1698.2 1305.53 1697.63 1299.68 1697.01L1299.92 1694.79C1294.17 1694.18 1288.38 1693.51 1282.57 1692.79L1282.29 1695C1276.53 1694.29 1270.74 1693.53 1264.93 1692.73L1265.23 1690.53C1259.49 1689.73 1253.72 1688.9 1247.93 1688.03L1247.59 1690.24C1241.84 1689.37 1236.07 1688.48 1230.29 1687.55L1230.65 1685.35C1224.9 1684.43 1219.15 1683.48 1213.38 1682.5L1213.01 1684.7C1207.26 1683.73 1201.51 1682.73 1195.75 1681.72L1196.14 1679.52C1190.4 1678.51 1184.66 1677.48 1178.92 1676.44L1178.51 1678.63C1172.77 1677.59 1167.03 1676.54 1161.29 1675.47L1161.71 1673.28C1155.96 1672.22 1150.23 1671.14 1144.5 1670.07L1144.08 1672.26C1138.34 1671.18 1132.6 1670.1 1126.88 1669.02L1127.3 1666.83L1126.83 1666.74C1121.23 1665.68 1115.65 1664.63 1110.08 1663.58L1109.67 1665.78C1103.91 1664.69 1098.17 1663.62 1092.45 1662.56L1092.86 1660.37C1087.09 1659.3 1081.34 1658.24 1075.63 1657.2L1075.22 1659.4C1069.45 1658.35 1063.7 1657.32 1057.98 1656.32L1058.37 1654.12C1052.58 1653.11 1046.82 1652.12 1041.1 1651.16L1040.72 1653.36C1034.91 1652.39 1029.15 1651.45 1023.44 1650.55L1023.79 1648.35C1017.95 1647.43 1012.17 1646.56 1006.44 1645.73L1006.12 1647.94C1000.28 1647.09 994.49 1646.3 988.767 1645.57L989.055 1643.35C986.153 1642.98 983.267 1642.62 980.397 1642.28C977.428 1641.93 974.46 1641.57 971.489 1641.2L971.211 1643.41C965.273 1642.67 959.33 1641.9 953.392 1641.07L953.704 1638.87C947.784 1638.04 941.87 1637.17 935.971 1636.23L935.616 1638.44C929.699 1637.5 923.792 1636.49 917.906 1635.4L918.318 1633.21C912.442 1632.12 906.591 1630.95 900.772 1629.68L900.29 1631.86C894.43 1630.59 888.601 1629.21 882.807 1627.73L883.369 1625.57C877.591 1624.09 871.853 1622.49 866.164 1620.76L865.509 1622.89C859.775 1621.15 854.087 1619.28 848.456 1617.26L849.219 1615.17C843.623 1613.16 838.083 1611.01 832.609 1608.69L831.73 1610.74C826.226 1608.41 820.787 1605.92 815.422 1603.25L816.428 1601.26C813.775 1599.94 811.141 1598.57 808.526 1597.16C805.949 1595.77 803.375 1594.38 800.807 1592.97L799.726 1594.93C794.579 1592.12 789.448 1589.28 784.331 1586.43L785.432 1584.48C780.321 1581.63 775.225 1578.74 770.144 1575.84L769.023 1577.77C763.936 1574.86 758.862 1571.92 753.805 1568.96L754.945 1567.04C749.893 1564.08 744.857 1561.1 739.836 1558.09L738.676 1560C733.648 1556.99 728.636 1553.95 723.639 1550.89L724.817 1548.99C719.828 1545.94 714.851 1542.85 709.892 1539.75L708.694 1541.63C703.727 1538.52 698.778 1535.39 693.844 1532.22L695.061 1530.35C690.134 1527.19 685.222 1524.01 680.326 1520.81L679.089 1522.67C674.187 1519.46 669.303 1516.22 664.432 1512.97L665.687 1511.12C663.257 1509.49 660.828 1507.86 658.406 1506.22C655.853 1504.48 653.364 1502.72 650.938 1500.93L649.6 1502.73C644.57 1499.03 639.802 1495.23 635.293 1491.35L636.762 1489.67C632.085 1485.64 627.692 1481.53 623.577 1477.34L621.969 1478.9C617.58 1474.43 613.505 1469.88 609.737 1465.26L611.481 1463.86C607.581 1459.08 604.015 1454.23 600.781 1449.33L598.903 1450.55C595.475 1445.36 592.412 1440.12 589.707 1434.84L591.707 1433.83C588.902 1428.36 586.492 1422.85 584.466 1417.35L582.357 1418.11C580.215 1412.29 578.495 1406.47 577.191 1400.67L579.382 1400.18C578.045 1394.24 577.153 1388.32 576.698 1382.48L574.461 1382.65C573.979 1376.5 573.973 1370.42 574.433 1364.44L576.672 1364.61C577.131 1358.61 578.07 1352.73 579.475 1347L577.295 1346.48C578.751 1340.54 580.7 1334.78 583.13 1329.22L585.19 1330.11C587.571 1324.67 590.421 1319.43 593.735 1314.45L591.861 1313.22C595.197 1308.2 598.992 1303.43 603.237 1298.95L604.871 1300.48C608.915 1296.22 613.375 1292.22 618.245 1288.53L616.884 1286.76C621.628 1283.17 626.749 1279.87 632.243 1276.89L633.318 1278.85C638.457 1276.06 643.931 1273.56 649.734 1271.38L648.939 1269.3C654.478 1267.21 660.31 1265.42 666.425 1263.93L666.957 1266.1C672.65 1264.72 678.6 1263.61 684.798 1262.8L684.504 1260.59C690.377 1259.82 696.466 1259.31 702.771 1259.08L702.853 1261.3C708.704 1261.09 714.744 1261.12 720.974 1261.41L721.077 1259.18C727.004 1259.45 733.094 1259.95 739.347 1260.7L739.079 1262.92C742.083 1263.27 745.127 1263.69 748.208 1264.16C751.177 1264.62 754.138 1265.12 757.097 1265.65L757.497 1263.46C763.445 1264.53 769.369 1265.75 775.273 1267.08L774.776 1269.25C780.64 1270.57 786.489 1272.01 792.328 1273.52L792.896 1271.36C798.743 1272.88 804.576 1274.47 810.399 1276.11L809.786 1278.26C815.592 1279.89 821.389 1281.57 827.189 1283.27L827.826 1281.14C830.603 1281.95 833.381 1282.77 836.156 1283.58C839.18 1284.47 842.202 1285.36 845.224 1286.25L844.589 1288.39C850.401 1290.09 856.218 1291.77 862.041 1293.41L862.653 1291.26C868.482 1292.9 874.317 1294.49 880.162 1295.99L879.598 1298.15C885.482 1299.67 891.382 1301.1 897.302 1302.42L897.793 1300.25C903.705 1301.56 909.631 1302.77 915.576 1303.82L915.184 1306.01C921.179 1307.07 927.199 1307.98 933.249 1308.71L933.518 1306.49C939.514 1307.22 945.537 1307.75 951.589 1308.07L951.469 1310.3C954.51 1310.46 957.562 1310.57 960.622 1310.62C963.547 1310.66 966.508 1310.62 969.498 1310.48L969.396 1308.26C975.089 1308 980.896 1307.42 986.798 1306.54L987.132 1308.75C992.858 1307.89 998.664 1306.75 1004.53 1305.35L1004 1303.18C1009.56 1301.85 1015.18 1300.28 1020.84 1298.49L1021.53 1300.61C1027.05 1298.86 1032.61 1296.9 1038.18 1294.73L1037.36 1292.66C1042.72 1290.58 1048.09 1288.31 1053.47 1285.88L1054.4 1287.9C1059.7 1285.51 1064.99 1282.94 1070.26 1280.22L1069.23 1278.24C1074.36 1275.6 1079.48 1272.81 1084.57 1269.88L1085.69 1271.81C1090.74 1268.91 1095.76 1265.87 1100.74 1262.72L1099.53 1260.84C1104.43 1257.73 1109.29 1254.5 1114.1 1251.17L1115.38 1253C1120.18 1249.67 1124.93 1246.23 1129.6 1242.7L1128.24 1240.93C1132.89 1237.42 1137.47 1233.81 1141.97 1230.12L1143.4 1231.84C1147.93 1228.13 1152.38 1224.32 1156.74 1220.45L1155.24 1218.79C1159.61 1214.9 1163.88 1210.94 1168.05 1206.91L1169.62 1208.51C1173.85 1204.42 1177.97 1200.26 1181.97 1196.04L1180.33 1194.51C1184.36 1190.26 1188.27 1185.95 1192.03 1181.59L1193.74 1183.04C1197.61 1178.56 1201.33 1174.03 1204.89 1169.46L1203.11 1168.1C1206.73 1163.46 1210.18 1158.78 1213.44 1154.08L1215.29 1155.34C1218.68 1150.45 1221.88 1145.53 1224.86 1140.59L1222.93 1139.45C1225.99 1134.39 1228.81 1129.32 1231.39 1124.24L1233.39 1125.25C1236.11 1119.9 1238.55 1114.55 1240.71 1109.21L1238.62 1108.39C1240.84 1102.89 1242.74 1097.4 1244.29 1091.96L1246.45 1092.57C1247.27 1089.71 1248 1086.87 1248.63 1084.03C1249.29 1081.07 1249.89 1078.11 1250.44 1075.14L1248.23 1074.74C1249.32 1068.83 1250.19 1062.91 1250.86 1056.97L1253.09 1057.22C1253.77 1051.21 1254.25 1045.2 1254.55 1039.18L1252.31 1039.06C1252.61 1033.09 1252.74 1027.1 1252.73 1021.1L1254.97 1021.1C1254.96 1015.09 1254.79 1009.07 1254.51 1003.04L1252.27 1003.15C1251.99 997.178 1251.6 991.201 1251.11 985.218L1253.34 985.037C1252.85 979.058 1252.27 973.077 1251.62 967.092L1249.39 967.331C1248.74 961.389 1248.03 955.441 1247.28 949.489L1249.51 949.211C1248.76 943.267 1247.96 937.319 1247.15 931.375L1244.93 931.674C1244.37 927.563 1243.8 923.451 1243.23 919.338C1242.98 917.516 1242.72 915.693 1242.47 913.872L1244.7 913.57C1243.88 907.636 1243.07 901.706 1242.29 895.777L1240.07 896.065C1239.28 890.121 1238.53 884.177 1237.84 878.233L1240.07 877.978C1239.38 872.034 1238.74 866.094 1238.19 860.16L1235.95 860.366C1235.39 854.392 1234.92 848.421 1234.54 842.455L1236.78 842.316C1236.6 839.339 1236.44 836.362 1236.31 833.387C1236.18 830.456 1236.1 827.502 1236.07 824.533L1233.83 824.557C1233.76 818.652 1233.88 812.688 1234.19 806.695L1236.43 806.811C1236.74 800.935 1237.22 795.034 1237.9 789.139L1235.67 788.887C1236.34 782.978 1237.2 777.073 1238.25 771.203L1240.46 771.593C1241.5 765.769 1242.73 759.979 1244.15 754.257L1241.97 753.724C1243.41 747.917 1245.04 742.175 1246.87 736.532L1249.01 737.216C1250.84 731.562 1252.88 726.009 1255.11 720.59L1253.04 719.744C1255.33 714.188 1257.84 708.767 1260.55 703.514L1262.55 704.532C1265.29 699.248 1268.24 694.143 1271.42 689.246L1269.53 688.04C1272.81 682.985 1276.33 678.148 1280.08 673.569L1281.82 674.977C1285.58 670.39 1289.58 666.072 1293.83 662.055L1292.28 660.441C1296.63 656.318 1301.24 652.505 1306.11 649.042L1307.42 650.856C1312.19 647.466 1317.21 644.418 1322.49 641.757L1321.47 639.769C1326.76 637.103 1332.29 634.814 1338.09 632.938L1338.78 635.057C1341.56 634.16 1344.39 633.359 1347.28 632.658C1350.07 631.992 1352.85 631.434 1355.63 630.973L1355.27 628.776C1361.04 627.822 1366.8 627.295 1372.53 627.152L1372.59 629.379C1378.29 629.238 1383.97 629.481 1389.63 630.069L1389.87 627.852C1395.6 628.445 1401.31 629.387 1406.99 630.629L1406.51 632.807C1412.04 634.017 1417.56 635.519 1423.05 637.274L1423.74 635.151C1429.2 636.896 1434.64 638.886 1440.04 641.079L1439.19 643.141C1444.46 645.28 1449.7 647.615 1454.92 650.11L1455.89 648.102C1461.08 650.582 1466.23 653.216 1471.34 655.968L1470.27 657.928C1475.32 660.641 1480.33 663.471 1485.31 666.383L1486.45 664.462C1491.44 667.374 1496.39 670.368 1501.3 673.406L1500.11 675.298C1505.02 678.336 1509.9 681.418 1514.74 684.515L1515.96 682.64C1520.85 685.772 1525.71 688.911 1530.53 692.027L1529.3 693.896C1531.73 695.468 1534.16 697.039 1536.57 698.596C1538.99 700.153 1541.44 701.702 1543.91 703.238L1545.1 701.346C1549.96 704.354 1554.93 707.309 1559.99 710.175L1558.87 712.112C1563.9 714.957 1569.02 717.715 1574.21 720.355L1575.23 718.371C1580.37 720.988 1585.59 723.487 1590.85 725.833L1589.93 727.866C1595.26 730.243 1600.65 732.468 1606.07 734.505L1606.87 732.421C1612.31 734.466 1617.79 736.323 1623.28 737.952L1622.64 740.087C1628.29 741.765 1633.95 743.209 1639.62 744.38L1640.08 742.196C1645.8 743.379 1651.52 744.28 1657.2 744.858L1656.97 747.075C1662.87 747.674 1668.74 747.933 1674.56 747.805L1674.51 745.576C1680.32 745.449 1686.08 744.93 1691.75 743.976L1692.12 746.174C1697.93 745.195 1703.65 743.767 1709.26 741.842L1708.53 739.734C1713.92 737.885 1719.2 735.571 1724.34 732.744L1725.43 734.695C1727.98 733.291 1730.51 731.763 1733 730.106Z" stroke="url(#paint4_linear_14741_17557)" stroke-width="4.91586" stroke-dasharray="19.65 19.65"/>
<path d="M-141.542 451.456C-167.453 519.483 -183.252 590.537 -188.633 662.494C-192.654 716.256 -154.08 724.96 -109.4 693.25C-61.9779 659.644 4.66753 683.536 55.5352 712.709C106.403 741.883 162.912 776.349 219.269 760.845C287.841 741.738 313.209 658.737 307.131 589.922C301.053 521.108 275.188 452.43 287.693 384.431C303.45 297.858 387.542 227.862 478.111 225.629C539.433 224.165 597.98 250.057 658.917 256.751C815.146 273.847 852.531 127.009 727.263 51.0467C695.539 31.933 663.095 13.9928 629.998 -2.73821C563.511 -36.35 486.964 -48.6748 413.827 -30.9242C306.91 -4.97481 206.28 42.209 118.516 108.078C0.393219 196.733 -89.698 315.688 -141.542 451.456Z" fill="url(#paint5_linear_14741_17557)"/>
<path d="M-174.899 389.847C-172.68 384.238 -170.393 378.656 -168.044 373.106L-165.963 373.938C-163.615 368.396 -161.205 362.882 -158.729 357.403L-160.789 356.521C-158.304 351.02 -155.754 345.548 -153.14 340.109L-151.101 341.035C-148.492 335.609 -145.819 330.211 -143.084 324.849L-145.099 323.873C-142.352 318.489 -139.543 313.141 -136.67 307.823L-134.68 308.846C-131.814 303.542 -128.886 298.274 -125.895 293.041L-127.86 291.971C-124.859 286.721 -121.797 281.505 -118.673 276.325L-116.736 277.439C-113.619 272.273 -110.442 267.144 -107.205 262.05L-109.114 260.89C-105.867 255.782 -102.558 250.712 -99.19 245.68L-97.3091 246.883C-93.9503 241.865 -90.5317 236.886 -87.0543 231.946L-88.9052 230.699C-85.4176 225.744 -81.871 220.83 -78.2662 215.956L-76.4463 217.247C-72.8525 212.388 -69.2004 207.57 -65.491 202.793L-67.279 201.461C-63.5598 196.672 -59.7832 191.924 -55.9498 187.22L-54.195 188.594C-50.3746 183.905 -46.4977 179.259 -42.5651 174.656L-44.286 173.242C-40.3443 168.628 -36.3466 164.059 -32.2936 159.533L-30.6074 160.987C-26.569 156.479 -22.476 152.014 -18.3285 147.595L-19.979 146.102C-15.8236 141.674 -11.6142 137.291 -7.35118 132.956L-5.73737 134.487C-1.49088 130.168 2.80888 125.895 7.16091 121.669L5.58457 120.1C9.94448 115.867 14.3567 111.681 18.8209 107.543L20.359 109.148C24.8035 105.028 29.2995 100.956 33.8464 96.932L32.3474 95.2916C36.9009 91.2622 41.5052 87.2815 46.1595 83.3508L47.6186 85.0257C52.2522 81.1123 56.9356 77.2484 61.668 73.4348L60.2494 71.7264C64.9859 67.9095 69.7713 64.143 74.6049 60.4277L75.982 62.1687C78.3894 60.3184 80.8086 58.4809 83.2397 56.6562C85.582 54.8983 87.9336 53.1537 90.294 51.4224L88.9582 49.6505C93.6966 46.1754 98.4714 42.7541 103.282 39.3871L104.576 41.1885C109.377 37.828 114.213 34.5216 119.084 31.2698L117.831 29.4398C122.72 26.1756 127.644 22.9662 132.601 19.8121L133.812 21.6697C138.758 18.5226 143.737 15.4305 148.75 12.3939L147.582 10.5096C152.611 7.46261 157.673 4.47121 162.767 1.53601L163.891 3.44593C168.972 0.517791 174.085 -2.35414 179.228 -5.16986L178.148 -7.10446C183.307 -9.92899 188.497 -12.6969 193.717 -15.4079L194.753 -13.4496C199.959 -16.1533 205.194 -18.8002 210.457 -21.3899L209.466 -23.3709C214.745 -25.9681 220.053 -28.5076 225.388 -30.9896L226.334 -28.9869C231.653 -31.4616 236.999 -33.8786 242.373 -36.2376L241.473 -38.2609C246.86 -40.6262 252.275 -42.9333 257.716 -45.1816L258.568 -43.1388C263.991 -45.3802 269.439 -47.5632 274.911 -49.6876L274.104 -51.7491C279.59 -53.8785 285.1 -55.9489 290.633 -57.96L291.395 -55.8809C296.908 -57.8852 302.447 -59.8306 308.006 -61.7166L307.294 -63.8122C312.865 -65.7023 318.461 -67.5327 324.077 -69.3032L324.742 -67.192C330.338 -68.9562 335.954 -70.6607 341.592 -72.305L340.975 -74.4306C346.622 -76.0782 352.292 -77.6658 357.979 -79.1926L358.549 -77.0536C364.214 -78.5745 369.899 -80.0354 375.602 -81.4355L375.08 -83.5869C380.792 -84.9896 386.525 -86.3315 392.273 -87.6124L392.747 -85.4496C395.611 -86.0877 398.477 -86.7107 401.349 -87.3182C404.204 -87.922 407.062 -88.4726 409.924 -88.9708L409.557 -91.1545C415.363 -92.1649 421.184 -92.961 427.013 -93.549L427.216 -91.3427C433.016 -91.9275 438.823 -92.3043 444.627 -92.4783L444.585 -94.6951C450.456 -94.8711 456.324 -94.8416 462.181 -94.6122L462.065 -92.3962C467.874 -92.1686 473.67 -91.7428 479.446 -91.1244L479.716 -93.3292C485.537 -92.7058 491.339 -91.8882 497.109 -90.8823L496.689 -88.6984C502.399 -87.7027 508.081 -86.5207 513.722 -85.158L514.284 -87.3123C519.96 -85.9416 525.594 -84.3899 531.18 -82.6625L530.48 -80.5461C536.005 -78.8378 541.481 -76.956 546.9 -74.9065L547.733 -76.9776C553.179 -74.918 558.566 -72.6906 563.886 -70.3011L562.93 -68.2819C565.563 -67.0989 568.181 -65.8757 570.781 -64.6132C573.314 -63.3831 575.843 -62.1461 578.37 -60.9019L579.399 -62.8872C584.459 -60.395 589.503 -57.8748 594.533 -55.3268L593.48 -53.3529C598.502 -50.8084 603.511 -48.2361 608.502 -45.636L609.577 -47.5984C614.577 -44.9944 619.56 -42.3626 624.529 -39.703L623.432 -37.7523C628.393 -35.0968 633.339 -32.4137 638.269 -29.7029L639.389 -31.6414C644.325 -28.9268 649.246 -26.1845 654.152 -23.4148L653.01 -21.4884C657.908 -18.723 662.79 -15.9302 667.655 -13.1102L668.819 -15.024C673.691 -12.1999 678.546 -9.3485 683.385 -6.47011L682.201 -4.569C684.616 -3.13244 687.026 -1.68923 689.433 -0.239165C692.118 1.38854 694.725 3.04875 697.258 4.73893L698.54 2.89952C703.849 6.44263 708.832 10.1185 713.493 13.9057L712.041 15.6217C716.945 19.6064 721.486 23.7132 725.666 27.916L727.29 26.3558C731.783 30.8731 735.873 35.5035 739.561 40.2165L737.766 41.5819C741.623 46.5071 745.032 51.5193 748.002 56.582L749.961 55.457C753.177 60.9373 755.891 66.4816 758.112 72.0456L756.009 72.8768C758.311 78.643 760.071 84.4245 761.298 90.1701L763.507 89.6895C764.825 95.8497 765.545 101.977 765.683 108.011L763.426 108.087C763.566 114.206 763.089 120.221 762.012 126.068L764.233 126.438C763.105 132.561 761.331 138.511 758.931 144.215L756.846 143.387C754.512 148.931 751.565 154.237 748.02 159.235L749.866 160.489C746.322 165.488 742.193 170.186 737.494 174.52L735.959 172.911C731.594 176.938 726.716 180.647 721.336 183.98L722.524 185.853C717.365 189.048 711.763 191.902 705.725 194.368L704.88 192.321C699.383 194.566 693.51 196.486 687.265 198.043L687.795 200.193C681.947 201.651 675.786 202.795 669.316 203.595L669.059 201.394C663.122 202.128 656.916 202.568 650.444 202.692L650.459 204.909C644.439 205.024 638.196 204.866 631.735 204.419L631.921 202.206C628.851 201.994 625.73 201.715 622.56 201.369C619.534 201.036 616.514 200.656 613.498 200.234L613.153 202.429C607.085 201.58 601.039 200.562 595.011 199.422L595.46 197.244C589.477 196.113 583.504 194.86 577.535 193.53L577.012 195.694C571.039 194.363 565.078 192.958 559.121 191.523L559.683 189.369C555.816 188.438 551.958 187.496 548.095 186.553C546.012 186.044 543.927 185.535 541.838 185.027L541.272 187.181C535.317 185.732 529.361 184.3 523.4 182.931L523.939 180.771C517.944 179.394 511.937 178.078 505.917 176.871L505.439 179.045C499.419 177.838 493.386 176.741 487.34 175.802L487.719 173.611C481.612 172.663 475.483 171.873 469.326 171.29L469.084 173.498C462.978 172.92 456.849 172.548 450.697 172.431L450.768 170.213C447.671 170.154 444.564 170.159 441.449 170.233C438.212 170.313 434.983 170.478 431.765 170.727L431.915 172.938C425.532 173.431 419.194 174.255 412.919 175.393L412.534 173.212C406.164 174.367 399.862 175.841 393.65 177.615L394.256 179.744C388.109 181.5 382.049 183.553 376.101 185.886L375.287 183.827C369.268 186.186 363.366 188.828 357.596 191.732L358.608 193.704C352.901 196.577 347.331 199.71 341.914 203.086L340.722 201.217C335.244 204.63 329.926 208.288 324.787 212.172L326.148 213.924C321.059 217.771 316.149 221.842 311.438 226.119L309.918 224.498C305.148 228.829 300.581 233.368 296.241 238.099L297.91 239.573C293.606 244.263 289.528 249.141 285.698 254.19L283.895 252.878C280.01 257.995 276.379 263.287 273.021 268.734L274.947 269.868C271.621 275.263 268.567 280.812 265.811 286.493L263.776 285.559C260.984 291.313 258.491 297.204 256.321 303.211L258.448 303.932C256.309 309.854 254.49 315.89 253.011 322.021L250.815 321.533C250.07 324.627 249.409 327.745 248.839 330.885M-174.899 389.847L251.06 331.251M-174.899 389.847L-172.796 390.63C-173.901 393.425 -174.99 396.226 -176.063 399.034M-174.899 389.847L-181.351 406.768L-179.229 407.499C-178.191 404.673 -177.136 401.851 -176.063 399.034M248.839 330.885L251.06 331.251M248.839 330.885C248.308 333.77 247.847 336.654 247.448 339.539L249.685 339.813C250.078 336.958 250.535 334.104 251.06 331.251M-176.063 399.034L-178.175 398.278M182.052 705.53C184.84 704.755 187.555 703.87 190.196 702.883L190.976 704.955C188.271 705.965 185.491 706.872 182.636 707.667M182.052 705.53C179.244 706.304 176.436 706.948 173.628 707.475L174.026 709.653C176.896 709.116 179.766 708.456 182.636 707.667M182.052 705.53C182.049 705.532 182.054 705.53 182.052 705.53ZM182.052 705.53L182.636 707.667M248.042 357.048L245.787 356.956C245.468 362.773 245.373 368.59 245.466 374.406L247.722 374.346C247.632 368.576 247.724 362.81 248.042 357.048ZM248.519 391.616L246.269 391.802C246.697 397.569 247.275 403.335 247.969 409.101L250.21 408.815C249.519 403.079 248.945 397.344 248.519 391.616ZM252.571 425.928L250.34 426.287C251.216 431.982 252.171 437.679 253.173 443.373L255.396 442.971C254.398 437.288 253.445 431.606 252.571 425.928ZM258.483 459.967L256.264 460.39C256.66 462.527 257.059 464.659 257.455 466.794C258.114 470.319 258.771 473.843 259.422 477.37L261.641 476.949C260.99 473.418 260.333 469.887 259.675 466.357C259.276 464.227 258.88 462.098 258.483 459.967ZM264.683 493.955L262.458 494.348C263.43 500.018 264.35 505.688 265.182 511.354L267.415 511.011C266.579 505.324 265.658 499.638 264.683 493.955ZM269.64 528.146L267.397 528.412C267.713 531.262 267.999 534.111 268.25 536.961C268.498 539.764 268.693 542.592 268.833 545.439L271.088 545.304C270.946 542.431 270.749 539.576 270.498 536.744C270.246 533.876 269.958 531.011 269.64 528.146ZM271.295 562.49L269.041 562.461C268.897 568.113 268.545 573.792 267.977 579.462L270.224 579.654C270.796 573.93 271.151 568.195 271.295 562.49ZM267.855 596.707L265.632 596.348C264.626 601.967 263.399 607.533 261.945 613.005L264.127 613.542C265.598 608.009 266.839 602.384 267.855 596.707ZM258.949 630.013L256.826 629.284C254.849 634.678 252.626 639.929 250.153 644.993L252.184 645.934C254.696 640.796 256.946 635.475 258.949 630.013ZM243.682 661.045L241.781 659.874C238.664 664.704 235.267 669.281 231.586 673.56L233.303 674.98C237.054 670.618 240.512 665.957 243.682 661.045ZM220.966 687.279L219.502 685.609C215.173 689.287 210.544 692.608 205.606 695.525L206.752 697.422C211.807 694.438 216.542 691.038 220.966 687.279ZM156.492 711.478L156.463 709.261C150.708 709.4 144.954 709.099 139.204 708.413L138.906 710.617C144.756 711.312 150.62 711.621 156.492 711.478ZM121.614 707.471L122.177 705.319C116.618 703.977 111.072 702.33 105.541 700.434L104.776 702.53C110.365 704.445 115.979 706.112 121.614 707.471ZM88.4232 696.233L89.3389 694.197C84.0457 691.948 78.7764 689.52 73.5355 686.96L72.5125 688.95C77.783 691.523 83.0882 693.967 88.4232 696.233ZM56.9536 680.971L58.0499 679.02C52.9245 676.28 47.835 673.462 42.7844 670.614L41.6444 672.542C46.7045 675.395 51.8093 678.221 56.9536 680.971ZM26.4714 663.881L27.6281 661.962L26.0477 661.053C24.0433 659.901 22.0458 658.752 20.0571 657.612C17.5488 656.172 15.0021 654.747 12.4207 653.341L11.3084 655.283C13.8752 656.682 16.4078 658.1 18.9026 659.531C20.9078 660.681 22.9216 661.838 24.9439 663.002C25.4526 663.294 25.9617 663.587 26.4714 663.881ZM-4.18511 647.299L-3.16743 645.307C-8.41404 642.763 -13.7615 640.334 -19.1791 638.068L-20.0836 640.111C-14.7071 642.359 -9.3976 644.77 -4.18511 647.299ZM-36.4049 633.887L-35.6392 631.793C-41.2474 629.87 -46.8996 628.158 -52.5636 626.711L-53.1562 628.857C-47.5561 630.289 -41.9617 631.981 -36.4049 633.887ZM-70.3116 625.33L-69.9397 623.139C-75.89 622.232 -81.8219 621.668 -87.697 621.505L-87.7867 623.722C-82.0154 623.881 -76.178 624.435 -70.3116 625.33ZM-105.336 624.547L-105.6 622.347C-111.581 623.107 -117.458 624.374 -123.184 626.215L-122.506 628.323C-116.924 626.529 -111.187 625.291 -105.336 624.547ZM-138.605 635.356L-139.712 633.436C-142.303 634.899 -144.847 636.511 -147.338 638.276C-150.092 640.23 -152.819 642.028 -155.51 643.664L-154.338 645.546C-151.6 643.879 -148.828 642.054 -146.032 640.07C-143.605 638.35 -141.128 636.781 -138.605 635.356ZM-172.198 654.353L-172.974 652.279C-179.704 654.776 -185.977 656.08 -191.629 656.227L-191.597 658.444C-185.64 658.292 -179.114 656.919 -172.198 654.353ZM-210.481 653.564L-209.207 651.717C-213.854 648.652 -217.577 643.952 -220.031 637.447L-222.147 638.241C-219.555 645.111 -215.567 650.207 -210.481 653.564ZM-225.525 619.096L-223.268 619.012C-223.349 616.016 -223.268 612.829 -223.015 609.453C-222.792 606.462 -222.55 603.473 -222.291 600.489L-224.538 600.324C-224.799 603.321 -225.041 606.317 -225.266 609.316C-225.525 612.761 -225.605 616.02 -225.525 619.096ZM-222.759 582.369L-220.516 582.584C-219.853 576.621 -219.117 570.667 -218.309 564.721L-220.546 564.454C-221.356 570.416 -222.094 576.387 -222.759 582.369ZM-217.9 546.591L-215.671 546.91C-214.719 540.984 -213.697 535.067 -212.602 529.162L-214.821 528.79C-215.92 534.711 -216.946 540.645 -217.9 546.591ZM-211.314 511.06L-209.102 511.485C-207.866 505.608 -206.558 499.742 -205.179 493.89L-207.376 493.414C-208.759 499.282 -210.073 505.165 -211.314 511.06ZM-203.013 475.86L-200.827 476.389C-199.308 470.572 -197.716 464.771 -196.055 458.988L-198.227 458.408C-199.894 464.209 -201.488 470.028 -203.013 475.86ZM-193.02 441.069L-190.863 441.7C-189.062 435.96 -187.192 430.237 -185.253 424.534L-187.392 423.852C-189.339 429.573 -191.213 435.311 -193.02 441.069Z" stroke="url(#paint6_linear_14741_17557)" stroke-width="4.91586" stroke-dasharray="19.65 19.65"/>
</g>
</g>
<defs>
<linearGradient id="paint0_linear_14741_17557" x1="750.673" y1="216.779" x2="734.311" y2="793.493" gradientUnits="userSpaceOnUse">
<stop stop-color="#27B2FF"/>
<stop offset="1" stop-color="#197BFF"/>
</linearGradient>
<linearGradient id="paint1_linear_14741_17557" x1="750.673" y1="216.779" x2="734.311" y2="793.493" gradientUnits="userSpaceOnUse">
<stop stop-color="#27B2FF"/>
<stop offset="1" stop-color="#197BFF"/>
</linearGradient>
<linearGradient id="paint2_linear_14741_17557" x1="1252.24" y1="1243.54" x2="861.683" y2="769.914" gradientUnits="userSpaceOnUse">
<stop stop-color="#0061E3" stop-opacity="0"/>
<stop offset="1" stop-color="#197BFF"/>
</linearGradient>
<linearGradient id="paint3_linear_14741_17557" x1="1727.99" y1="585.671" x2="853.596" y2="1642.88" gradientUnits="userSpaceOnUse">
<stop stop-color="#12C45A"/>
<stop offset="1" stop-color="#5FED98"/>
</linearGradient>
<linearGradient id="paint4_linear_14741_17557" x1="1722.99" y1="664.125" x2="936.036" y2="1615.6" gradientUnits="userSpaceOnUse">
<stop stop-color="white"/>
<stop offset="1" stop-color="#D9FFE8"/>
</linearGradient>
<linearGradient id="paint5_linear_14741_17557" x1="-56.754" y1="761.157" x2="567.327" y2="-45.2053" gradientUnits="userSpaceOnUse">
<stop stop-color="#12C45A"/>
<stop offset="1" stop-color="#5FED98"/>
</linearGradient>
<linearGradient id="paint6_linear_14741_17557" x1="-99.9038" y1="708.456" x2="493.418" y2="-64.9863" gradientUnits="userSpaceOnUse">
<stop stop-color="white"/>
<stop offset="1" stop-color="#D9FFE8"/>
</linearGradient>
</defs>
</svg>
