<svg width="381" height="382" viewBox="0 0 381 382" fill="none" xmlns="http://www.w3.org/2000/svg">
<path d="M381 191.336C381 296.546 295.71 381.836 190.5 381.836C85.2898 381.836 0 296.546 0 191.336C0 86.1258 85.2898 0.835955 190.5 0.835955C295.71 0.835955 381 86.1258 381 191.336Z" fill="#61E850"/>
<path fill-rule="evenodd" clip-rule="evenodd" d="M190.969 0.835938C266.556 0.835938 331.86 44.8586 362.643 108.663C336.103 121.452 294.329 149.956 310.87 176.649C317.817 186.08 339.657 196.504 332.708 214.373C325.758 232.242 233.931 254.083 256.764 311.166C267.472 337.936 291.718 340.798 314.756 336.135C281.461 364.626 238.226 381.836 190.969 381.836C161.515 381.836 133.623 375.15 108.726 363.215C182.514 330.493 144.703 285.158 106.891 254.908C67.9312 223.74 110.354 214.65 133.73 205.56C157.106 196.469 177.019 165.301 143.687 145.388C110.354 125.475 92.5027 195.599 66.6543 175.266C46.6189 147.942 68.3634 112.055 85.2461 103.83C102.129 95.6052 129.401 105.561 139.357 69.2012C145.453 46.9407 125.233 30.0181 106.675 20.4541C132.087 7.89457 160.703 0.835938 190.969 0.835938ZM294.848 153.172C306.194 138.898 280.207 103.395 267.395 142.191C254.582 180.988 279.474 160.127 267.395 204.05C257.731 239.188 283.866 227.474 298.141 217.225C308.957 210.672 319.736 198.924 309.854 194.166C299.971 189.408 283.501 167.446 294.848 153.172ZM93.5371 126.076C94.5282 121.573 94.295 113.755 85.4326 118.511C74.3542 124.455 57.872 160.119 71.6523 166.604C85.4322 173.088 80.838 156.606 99.751 147.149C118.664 137.693 93.5371 136.346 93.5371 126.076Z" fill="#4384D8"/>
</svg>
