<svg width="317" height="152" viewBox="0 0 317 152" fill="none" xmlns="http://www.w3.org/2000/svg">
<mask id="path-1-outside-1_5875_12320" maskUnits="userSpaceOnUse" x="0.242188" y="0.490234" width="317" height="151" fill="black">
<rect fill="white" x="0.242188" y="0.490234" width="317" height="151"/>
<path d="M312.868 11.559C312.113 11.6866 311.536 11.2992 311.396 10.4675L310.212 3.47133C310.077 2.67397 310.488 2.12833 311.208 2.00652C311.911 1.8876 312.469 2.26937 312.604 3.06673L312.706 3.6669L312.757 3.65819C312.804 2.47728 313.444 1.67234 314.362 1.51717C314.696 1.46061 314.975 1.49282 315.181 1.61669C315.453 1.76471 315.625 2.05306 315.698 2.48175C315.765 2.87614 315.695 3.19653 315.49 3.4429C315.285 3.68928 314.944 3.86164 314.456 3.95288C313.319 4.1629 313.025 4.87409 313.209 5.96296L313.899 10.0441C314.04 10.8757 313.631 11.4299 312.868 11.559Z"/>
<path d="M177.094 50.9777C174.414 51.8463 172.144 50.6807 171.201 47.7689C170.27 44.8986 171.442 42.5902 174.097 41.7297C176.752 40.8691 179.053 42.0433 179.985 44.9219C180.932 47.8419 179.774 50.1092 177.094 50.9777ZM176.496 49.1331C177.679 48.7497 178.108 47.5049 177.531 45.7264C176.96 43.9645 175.87 43.1936 174.695 43.5743C173.52 43.955 173.081 45.2218 173.652 46.9837C174.228 48.7622 175.305 49.5191 176.496 49.1331Z"/>
<path d="M12.3433 150.203C11.7096 150.733 11.1062 150.717 10.3036 150.164L2.20415 144.559C1.93105 144.368 1.6902 144.161 1.53958 143.981C1.07099 143.421 1.16112 142.756 1.77479 142.243C2.30175 141.802 2.86738 141.828 3.46719 142.301L10.1238 147.333L10.1772 147.288L6.61012 139.729C6.23917 138.974 6.33063 138.432 6.89093 137.964C7.4379 137.506 8.01687 137.521 8.6601 137.992L15.4801 142.853L15.5335 142.808L11.7584 135.367C11.3998 134.68 11.4801 134.126 12.0071 133.685C12.6207 133.172 13.291 133.201 13.7596 133.761C13.9047 133.935 14.0655 134.208 14.2107 134.517L18.2991 143.499C18.6903 144.374 18.6001 144.971 17.9797 145.49C17.3327 146.031 16.7282 146.026 15.9323 145.468L9.57853 141.123L9.5185 141.173L12.6771 148.19C13.075 149.059 12.977 149.673 12.3433 150.203Z"/>
<path d="M70.5874 107.887C68.1438 109.473 65.727 108.896 64.0846 106.364C62.4517 103.848 62.8813 101.299 65.1936 99.7985C67.4112 98.3596 69.8837 98.9113 71.2611 101.034C71.6445 101.625 71.5266 102.178 70.9358 102.562L66.4716 105.458L66.5331 105.553C67.2857 106.713 68.4782 107.017 69.5578 106.317C70.3383 105.81 70.6785 105.216 70.8146 104.164C70.8893 103.784 71.0269 103.58 71.304 103.401C71.7636 103.102 72.3249 103.153 72.6421 103.642C72.7509 103.809 72.8135 104.018 72.8322 104.254C72.9391 105.553 72.0974 106.908 70.5874 107.887ZM65.6462 104.138L68.9652 101.985C68.2588 100.992 67.1716 100.754 66.2379 101.36C65.3042 101.966 65.0707 103.092 65.6462 104.138Z"/>
<path d="M63.3127 112.055C62.4979 112.588 61.847 112.547 61.068 111.976L55.4755 107.863C55.2862 107.717 55.0876 107.525 54.9447 107.306C54.5684 106.732 54.7791 106.053 55.3829 105.658C55.8994 105.32 56.4224 105.372 56.9587 105.842L61.962 110.039L62.0056 110.011L60.1454 103.725C59.9242 103.069 60.1044 102.567 60.5991 102.243C61.1884 101.857 61.8989 101.974 62.2514 102.512C62.38 102.709 62.4719 102.96 62.5255 103.185L64.0871 109.999C64.3085 110.925 64.0838 111.55 63.3127 112.055Z"/>
<path d="M54.9707 118.682C54.3203 119.192 53.626 119.095 53.0899 118.41L47.0432 110.687C46.5125 110.009 46.5849 109.312 47.2354 108.803L51.9322 105.125C52.5004 104.68 53.1221 104.713 53.5402 105.247C53.9584 105.781 53.8337 106.397 53.2723 106.837L49.6094 109.705L51.4695 112.081L54.9544 109.352C55.4679 108.95 56.053 108.978 56.4389 109.471C56.8249 109.964 56.7184 110.533 56.1981 110.94L52.7132 113.669L54.6644 116.161L58.3274 113.293C58.8888 112.854 59.5173 112.881 59.9354 113.415C60.3536 113.949 60.2358 114.56 59.6675 115.005L54.9707 118.682Z"/>
<path d="M22.8514 142.172C22.2853 142.648 21.5883 142.643 21.0292 141.977L14.4088 134.092C13.8832 133.466 13.9297 132.791 14.529 132.288C15.1283 131.785 15.7944 131.861 16.32 132.487L18.7468 135.377L18.7867 135.344C18.4114 134.126 18.7656 132.966 19.8511 132.054C21.436 130.724 23.2028 130.989 24.5895 132.64L27.7152 136.363C28.2743 137.029 28.1655 137.71 27.5928 138.191C27.0268 138.667 26.3298 138.661 25.7706 137.995L22.9916 134.686C22.22 133.767 21.2975 133.588 20.4118 134.331C19.4928 135.103 19.4958 136.202 20.2842 137.141L22.9737 140.344C23.5329 141.01 23.4241 141.692 22.8514 142.172Z"/>
<path d="M31.7517 134.822C29.5061 136.678 27.0391 136.381 25.117 134.055C23.206 131.743 23.3403 129.161 25.4652 127.405C27.503 125.722 30.0225 125.986 31.6344 127.937C32.083 128.479 32.0295 129.043 31.4865 129.491L27.3842 132.881L27.4562 132.968C28.3369 134.034 29.5565 134.199 30.5485 133.38C31.2658 132.787 31.5356 132.158 31.55 131.097C31.5806 130.711 31.6939 130.493 31.9486 130.283C32.3709 129.934 32.9343 129.919 33.3055 130.368C33.4328 130.522 33.5189 130.722 33.5647 130.955C33.8199 132.233 33.1392 133.675 31.7517 134.822ZM26.4128 131.665L29.4628 129.144C28.6471 128.239 27.5397 128.128 26.6817 128.837C25.8238 129.546 25.721 130.691 26.4128 131.665Z"/>
<path d="M36.0505 131.675C35.4407 132.137 34.7499 132.06 34.2404 131.388L29.9548 125.733C29.4664 125.088 29.5778 124.415 30.16 123.974C30.7283 123.543 31.4 123.623 31.8884 124.268L32.256 124.753L32.2976 124.721C31.7932 123.652 31.9881 122.643 32.7297 122.081C33 121.876 33.2621 121.775 33.5021 121.79C33.8117 121.795 34.0978 121.971 34.3604 122.318C34.602 122.637 34.6888 122.953 34.6208 123.266C34.5528 123.579 34.33 123.89 33.9402 124.196C33.029 124.909 33.0972 125.675 33.7641 126.556L36.2641 129.854C36.7735 130.527 36.6673 131.207 36.0505 131.675Z"/>
<path d="M42.5967 127.119C40.1945 128.767 37.7637 128.252 36.0569 125.764C34.3599 123.29 34.724 120.731 36.997 119.171C39.1769 117.676 41.6628 118.164 43.0942 120.251C43.4926 120.832 43.389 121.388 42.8082 121.786L38.4198 124.796L38.4837 124.89C39.2658 126.03 40.4658 126.303 41.527 125.575C42.2943 125.049 42.6191 124.447 42.7282 123.391C42.7931 123.009 42.9254 122.802 43.1979 122.615C43.6496 122.306 44.2121 122.342 44.5416 122.822C44.6548 122.987 44.7226 123.193 44.7475 123.429C44.8876 124.725 44.081 126.101 42.5967 127.119ZM37.5609 123.498L40.8235 121.26C40.0918 120.286 38.9989 120.076 38.081 120.705C37.1632 121.335 36.9587 122.467 37.5609 123.498Z"/>
<path d="M76.8459 103.721C76.2252 104.168 75.5364 104.075 75.0431 103.391L70.8929 97.636C70.4199 96.98 70.5473 96.3093 71.1398 95.882C71.7181 95.465 72.3877 95.5611 72.8607 96.217L73.2168 96.7107L73.2591 96.6802C72.7801 95.5997 72.999 94.595 73.7537 94.0508C74.0287 93.8524 74.2932 93.7582 74.5328 93.7784C74.8422 93.7911 75.124 93.9738 75.3783 94.3265C75.6123 94.6509 75.6916 94.969 75.6161 95.2807C75.5407 95.5924 75.3106 95.8977 74.9137 96.1946C73.9858 96.8851 74.0357 97.6532 74.6816 98.5489L77.1026 101.906C77.5959 102.59 77.4736 103.268 76.8459 103.721Z"/>
<path d="M84.3447 103.284C83.3841 103.847 82.651 103.782 82.2645 103.122C82.0054 102.679 82.1506 102.221 82.646 101.931C82.7961 101.843 82.883 101.802 83.0331 101.715C83.4158 101.491 83.732 101.084 83.6653 100.367L83.6109 100.016L77.0828 94.7489C76.8685 94.5721 76.6829 94.3583 76.5775 94.1782C76.2305 93.5853 76.468 92.8721 77.1134 92.4943C77.6913 92.1562 78.1364 92.2282 78.6899 92.7607L83.6973 97.306L83.7348 97.284L82.2159 90.6771C82.0402 89.9638 82.2017 89.5166 82.7646 89.1872C83.395 88.8183 84.0719 88.9764 84.41 89.5542C84.5154 89.7343 84.6197 90.0159 84.6677 90.2699L86.1249 98.4242C86.591 100.942 86.1084 102.252 84.3447 103.284Z"/>
<path d="M96.4239 91.7987C94.8268 92.8036 93.1392 92.8483 91.8701 91.9414C91.5505 91.711 91.3249 91.4831 91.1211 91.1592C90.7183 90.5189 90.8684 89.8594 91.494 89.4658C92.0533 89.1139 92.5439 89.1751 93.1002 89.6675C93.7481 90.2564 94.4913 90.3436 95.1978 89.899C96.1252 89.3156 96.2645 88.4266 95.593 87.3594L91.6755 81.1329C91.2124 80.3969 91.356 79.7107 92.0552 79.2707C92.7544 78.8308 93.4352 78.9984 93.8982 79.7344L97.825 85.9757C99.2466 88.2352 98.6981 90.3678 96.4239 91.7987Z"/>
<path d="M151.938 62.2407C151.182 62.5733 150.533 62.3078 150.183 61.5118L146.234 52.5336C145.887 51.7456 146.13 51.0879 146.886 50.7552L150.682 49.0851C152.839 48.1362 154.679 48.6474 155.453 50.4064C156.006 51.664 155.529 53.1278 154.392 53.8466L154.42 53.9103C156.033 53.3434 157.679 53.9774 158.348 55.4977C159.237 57.5194 158.274 59.4537 155.822 60.5321L151.938 62.2407ZM150.188 55.0022L151.916 54.2424C153.197 53.6787 153.681 52.7915 153.254 51.8204C152.847 50.8971 151.972 50.6554 150.849 51.1491L148.875 52.0174L150.188 55.0022ZM152.352 59.9211L154.422 59.0108C155.807 58.4016 156.296 57.4834 155.813 56.385C155.34 55.3105 154.316 55.0771 152.899 55.7003L150.885 56.5861L152.352 59.9211Z"/>
<path d="M162.542 57.5092C159.875 58.6821 157.583 57.7243 156.368 54.9623C155.16 52.2163 155.993 49.7695 158.516 48.6595C160.936 47.5951 163.288 48.5364 164.307 50.8526C164.59 51.4973 164.385 52.0245 163.74 52.3081L158.869 54.451L158.915 54.5544C159.471 55.82 160.6 56.3116 161.778 55.7934C162.629 55.4188 163.06 54.8872 163.364 53.8703C163.498 53.5071 163.667 53.3285 163.969 53.1954C164.471 52.9749 165.017 53.1147 165.251 53.648C165.332 53.831 165.36 54.0466 165.341 54.2831C165.238 55.5823 164.189 56.7844 162.542 57.5092ZM158.266 53.0157L161.888 51.4226C161.35 50.3293 160.315 49.9201 159.296 50.3683C158.277 50.8164 157.866 51.8903 158.266 53.0157Z"/>
<path d="M169.75 54.629C167.121 55.6188 164.803 54.5218 163.74 51.698C162.689 48.9068 163.687 46.5239 166.308 45.5372C168.057 44.8784 169.832 45.1762 170.77 46.2354C170.928 46.4082 171.057 46.6014 171.121 46.7722C171.342 47.3582 171.015 47.8716 170.453 48.083C169.981 48.2607 169.626 48.1808 169.219 47.8414C168.5 47.2389 167.839 47.0882 167.082 47.3731C165.878 47.8267 165.511 49.0983 166.146 50.7828C166.792 52.4999 167.901 53.1975 169.089 52.7502C169.919 52.4376 170.278 51.8377 170.411 51.0813C170.542 50.4654 170.726 50.1639 171.23 49.9739C171.784 49.7655 172.369 49.9632 172.59 50.5491C172.66 50.7363 172.685 50.95 172.668 51.2258C172.595 52.61 171.418 54.0008 169.75 54.629Z"/>
<path d="M182.982 48.7697C182.278 49.0478 181.632 48.8078 181.316 48.0072L178.714 41.4245C178.401 40.632 178.707 40.0342 179.378 39.7689C180.049 39.5036 180.681 39.7307 180.994 40.5232L181.208 41.065L181.257 41.0458C181.208 39.8588 181.867 38.8038 183.047 38.3372C184.301 37.8418 185.43 38.1435 186.169 39.1606L186.217 39.1414C186.174 37.8963 186.937 36.7998 188.207 36.298C189.905 35.6267 191.506 36.3406 192.196 38.0873L194.117 42.9475C194.433 43.7481 194.118 44.3685 193.414 44.6465C192.719 44.9214 192.072 44.6814 191.756 43.8808L190.068 39.611C189.672 38.6082 188.953 38.2565 188.039 38.6176C187.141 38.9724 186.81 39.8608 187.19 40.8231L188.852 45.0282C189.169 45.8288 188.902 46.43 188.198 46.7081C187.503 46.983 186.896 46.727 186.58 45.9264L184.864 41.5838C184.496 40.6538 183.753 40.3117 182.88 40.6569C181.982 41.0116 181.644 41.9306 182.028 42.9011L183.677 47.0739C183.993 47.8744 183.677 48.4948 182.982 48.7697Z"/>
<path d="M198.364 42.5902C195.664 43.6848 193.401 42.6605 192.267 39.8642C191.139 37.0841 192.044 34.6626 194.598 33.6268C197.048 32.6335 199.371 33.6431 200.322 35.988C200.587 36.6407 200.366 37.1617 199.714 37.4264L194.782 39.4261L194.825 39.5308C195.344 40.8121 196.457 41.3365 197.65 40.8529C198.512 40.5033 198.959 39.9845 199.292 38.9769C199.437 38.6178 199.61 38.4442 199.917 38.32C200.424 38.1142 200.966 38.2698 201.185 38.8097C201.26 38.9951 201.282 39.2114 201.256 39.4472C201.115 40.7429 200.032 41.9139 198.364 42.5902ZM194.221 37.9738L197.888 36.4871C197.382 35.3786 196.359 34.9394 195.328 35.3576C194.297 35.7758 193.854 36.8372 194.221 37.9738Z"/>
<path d="M205.269 39.8161C203.219 40.4254 201.634 40.0981 200.897 39.1741C200.791 39.0331 200.711 38.8846 200.671 38.7513C200.505 38.1928 200.811 37.6939 201.378 37.5255C201.769 37.4091 202.155 37.485 202.6 37.761C203.26 38.245 203.895 38.365 204.82 38.09C205.704 37.8275 206.17 37.2899 205.994 36.698C205.85 36.2146 205.465 36.0478 204.533 36.1162L202.938 36.2453C201.077 36.3903 199.928 35.7609 199.534 34.4356C199.026 32.7269 200.175 31.1882 202.492 30.4997C204.343 29.9498 205.951 30.388 206.543 31.3099C206.613 31.425 206.673 31.5343 206.708 31.651C206.854 32.1428 206.647 32.5762 206.022 32.7619C205.705 32.856 205.32 32.8434 205.027 32.6494C204.441 32.2339 203.833 31.9608 202.958 32.2208C202.133 32.466 201.674 33.0287 201.845 33.6038C201.984 34.0706 202.426 34.275 203.374 34.2017L204.944 34.08C206.963 33.9154 207.955 34.3828 208.351 35.7164C208.879 37.4919 207.628 39.1152 205.269 39.8161Z"/>
<path d="M218.637 35.62C216.937 36.1252 215.318 35.4088 214.84 33.8001C214.357 32.1747 215.327 30.8613 217.522 30.0642L219.732 29.2621L219.557 28.6703C219.309 27.8368 218.582 27.5267 217.665 27.7991C216.923 28.0196 216.545 28.395 216.211 29.2562C216.033 29.6355 215.77 29.8772 215.378 29.9936C214.786 30.1694 214.247 29.9123 214.084 29.3622C214.027 29.1705 214.016 28.9831 214.045 28.7749C214.145 27.5842 215.383 26.4997 217.233 25.9498C219.526 25.2687 221.369 26.009 221.904 27.8094L223.418 32.9023C223.658 33.7109 223.29 34.2738 222.598 34.4793C221.94 34.675 221.372 34.4445 221.109 33.7425L220.973 33.284L220.923 33.2989C220.705 34.3977 219.754 35.2881 218.637 35.62ZM218.915 33.6234C219.982 33.3064 220.651 32.3545 220.364 31.3876L220.171 30.7375L218.322 31.4139C217.433 31.7506 217.038 32.3125 217.226 32.946C217.424 33.6129 218.098 33.8662 218.915 33.6234Z"/>
<path d="M235.037 30.8412C234.245 31.0764 233.635 30.7317 233.387 29.8982L230.593 20.4959C230.348 19.6707 230.671 19.0485 231.463 18.8132L235.439 17.6318C237.698 16.9606 239.459 17.6982 240.006 19.5403C240.398 20.8573 239.741 22.2498 238.523 22.8205L238.543 22.8872C240.214 22.5268 241.768 23.3621 242.241 24.9541C242.87 27.0713 241.672 28.8697 239.105 29.6325L235.037 30.8412ZM234.208 23.4405L236.016 22.903C237.358 22.5043 237.949 21.6846 237.647 20.6677C237.36 19.7008 236.521 19.3513 235.346 19.7005L233.279 20.3147L234.208 23.4405ZM235.738 28.5917L237.906 27.9478C239.356 27.5168 239.956 26.6672 239.614 25.5169C239.28 24.3916 238.293 24.0317 236.809 24.4726L234.701 25.0992L235.738 28.5917Z"/>
<path d="M245.428 27.3781C244.721 27.5918 244.082 27.3123 243.831 26.4798L240.862 16.6488C240.611 15.8164 240.986 15.2219 241.693 15.0082C242.409 14.792 243.042 15.0824 243.293 15.9148L246.262 25.7459C246.513 26.5783 246.144 27.162 245.428 27.3781Z"/>
<path d="M264.578 22.6354C263.866 22.8308 263.235 22.535 263.005 21.6964L260.289 11.7924C260.059 10.9538 260.449 10.3691 261.162 10.1737C261.883 9.97597 262.508 10.2825 262.738 11.1211L264.267 16.6978L264.301 16.6886L266.66 12.5344C266.893 12.1009 267.13 11.8824 267.499 11.7813C268.128 11.6088 268.716 11.9436 268.882 12.5474C268.983 12.9164 268.936 13.1727 268.673 13.5963L266.977 16.3876L270.36 18.8952C270.728 19.1823 270.863 19.3796 270.95 19.6983C271.13 20.3524 270.776 20.9363 270.088 21.1248C269.568 21.2674 269.224 21.1634 268.68 20.6905L265.537 18.2702L264.954 19.2052L265.453 21.025C265.683 21.8636 265.3 22.4377 264.578 22.6354Z"/>
<path d="M273.054 20.5856C272.344 20.7577 271.743 20.456 271.542 19.6278L269.115 9.61357C268.91 8.76849 269.317 8.19565 270.036 8.02153C270.762 7.84537 271.378 8.17037 271.583 9.01545L272.455 12.6155L272.506 12.6032C272.745 11.4091 273.603 10.521 274.887 10.2097C277.178 9.65458 278.996 11.0659 279.705 13.9899C280.411 16.9054 279.452 18.9991 277.161 19.5543C275.835 19.8758 274.673 19.4773 273.91 18.5439L273.859 18.5562L273.976 19.0379C274.175 19.8576 273.772 20.4115 273.054 20.5856ZM275.835 17.7731C277.06 17.4761 277.579 16.2587 277.178 14.6024C276.779 12.9545 275.756 12.093 274.53 12.39C273.33 12.6808 272.771 13.9528 273.164 15.5753C273.561 17.2148 274.635 18.064 275.835 17.7731Z"/>
<path d="M283.944 17.0958C281.981 17.5635 280.374 16.5967 279.87 14.482L278.741 9.74517C278.54 8.89931 278.949 8.32803 279.668 8.15668C280.395 7.98331 281.01 8.31066 281.211 9.15652L282.217 13.3774C282.506 14.587 283.259 15.0867 284.351 14.8266C285.45 14.5646 285.948 13.6146 285.662 12.4135L284.688 8.32797C284.486 7.48211 284.895 6.91083 285.614 6.73947C286.342 6.5661 286.956 6.89346 287.158 7.73932L288.799 14.6246C288.994 15.4451 288.615 15.9914 287.904 16.1608C287.194 16.3301 286.609 16.0136 286.413 15.1931L286.28 14.6349L286.23 14.647C286.053 15.8957 285.314 16.7692 283.944 17.0958Z"/>
<path d="M293.367 15.6537C291.258 16.0106 289.724 15.494 289.104 14.4877C289.016 14.335 288.954 14.1779 288.931 14.0407C288.834 13.4663 289.197 13.0079 289.78 12.9093C290.183 12.8411 290.557 12.9631 290.965 13.2909C291.562 13.8512 292.178 14.047 293.129 13.886C294.038 13.7322 294.566 13.2548 294.463 12.6461C294.379 12.1488 294.016 11.9367 293.083 11.8919L291.484 11.8272C289.619 11.746 288.555 10.9824 288.324 9.61919C288.027 7.86158 289.353 6.47309 291.736 6.0698C293.64 5.74775 295.184 6.37723 295.659 7.36387C295.715 7.48667 295.761 7.60235 295.782 7.72238C295.867 8.22823 295.609 8.63342 294.966 8.74223C294.641 8.79735 294.26 8.73825 293.992 8.51018C293.461 8.02688 292.891 7.68233 291.991 7.83466C291.142 7.97827 290.619 8.48133 290.719 9.07292C290.8 9.55304 291.214 9.80934 292.164 9.85131L293.737 9.92034C295.762 10.0011 296.689 10.5849 296.921 11.9567C297.23 13.7829 295.793 15.2432 293.367 15.6537Z"/>
<path d="M298.227 12.0015L297.303 7.06116L296.825 7.15069C296.235 7.26101 295.792 6.97238 295.683 6.39116C295.574 5.80995 295.883 5.38061 296.473 5.27029L296.951 5.18075L296.761 4.16363C296.611 3.36018 296.988 2.7765 297.766 2.63101C298.544 2.48551 299.107 2.89332 299.257 3.69676L299.447 4.71389L300.328 4.54921C300.917 4.43888 301.354 4.73767 301.461 5.31033C301.568 5.883 301.269 6.31929 300.679 6.42961L299.799 6.59429L300.619 10.979C300.741 11.6286 301.014 11.8606 301.561 11.8026L301.726 11.7893C302.354 11.7426 302.736 11.9366 302.844 12.5178C302.982 13.2529 302.334 13.7633 301.283 13.96L301.198 13.9759C299.531 14.2877 298.53 13.6169 298.227 12.0015Z"/>
<path d="M307.547 12.3843C304.687 12.9362 302.664 11.4934 302.092 8.53071C301.524 5.58508 302.879 3.38411 305.586 2.86186C308.181 2.36102 310.266 3.80085 310.745 6.28542C310.879 6.977 310.562 7.44553 309.87 7.57898L304.645 8.58724L304.666 8.69823C304.928 10.0558 305.919 10.7856 307.183 10.5418C308.096 10.3655 308.635 9.94278 309.156 9.01859C309.368 8.6943 309.572 8.55755 309.896 8.49494C310.434 8.39115 310.935 8.64865 311.046 9.2207C311.084 9.41707 311.063 9.63352 310.992 9.85985C310.603 11.1038 309.314 12.0433 307.547 12.3843ZM304.375 7.05399L308.26 6.30438C307.978 5.11894 307.06 4.49025 305.967 4.70113C304.874 4.91201 304.235 5.8678 304.375 7.05399Z"/>
<path d="M132.472 71.2956C129.894 72.6524 127.54 71.8575 126.134 69.1874C124.737 66.5327 125.397 64.0335 127.836 62.7496C130.175 61.5184 132.587 62.2926 133.766 64.5318C134.094 65.1551 133.926 65.6953 133.303 66.0234L128.594 68.5021L128.647 68.6021C129.291 69.8256 130.45 70.237 131.589 69.6376C132.413 69.2042 132.805 68.6437 133.037 67.6081C133.146 67.2363 133.301 67.0464 133.593 66.8925C134.078 66.6373 134.633 66.7386 134.904 67.2541C134.997 67.4311 135.041 67.6441 135.038 67.8814C135.026 69.1847 134.065 70.4572 132.472 71.2956ZM127.892 67.1126L131.393 65.2698C130.78 64.2168 129.719 63.8811 128.734 64.3995C127.749 64.9179 127.414 66.0179 127.892 67.1126Z"/>
<path d="M137.968 72.556C136.9 72.8672 136.204 72.6259 135.99 71.8913C135.847 71.3987 136.099 70.9901 136.65 70.8296C136.817 70.781 136.911 70.7626 137.078 70.7139C137.504 70.5899 137.91 70.2725 138.02 69.5612L138.052 69.2075L133.004 62.5088C132.839 62.285 132.711 62.0325 132.653 61.8321C132.461 61.1726 132.865 60.5386 133.583 60.3295C134.225 60.1423 134.64 60.3205 135.047 60.9718L138.796 66.5998L138.838 66.5876L138.974 59.8097C138.977 59.0751 139.243 58.6808 139.869 58.4984C140.57 58.2941 141.188 58.6122 141.376 59.2551C141.434 59.4555 141.467 59.7539 141.451 60.012L140.878 68.2757C140.717 70.8314 139.93 71.9845 137.968 72.556Z"/>
<path d="M121.682 77.1509C121.025 77.4901 120.347 77.3317 119.948 76.5591L116.692 70.2545C116.329 69.5515 116.515 68.9073 117.195 68.5562C117.875 68.2051 118.546 68.4064 118.913 69.1172L119.153 69.5807L119.199 69.5568C119.109 68.3018 119.652 67.3069 120.927 66.6486C122.766 65.699 124.399 66.3233 125.401 68.2625L127.635 72.5892C128.034 73.3618 127.77 74.0069 127.114 74.346C126.449 74.6892 125.778 74.5268 125.379 73.7542L123.388 69.8989C122.83 68.8172 122 68.4624 120.988 68.9851C119.976 69.5078 119.718 70.5807 120.272 71.6546L122.204 75.394C122.603 76.1666 122.346 76.8078 121.682 77.1509Z"/>
<path d="M117.184 80.1804C116.517 80.5554 115.843 80.3857 115.43 79.6505L111.952 73.4657C111.556 72.7608 111.758 72.1085 112.394 71.7505C113.016 71.4011 113.67 71.5717 114.067 72.2766L114.365 72.8072L114.411 72.7816C114.056 71.6542 114.386 70.6804 115.197 70.2243C115.493 70.0581 115.766 69.9942 116.002 70.0412C116.308 70.0886 116.568 70.3018 116.781 70.6807C116.977 71.0294 117.02 71.3543 116.91 71.6556C116.8 71.9568 116.537 72.2344 116.109 72.4849C115.11 73.0668 115.073 73.8356 115.614 74.7982L117.643 78.4061C118.056 79.1413 117.859 79.8011 117.184 80.1804Z"/>
<path d="M102.72 87.8942C100.156 89.0637 97.7681 88.1654 96.4975 85.3808C95.2449 82.6357 96.1446 80.2084 98.684 79.0497C101.223 77.8911 103.643 78.7943 104.899 81.5474C106.173 84.3399 105.283 86.7247 102.72 87.8942ZM101.915 86.13C103.046 85.6139 103.329 84.3282 102.553 82.6273C101.784 80.9423 100.612 80.3013 99.489 80.8139C98.3656 81.3265 98.0739 82.6352 98.8427 84.3202C99.6188 86.0211 100.775 86.6498 101.915 86.13Z"/>
<path d="M110.199 84.0826C108.459 85.1039 106.64 84.6494 105.539 82.7746L103.074 78.5751C102.634 77.8251 102.858 77.1592 103.496 76.785C104.141 76.4065 104.824 76.5398 105.264 77.2898L107.461 81.0318C108.09 82.1042 108.957 82.3616 109.924 81.7938C110.899 81.2215 111.097 80.1676 110.472 79.1027L108.346 75.4806C107.906 74.7307 108.13 74.0648 108.768 73.6906C109.413 73.3121 110.096 73.4454 110.536 74.1953L114.119 80.2996C114.546 81.027 114.343 81.6604 113.713 82.0301C113.083 82.3999 112.431 82.2683 112.004 81.5409L111.714 81.046L111.669 81.0724C111.866 82.318 111.414 83.3696 110.199 84.0826Z"/>
<path d="M259.335 22.9775C256.628 23.7251 254.419 22.4227 253.615 19.5142C252.822 16.6392 254.032 14.3566 256.731 13.6113C258.533 13.1136 260.274 13.5711 261.112 14.7109C261.253 14.8973 261.364 15.1013 261.412 15.2773C261.579 15.8808 261.207 16.3625 260.629 16.5222C260.142 16.6564 259.796 16.5446 259.422 16.1698C258.76 15.5046 258.115 15.2946 257.336 15.5099C256.095 15.8524 255.615 17.0856 256.094 18.8207C256.583 20.5893 257.623 21.3845 258.847 21.0465C259.702 20.8104 260.114 20.2455 260.315 19.5044C260.501 18.9028 260.711 18.6192 261.231 18.4757C261.801 18.3183 262.366 18.5682 262.533 19.1717C262.586 19.3645 262.591 19.5795 262.549 19.8527C262.351 21.2246 261.053 22.5031 259.335 22.9775Z"/>
<path d="M251.338 25.8002C248.635 26.5937 246.398 25.3652 245.536 22.4283C244.686 19.5331 245.922 17.2583 248.6 16.4721C251.278 15.686 253.545 16.9238 254.397 19.8273C255.262 22.7726 254.041 25.0067 251.338 25.8002ZM250.792 23.9396C251.985 23.5894 252.448 22.3569 251.921 20.5631C251.4 18.7859 250.331 17.985 249.146 18.3327C247.961 18.6805 247.487 19.9345 248.008 21.7117C248.535 23.5055 249.59 24.2922 250.792 23.9396Z"/>
</mask>
<path d="M312.868 11.559C312.113 11.6866 311.536 11.2992 311.396 10.4675L310.212 3.47133C310.077 2.67397 310.488 2.12833 311.208 2.00652C311.911 1.8876 312.469 2.26937 312.604 3.06673L312.706 3.6669L312.757 3.65819C312.804 2.47728 313.444 1.67234 314.362 1.51717C314.696 1.46061 314.975 1.49282 315.181 1.61669C315.453 1.76471 315.625 2.05306 315.698 2.48175C315.765 2.87614 315.695 3.19653 315.49 3.4429C315.285 3.68928 314.944 3.86164 314.456 3.95288C313.319 4.1629 313.025 4.87409 313.209 5.96296L313.899 10.0441C314.04 10.8757 313.631 11.4299 312.868 11.559Z" fill="#F9F9F9"/>
<path d="M177.094 50.9777C174.414 51.8463 172.144 50.6807 171.201 47.7689C170.27 44.8986 171.442 42.5902 174.097 41.7297C176.752 40.8691 179.053 42.0433 179.985 44.9219C180.932 47.8419 179.774 50.1092 177.094 50.9777ZM176.496 49.1331C177.679 48.7497 178.108 47.5049 177.531 45.7264C176.96 43.9645 175.87 43.1936 174.695 43.5743C173.52 43.955 173.081 45.2218 173.652 46.9837C174.228 48.7622 175.305 49.5191 176.496 49.1331Z" fill="#F9F9F9"/>
<path d="M12.3433 150.203C11.7096 150.733 11.1062 150.717 10.3036 150.164L2.20415 144.559C1.93105 144.368 1.6902 144.161 1.53958 143.981C1.07099 143.421 1.16112 142.756 1.77479 142.243C2.30175 141.802 2.86738 141.828 3.46719 142.301L10.1238 147.333L10.1772 147.288L6.61012 139.729C6.23917 138.974 6.33063 138.432 6.89093 137.964C7.4379 137.506 8.01687 137.521 8.6601 137.992L15.4801 142.853L15.5335 142.808L11.7584 135.367C11.3998 134.68 11.4801 134.126 12.0071 133.685C12.6207 133.172 13.291 133.201 13.7596 133.761C13.9047 133.935 14.0655 134.208 14.2107 134.517L18.2991 143.499C18.6903 144.374 18.6001 144.971 17.9797 145.49C17.3327 146.031 16.7282 146.026 15.9323 145.468L9.57853 141.123L9.5185 141.173L12.6771 148.19C13.075 149.059 12.977 149.673 12.3433 150.203Z" fill="#F9F9F9"/>
<path d="M70.5874 107.887C68.1438 109.473 65.727 108.896 64.0846 106.364C62.4517 103.848 62.8813 101.299 65.1936 99.7985C67.4112 98.3596 69.8837 98.9113 71.2611 101.034C71.6445 101.625 71.5266 102.178 70.9358 102.562L66.4716 105.458L66.5331 105.553C67.2857 106.713 68.4782 107.017 69.5578 106.317C70.3383 105.81 70.6785 105.216 70.8146 104.164C70.8893 103.784 71.0269 103.58 71.304 103.401C71.7636 103.102 72.3249 103.153 72.6421 103.642C72.7509 103.809 72.8135 104.018 72.8322 104.254C72.9391 105.553 72.0974 106.908 70.5874 107.887ZM65.6462 104.138L68.9652 101.985C68.2588 100.992 67.1716 100.754 66.2379 101.36C65.3042 101.966 65.0707 103.092 65.6462 104.138Z" fill="#F9F9F9"/>
<path d="M63.3127 112.055C62.4979 112.588 61.847 112.547 61.068 111.976L55.4755 107.863C55.2862 107.717 55.0876 107.525 54.9447 107.306C54.5684 106.732 54.7791 106.053 55.3829 105.658C55.8994 105.32 56.4224 105.372 56.9587 105.842L61.962 110.039L62.0056 110.011L60.1454 103.725C59.9242 103.069 60.1044 102.567 60.5991 102.243C61.1884 101.857 61.8989 101.974 62.2514 102.512C62.38 102.709 62.4719 102.96 62.5255 103.185L64.0871 109.999C64.3085 110.925 64.0838 111.55 63.3127 112.055Z" fill="#F9F9F9"/>
<path d="M54.9707 118.682C54.3203 119.192 53.626 119.095 53.0899 118.41L47.0432 110.687C46.5125 110.009 46.5849 109.312 47.2354 108.803L51.9322 105.125C52.5004 104.68 53.1221 104.713 53.5402 105.247C53.9584 105.781 53.8337 106.397 53.2723 106.837L49.6094 109.705L51.4695 112.081L54.9544 109.352C55.4679 108.95 56.053 108.978 56.4389 109.471C56.8249 109.964 56.7184 110.533 56.1981 110.94L52.7132 113.669L54.6644 116.161L58.3274 113.293C58.8888 112.854 59.5173 112.881 59.9354 113.415C60.3536 113.949 60.2358 114.56 59.6675 115.005L54.9707 118.682Z" fill="#F9F9F9"/>
<path d="M22.8514 142.172C22.2853 142.648 21.5883 142.643 21.0292 141.977L14.4088 134.092C13.8832 133.466 13.9297 132.791 14.529 132.288C15.1283 131.785 15.7944 131.861 16.32 132.487L18.7468 135.377L18.7867 135.344C18.4114 134.126 18.7656 132.966 19.8511 132.054C21.436 130.724 23.2028 130.989 24.5895 132.64L27.7152 136.363C28.2743 137.029 28.1655 137.71 27.5928 138.191C27.0268 138.667 26.3298 138.661 25.7706 137.995L22.9916 134.686C22.22 133.767 21.2975 133.588 20.4118 134.331C19.4928 135.103 19.4958 136.202 20.2842 137.141L22.9737 140.344C23.5329 141.01 23.4241 141.692 22.8514 142.172Z" fill="#F9F9F9"/>
<path d="M31.7517 134.822C29.5061 136.678 27.0391 136.381 25.117 134.055C23.206 131.743 23.3403 129.161 25.4652 127.405C27.503 125.722 30.0225 125.986 31.6344 127.937C32.083 128.479 32.0295 129.043 31.4865 129.491L27.3842 132.881L27.4562 132.968C28.3369 134.034 29.5565 134.199 30.5485 133.38C31.2658 132.787 31.5356 132.158 31.55 131.097C31.5806 130.711 31.6939 130.493 31.9486 130.283C32.3709 129.934 32.9343 129.919 33.3055 130.368C33.4328 130.522 33.5189 130.722 33.5647 130.955C33.8199 132.233 33.1392 133.675 31.7517 134.822ZM26.4128 131.665L29.4628 129.144C28.6471 128.239 27.5397 128.128 26.6817 128.837C25.8238 129.546 25.721 130.691 26.4128 131.665Z" fill="#F9F9F9"/>
<path d="M36.0505 131.675C35.4407 132.137 34.7499 132.06 34.2404 131.388L29.9548 125.733C29.4664 125.088 29.5778 124.415 30.16 123.974C30.7283 123.543 31.4 123.623 31.8884 124.268L32.256 124.753L32.2976 124.721C31.7932 123.652 31.9881 122.643 32.7297 122.081C33 121.876 33.2621 121.775 33.5021 121.79C33.8117 121.795 34.0978 121.971 34.3604 122.318C34.602 122.637 34.6888 122.953 34.6208 123.266C34.5528 123.579 34.33 123.89 33.9402 124.196C33.029 124.909 33.0972 125.675 33.7641 126.556L36.2641 129.854C36.7735 130.527 36.6673 131.207 36.0505 131.675Z" fill="#F9F9F9"/>
<path d="M42.5967 127.119C40.1945 128.767 37.7637 128.252 36.0569 125.764C34.3599 123.29 34.724 120.731 36.997 119.171C39.1769 117.676 41.6628 118.164 43.0942 120.251C43.4926 120.832 43.389 121.388 42.8082 121.786L38.4198 124.796L38.4837 124.89C39.2658 126.03 40.4658 126.303 41.527 125.575C42.2943 125.049 42.6191 124.447 42.7282 123.391C42.7931 123.009 42.9254 122.802 43.1979 122.615C43.6496 122.306 44.2121 122.342 44.5416 122.822C44.6548 122.987 44.7226 123.193 44.7475 123.429C44.8876 124.725 44.081 126.101 42.5967 127.119ZM37.5609 123.498L40.8235 121.26C40.0918 120.286 38.9989 120.076 38.081 120.705C37.1632 121.335 36.9587 122.467 37.5609 123.498Z" fill="#F9F9F9"/>
<path d="M76.8459 103.721C76.2252 104.168 75.5364 104.075 75.0431 103.391L70.8929 97.636C70.4199 96.98 70.5473 96.3093 71.1398 95.882C71.7181 95.465 72.3877 95.5611 72.8607 96.217L73.2168 96.7107L73.2591 96.6802C72.7801 95.5997 72.999 94.595 73.7537 94.0508C74.0287 93.8524 74.2932 93.7582 74.5328 93.7784C74.8422 93.7911 75.124 93.9738 75.3783 94.3265C75.6123 94.6509 75.6916 94.969 75.6161 95.2807C75.5407 95.5924 75.3106 95.8977 74.9137 96.1946C73.9858 96.8851 74.0357 97.6532 74.6816 98.5489L77.1026 101.906C77.5959 102.59 77.4736 103.268 76.8459 103.721Z" fill="#F9F9F9"/>
<path d="M84.3447 103.284C83.3841 103.847 82.651 103.782 82.2645 103.122C82.0054 102.679 82.1506 102.221 82.646 101.931C82.7961 101.843 82.883 101.802 83.0331 101.715C83.4158 101.491 83.732 101.084 83.6653 100.367L83.6109 100.016L77.0828 94.7489C76.8685 94.5721 76.6829 94.3583 76.5775 94.1782C76.2305 93.5853 76.468 92.8721 77.1134 92.4943C77.6913 92.1562 78.1364 92.2282 78.6899 92.7607L83.6973 97.306L83.7348 97.284L82.2159 90.6771C82.0402 89.9638 82.2017 89.5166 82.7646 89.1872C83.395 88.8183 84.0719 88.9764 84.41 89.5542C84.5154 89.7343 84.6197 90.0159 84.6677 90.2699L86.1249 98.4242C86.591 100.942 86.1084 102.252 84.3447 103.284Z" fill="#F9F9F9"/>
<path d="M96.4239 91.7987C94.8268 92.8036 93.1392 92.8483 91.8701 91.9414C91.5505 91.711 91.3249 91.4831 91.1211 91.1592C90.7183 90.5189 90.8684 89.8594 91.494 89.4658C92.0533 89.1139 92.5439 89.1751 93.1002 89.6675C93.7481 90.2564 94.4913 90.3436 95.1978 89.899C96.1252 89.3156 96.2645 88.4266 95.593 87.3594L91.6755 81.1329C91.2124 80.3969 91.356 79.7107 92.0552 79.2707C92.7544 78.8308 93.4352 78.9984 93.8982 79.7344L97.825 85.9757C99.2466 88.2352 98.6981 90.3678 96.4239 91.7987Z" fill="#F9F9F9"/>
<path d="M151.938 62.2407C151.182 62.5733 150.533 62.3078 150.183 61.5118L146.234 52.5336C145.887 51.7456 146.13 51.0879 146.886 50.7552L150.682 49.0851C152.839 48.1362 154.679 48.6474 155.453 50.4064C156.006 51.664 155.529 53.1278 154.392 53.8466L154.42 53.9103C156.033 53.3434 157.679 53.9774 158.348 55.4977C159.237 57.5194 158.274 59.4537 155.822 60.5321L151.938 62.2407ZM150.188 55.0022L151.916 54.2424C153.197 53.6787 153.681 52.7915 153.254 51.8204C152.847 50.8971 151.972 50.6554 150.849 51.1491L148.875 52.0174L150.188 55.0022ZM152.352 59.9211L154.422 59.0108C155.807 58.4016 156.296 57.4834 155.813 56.385C155.34 55.3105 154.316 55.0771 152.899 55.7003L150.885 56.5861L152.352 59.9211Z" fill="#F9F9F9"/>
<path d="M162.542 57.5092C159.875 58.6821 157.583 57.7243 156.368 54.9623C155.16 52.2163 155.993 49.7695 158.516 48.6595C160.936 47.5951 163.288 48.5364 164.307 50.8526C164.59 51.4973 164.385 52.0245 163.74 52.3081L158.869 54.451L158.915 54.5544C159.471 55.82 160.6 56.3116 161.778 55.7934C162.629 55.4188 163.06 54.8872 163.364 53.8703C163.498 53.5071 163.667 53.3285 163.969 53.1954C164.471 52.9749 165.017 53.1147 165.251 53.648C165.332 53.831 165.36 54.0466 165.341 54.2831C165.238 55.5823 164.189 56.7844 162.542 57.5092ZM158.266 53.0157L161.888 51.4226C161.35 50.3293 160.315 49.9201 159.296 50.3683C158.277 50.8164 157.866 51.8903 158.266 53.0157Z" fill="#F9F9F9"/>
<path d="M169.75 54.629C167.121 55.6188 164.803 54.5218 163.74 51.698C162.689 48.9068 163.687 46.5239 166.308 45.5372C168.057 44.8784 169.832 45.1762 170.77 46.2354C170.928 46.4082 171.057 46.6014 171.121 46.7722C171.342 47.3582 171.015 47.8716 170.453 48.083C169.981 48.2607 169.626 48.1808 169.219 47.8414C168.5 47.2389 167.839 47.0882 167.082 47.3731C165.878 47.8267 165.511 49.0983 166.146 50.7828C166.792 52.4999 167.901 53.1975 169.089 52.7502C169.919 52.4376 170.278 51.8377 170.411 51.0813C170.542 50.4654 170.726 50.1639 171.23 49.9739C171.784 49.7655 172.369 49.9632 172.59 50.5491C172.66 50.7363 172.685 50.95 172.668 51.2258C172.595 52.61 171.418 54.0008 169.75 54.629Z" fill="#F9F9F9"/>
<path d="M182.982 48.7697C182.278 49.0478 181.632 48.8078 181.316 48.0072L178.714 41.4245C178.401 40.632 178.707 40.0342 179.378 39.7689C180.049 39.5036 180.681 39.7307 180.994 40.5232L181.208 41.065L181.257 41.0458C181.208 39.8588 181.867 38.8038 183.047 38.3372C184.301 37.8418 185.43 38.1435 186.169 39.1606L186.217 39.1414C186.174 37.8963 186.937 36.7998 188.207 36.298C189.905 35.6267 191.506 36.3406 192.196 38.0873L194.117 42.9475C194.433 43.7481 194.118 44.3685 193.414 44.6465C192.719 44.9214 192.072 44.6814 191.756 43.8808L190.068 39.611C189.672 38.6082 188.953 38.2565 188.039 38.6176C187.141 38.9724 186.81 39.8608 187.19 40.8231L188.852 45.0282C189.169 45.8288 188.902 46.43 188.198 46.7081C187.503 46.983 186.896 46.727 186.58 45.9264L184.864 41.5838C184.496 40.6538 183.753 40.3117 182.88 40.6569C181.982 41.0116 181.644 41.9306 182.028 42.9011L183.677 47.0739C183.993 47.8744 183.677 48.4948 182.982 48.7697Z" fill="#F9F9F9"/>
<path d="M198.364 42.5902C195.664 43.6848 193.401 42.6605 192.267 39.8642C191.139 37.0841 192.044 34.6626 194.598 33.6268C197.048 32.6335 199.371 33.6431 200.322 35.988C200.587 36.6407 200.366 37.1617 199.714 37.4264L194.782 39.4261L194.825 39.5308C195.344 40.8121 196.457 41.3365 197.65 40.8529C198.512 40.5033 198.959 39.9845 199.292 38.9769C199.437 38.6178 199.61 38.4442 199.917 38.32C200.424 38.1142 200.966 38.2698 201.185 38.8097C201.26 38.9951 201.282 39.2114 201.256 39.4472C201.115 40.7429 200.032 41.9139 198.364 42.5902ZM194.221 37.9738L197.888 36.4871C197.382 35.3786 196.359 34.9394 195.328 35.3576C194.297 35.7758 193.854 36.8372 194.221 37.9738Z" fill="#F9F9F9"/>
<path d="M205.269 39.8161C203.219 40.4254 201.634 40.0981 200.897 39.1741C200.791 39.0331 200.711 38.8846 200.671 38.7513C200.505 38.1928 200.811 37.6939 201.378 37.5255C201.769 37.4091 202.155 37.485 202.6 37.761C203.26 38.245 203.895 38.365 204.82 38.09C205.704 37.8275 206.17 37.2899 205.994 36.698C205.85 36.2146 205.465 36.0478 204.533 36.1162L202.938 36.2453C201.077 36.3903 199.928 35.7609 199.534 34.4356C199.026 32.7269 200.175 31.1882 202.492 30.4997C204.343 29.9498 205.951 30.388 206.543 31.3099C206.613 31.425 206.673 31.5343 206.708 31.651C206.854 32.1428 206.647 32.5762 206.022 32.7619C205.705 32.856 205.32 32.8434 205.027 32.6494C204.441 32.2339 203.833 31.9608 202.958 32.2208C202.133 32.466 201.674 33.0287 201.845 33.6038C201.984 34.0706 202.426 34.275 203.374 34.2017L204.944 34.08C206.963 33.9154 207.955 34.3828 208.351 35.7164C208.879 37.4919 207.628 39.1152 205.269 39.8161Z" fill="#F9F9F9"/>
<path d="M218.637 35.62C216.937 36.1252 215.318 35.4088 214.84 33.8001C214.357 32.1747 215.327 30.8613 217.522 30.0642L219.732 29.2621L219.557 28.6703C219.309 27.8368 218.582 27.5267 217.665 27.7991C216.923 28.0196 216.545 28.395 216.211 29.2562C216.033 29.6355 215.77 29.8772 215.378 29.9936C214.786 30.1694 214.247 29.9123 214.084 29.3622C214.027 29.1705 214.016 28.9831 214.045 28.7749C214.145 27.5842 215.383 26.4997 217.233 25.9498C219.526 25.2687 221.369 26.009 221.904 27.8094L223.418 32.9023C223.658 33.7109 223.29 34.2738 222.598 34.4793C221.94 34.675 221.372 34.4445 221.109 33.7425L220.973 33.284L220.923 33.2989C220.705 34.3977 219.754 35.2881 218.637 35.62ZM218.915 33.6234C219.982 33.3064 220.651 32.3545 220.364 31.3876L220.171 30.7375L218.322 31.4139C217.433 31.7506 217.038 32.3125 217.226 32.946C217.424 33.6129 218.098 33.8662 218.915 33.6234Z" fill="#F9F9F9"/>
<path d="M235.037 30.8412C234.245 31.0764 233.635 30.7317 233.387 29.8982L230.593 20.4959C230.348 19.6707 230.671 19.0485 231.463 18.8132L235.439 17.6318C237.698 16.9606 239.459 17.6982 240.006 19.5403C240.398 20.8573 239.741 22.2498 238.523 22.8205L238.543 22.8872C240.214 22.5268 241.768 23.3621 242.241 24.9541C242.87 27.0713 241.672 28.8697 239.105 29.6325L235.037 30.8412ZM234.208 23.4405L236.016 22.903C237.358 22.5043 237.949 21.6846 237.647 20.6677C237.36 19.7008 236.521 19.3513 235.346 19.7005L233.279 20.3147L234.208 23.4405ZM235.738 28.5917L237.906 27.9478C239.356 27.5168 239.956 26.6672 239.614 25.5169C239.28 24.3916 238.293 24.0317 236.809 24.4726L234.701 25.0992L235.738 28.5917Z" fill="#F9F9F9"/>
<path d="M245.428 27.3781C244.721 27.5918 244.082 27.3123 243.831 26.4798L240.862 16.6488C240.611 15.8164 240.986 15.2219 241.693 15.0082C242.409 14.792 243.042 15.0824 243.293 15.9148L246.262 25.7459C246.513 26.5783 246.144 27.162 245.428 27.3781Z" fill="#F9F9F9"/>
<path d="M264.578 22.6354C263.866 22.8308 263.235 22.535 263.005 21.6964L260.289 11.7924C260.059 10.9538 260.449 10.3691 261.162 10.1737C261.883 9.97597 262.508 10.2825 262.738 11.1211L264.267 16.6978L264.301 16.6886L266.66 12.5344C266.893 12.1009 267.13 11.8824 267.499 11.7813C268.128 11.6088 268.716 11.9436 268.882 12.5474C268.983 12.9164 268.936 13.1727 268.673 13.5963L266.977 16.3876L270.36 18.8952C270.728 19.1823 270.863 19.3796 270.95 19.6983C271.13 20.3524 270.776 20.9363 270.088 21.1248C269.568 21.2674 269.224 21.1634 268.68 20.6905L265.537 18.2702L264.954 19.2052L265.453 21.025C265.683 21.8636 265.3 22.4377 264.578 22.6354Z" fill="#F9F9F9"/>
<path d="M273.054 20.5856C272.344 20.7577 271.743 20.456 271.542 19.6278L269.115 9.61357C268.91 8.76849 269.317 8.19565 270.036 8.02153C270.762 7.84537 271.378 8.17037 271.583 9.01545L272.455 12.6155L272.506 12.6032C272.745 11.4091 273.603 10.521 274.887 10.2097C277.178 9.65458 278.996 11.0659 279.705 13.9899C280.411 16.9054 279.452 18.9991 277.161 19.5543C275.835 19.8758 274.673 19.4773 273.91 18.5439L273.859 18.5562L273.976 19.0379C274.175 19.8576 273.772 20.4115 273.054 20.5856ZM275.835 17.7731C277.06 17.4761 277.579 16.2587 277.178 14.6024C276.779 12.9545 275.756 12.093 274.53 12.39C273.33 12.6808 272.771 13.9528 273.164 15.5753C273.561 17.2148 274.635 18.064 275.835 17.7731Z" fill="#F9F9F9"/>
<path d="M283.944 17.0958C281.981 17.5635 280.374 16.5967 279.87 14.482L278.741 9.74517C278.54 8.89931 278.949 8.32803 279.668 8.15668C280.395 7.98331 281.01 8.31066 281.211 9.15652L282.217 13.3774C282.506 14.587 283.259 15.0867 284.351 14.8266C285.45 14.5646 285.948 13.6146 285.662 12.4135L284.688 8.32797C284.486 7.48211 284.895 6.91083 285.614 6.73947C286.342 6.5661 286.956 6.89346 287.158 7.73932L288.799 14.6246C288.994 15.4451 288.615 15.9914 287.904 16.1608C287.194 16.3301 286.609 16.0136 286.413 15.1931L286.28 14.6349L286.23 14.647C286.053 15.8957 285.314 16.7692 283.944 17.0958Z" fill="#F9F9F9"/>
<path d="M293.367 15.6537C291.258 16.0106 289.724 15.494 289.104 14.4877C289.016 14.335 288.954 14.1779 288.931 14.0407C288.834 13.4663 289.197 13.0079 289.78 12.9093C290.183 12.8411 290.557 12.9631 290.965 13.2909C291.562 13.8512 292.178 14.047 293.129 13.886C294.038 13.7322 294.566 13.2548 294.463 12.6461C294.379 12.1488 294.016 11.9367 293.083 11.8919L291.484 11.8272C289.619 11.746 288.555 10.9824 288.324 9.61919C288.027 7.86158 289.353 6.47309 291.736 6.0698C293.64 5.74775 295.184 6.37723 295.659 7.36387C295.715 7.48667 295.761 7.60235 295.782 7.72238C295.867 8.22823 295.609 8.63342 294.966 8.74223C294.641 8.79735 294.26 8.73825 293.992 8.51018C293.461 8.02688 292.891 7.68233 291.991 7.83466C291.142 7.97827 290.619 8.48133 290.719 9.07292C290.8 9.55304 291.214 9.80934 292.164 9.85131L293.737 9.92034C295.762 10.0011 296.689 10.5849 296.921 11.9567C297.23 13.7829 295.793 15.2432 293.367 15.6537Z" fill="#F9F9F9"/>
<path d="M298.227 12.0015L297.303 7.06116L296.825 7.15069C296.235 7.26101 295.792 6.97238 295.683 6.39116C295.574 5.80995 295.883 5.38061 296.473 5.27029L296.951 5.18075L296.761 4.16363C296.611 3.36018 296.988 2.7765 297.766 2.63101C298.544 2.48551 299.107 2.89332 299.257 3.69676L299.447 4.71389L300.328 4.54921C300.917 4.43888 301.354 4.73767 301.461 5.31033C301.568 5.883 301.269 6.31929 300.679 6.42961L299.799 6.59429L300.619 10.979C300.741 11.6286 301.014 11.8606 301.561 11.8026L301.726 11.7893C302.354 11.7426 302.736 11.9366 302.844 12.5178C302.982 13.2529 302.334 13.7633 301.283 13.96L301.198 13.9759C299.531 14.2877 298.53 13.6169 298.227 12.0015Z" fill="#F9F9F9"/>
<path d="M307.547 12.3843C304.687 12.9362 302.664 11.4934 302.092 8.53071C301.524 5.58508 302.879 3.38411 305.586 2.86186C308.181 2.36102 310.266 3.80085 310.745 6.28542C310.879 6.977 310.562 7.44553 309.87 7.57898L304.645 8.58724L304.666 8.69823C304.928 10.0558 305.919 10.7856 307.183 10.5418C308.096 10.3655 308.635 9.94278 309.156 9.01859C309.368 8.6943 309.572 8.55755 309.896 8.49494C310.434 8.39115 310.935 8.64865 311.046 9.2207C311.084 9.41707 311.063 9.63352 310.992 9.85985C310.603 11.1038 309.314 12.0433 307.547 12.3843ZM304.375 7.05399L308.26 6.30438C307.978 5.11894 307.06 4.49025 305.967 4.70113C304.874 4.91201 304.235 5.8678 304.375 7.05399Z" fill="#F9F9F9"/>
<path d="M132.472 71.2956C129.894 72.6524 127.54 71.8575 126.134 69.1874C124.737 66.5327 125.397 64.0335 127.836 62.7496C130.175 61.5184 132.587 62.2926 133.766 64.5318C134.094 65.1551 133.926 65.6953 133.303 66.0234L128.594 68.5021L128.647 68.6021C129.291 69.8256 130.45 70.237 131.589 69.6376C132.413 69.2042 132.805 68.6437 133.037 67.6081C133.146 67.2363 133.301 67.0464 133.593 66.8925C134.078 66.6373 134.633 66.7386 134.904 67.2541C134.997 67.4311 135.041 67.6441 135.038 67.8814C135.026 69.1847 134.065 70.4572 132.472 71.2956ZM127.892 67.1126L131.393 65.2698C130.78 64.2168 129.719 63.8811 128.734 64.3995C127.749 64.9179 127.414 66.0179 127.892 67.1126Z" fill="#F9F9F9"/>
<path d="M137.968 72.556C136.9 72.8672 136.204 72.6259 135.99 71.8913C135.847 71.3987 136.099 70.9901 136.65 70.8296C136.817 70.781 136.911 70.7626 137.078 70.7139C137.504 70.5899 137.91 70.2725 138.02 69.5612L138.052 69.2075L133.004 62.5088C132.839 62.285 132.711 62.0325 132.653 61.8321C132.461 61.1726 132.865 60.5386 133.583 60.3295C134.225 60.1423 134.64 60.3205 135.047 60.9718L138.796 66.5998L138.838 66.5876L138.974 59.8097C138.977 59.0751 139.243 58.6808 139.869 58.4984C140.57 58.2941 141.188 58.6122 141.376 59.2551C141.434 59.4555 141.467 59.7539 141.451 60.012L140.878 68.2757C140.717 70.8314 139.93 71.9845 137.968 72.556Z" fill="#F9F9F9"/>
<path d="M121.682 77.1509C121.025 77.4901 120.347 77.3317 119.948 76.5591L116.692 70.2545C116.329 69.5515 116.515 68.9073 117.195 68.5562C117.875 68.2051 118.546 68.4064 118.913 69.1172L119.153 69.5807L119.199 69.5568C119.109 68.3018 119.652 67.3069 120.927 66.6486C122.766 65.699 124.399 66.3233 125.401 68.2625L127.635 72.5892C128.034 73.3618 127.77 74.0069 127.114 74.346C126.449 74.6892 125.778 74.5268 125.379 73.7542L123.388 69.8989C122.83 68.8172 122 68.4624 120.988 68.9851C119.976 69.5078 119.718 70.5807 120.272 71.6546L122.204 75.394C122.603 76.1666 122.346 76.8078 121.682 77.1509Z" fill="#F9F9F9"/>
<path d="M117.184 80.1804C116.517 80.5554 115.843 80.3857 115.43 79.6505L111.952 73.4657C111.556 72.7608 111.758 72.1085 112.394 71.7505C113.016 71.4011 113.67 71.5717 114.067 72.2766L114.365 72.8072L114.411 72.7816C114.056 71.6542 114.386 70.6804 115.197 70.2243C115.493 70.0581 115.766 69.9942 116.002 70.0412C116.308 70.0886 116.568 70.3018 116.781 70.6807C116.977 71.0294 117.02 71.3543 116.91 71.6556C116.8 71.9568 116.537 72.2344 116.109 72.4849C115.11 73.0668 115.073 73.8356 115.614 74.7982L117.643 78.4061C118.056 79.1413 117.859 79.8011 117.184 80.1804Z" fill="#F9F9F9"/>
<path d="M102.72 87.8942C100.156 89.0637 97.7681 88.1654 96.4975 85.3808C95.2449 82.6357 96.1446 80.2084 98.684 79.0497C101.223 77.8911 103.643 78.7943 104.899 81.5474C106.173 84.3399 105.283 86.7247 102.72 87.8942ZM101.915 86.13C103.046 85.6139 103.329 84.3282 102.553 82.6273C101.784 80.9423 100.612 80.3013 99.489 80.8139C98.3656 81.3265 98.0739 82.6352 98.8427 84.3202C99.6188 86.0211 100.775 86.6498 101.915 86.13Z" fill="#F9F9F9"/>
<path d="M110.199 84.0826C108.459 85.1039 106.64 84.6494 105.539 82.7746L103.074 78.5751C102.634 77.8251 102.858 77.1592 103.496 76.785C104.141 76.4065 104.824 76.5398 105.264 77.2898L107.461 81.0318C108.09 82.1042 108.957 82.3616 109.924 81.7938C110.899 81.2215 111.097 80.1676 110.472 79.1027L108.346 75.4806C107.906 74.7307 108.13 74.0648 108.768 73.6906C109.413 73.3121 110.096 73.4454 110.536 74.1953L114.119 80.2996C114.546 81.027 114.343 81.6604 113.713 82.0301C113.083 82.3999 112.431 82.2683 112.004 81.5409L111.714 81.046L111.669 81.0724C111.866 82.318 111.414 83.3696 110.199 84.0826Z" fill="#F9F9F9"/>
<path d="M259.335 22.9775C256.628 23.7251 254.419 22.4227 253.615 19.5142C252.822 16.6392 254.032 14.3566 256.731 13.6113C258.533 13.1136 260.274 13.5711 261.112 14.7109C261.253 14.8973 261.364 15.1013 261.412 15.2773C261.579 15.8808 261.207 16.3625 260.629 16.5222C260.142 16.6564 259.796 16.5446 259.422 16.1698C258.76 15.5046 258.115 15.2946 257.336 15.5099C256.095 15.8524 255.615 17.0856 256.094 18.8207C256.583 20.5893 257.623 21.3845 258.847 21.0465C259.702 20.8104 260.114 20.2455 260.315 19.5044C260.501 18.9028 260.711 18.6192 261.231 18.4757C261.801 18.3183 262.366 18.5682 262.533 19.1717C262.586 19.3645 262.591 19.5795 262.549 19.8527C262.351 21.2246 261.053 22.5031 259.335 22.9775Z" fill="#F9F9F9"/>
<path d="M251.338 25.8002C248.635 26.5937 246.398 25.3652 245.536 22.4283C244.686 19.5331 245.922 17.2583 248.6 16.4721C251.278 15.686 253.545 16.9238 254.397 19.8273C255.262 22.7726 254.041 25.0067 251.338 25.8002ZM250.792 23.9396C251.985 23.5894 252.448 22.3569 251.921 20.5631C251.4 18.7859 250.331 17.985 249.146 18.3327C247.961 18.6805 247.487 19.9345 248.008 21.7117C248.535 23.5055 249.59 24.2922 250.792 23.9396Z" fill="#F9F9F9"/>
<path d="M312.868 11.559C312.113 11.6866 311.536 11.2992 311.396 10.4675L310.212 3.47133C310.077 2.67397 310.488 2.12833 311.208 2.00652C311.911 1.8876 312.469 2.26937 312.604 3.06673L312.706 3.6669L312.757 3.65819C312.804 2.47728 313.444 1.67234 314.362 1.51717C314.696 1.46061 314.975 1.49282 315.181 1.61669C315.453 1.76471 315.625 2.05306 315.698 2.48175C315.765 2.87614 315.695 3.19653 315.49 3.4429C315.285 3.68928 314.944 3.86164 314.456 3.95288C313.319 4.1629 313.025 4.87409 313.209 5.96296L313.899 10.0441C314.04 10.8757 313.631 11.4299 312.868 11.559Z" stroke="#121216" stroke-width="1.61895" mask="url(#path-1-outside-1_5875_12320)"/>
<path d="M177.094 50.9777C174.414 51.8463 172.144 50.6807 171.201 47.7689C170.27 44.8986 171.442 42.5902 174.097 41.7297C176.752 40.8691 179.053 42.0433 179.985 44.9219C180.932 47.8419 179.774 50.1092 177.094 50.9777ZM176.496 49.1331C177.679 48.7497 178.108 47.5049 177.531 45.7264C176.96 43.9645 175.87 43.1936 174.695 43.5743C173.52 43.955 173.081 45.2218 173.652 46.9837C174.228 48.7622 175.305 49.5191 176.496 49.1331Z" stroke="#121216" stroke-width="1.61895" mask="url(#path-1-outside-1_5875_12320)"/>
<path d="M12.3433 150.203C11.7096 150.733 11.1062 150.717 10.3036 150.164L2.20415 144.559C1.93105 144.368 1.6902 144.161 1.53958 143.981C1.07099 143.421 1.16112 142.756 1.77479 142.243C2.30175 141.802 2.86738 141.828 3.46719 142.301L10.1238 147.333L10.1772 147.288L6.61012 139.729C6.23917 138.974 6.33063 138.432 6.89093 137.964C7.4379 137.506 8.01687 137.521 8.6601 137.992L15.4801 142.853L15.5335 142.808L11.7584 135.367C11.3998 134.68 11.4801 134.126 12.0071 133.685C12.6207 133.172 13.291 133.201 13.7596 133.761C13.9047 133.935 14.0655 134.208 14.2107 134.517L18.2991 143.499C18.6903 144.374 18.6001 144.971 17.9797 145.49C17.3327 146.031 16.7282 146.026 15.9323 145.468L9.57853 141.123L9.5185 141.173L12.6771 148.19C13.075 149.059 12.977 149.673 12.3433 150.203Z" stroke="#121216" stroke-width="1.61895" mask="url(#path-1-outside-1_5875_12320)"/>
<path d="M70.5874 107.887C68.1438 109.473 65.727 108.896 64.0846 106.364C62.4517 103.848 62.8813 101.299 65.1936 99.7985C67.4112 98.3596 69.8837 98.9113 71.2611 101.034C71.6445 101.625 71.5266 102.178 70.9358 102.562L66.4716 105.458L66.5331 105.553C67.2857 106.713 68.4782 107.017 69.5578 106.317C70.3383 105.81 70.6785 105.216 70.8146 104.164C70.8893 103.784 71.0269 103.58 71.304 103.401C71.7636 103.102 72.3249 103.153 72.6421 103.642C72.7509 103.809 72.8135 104.018 72.8322 104.254C72.9391 105.553 72.0974 106.908 70.5874 107.887ZM65.6462 104.138L68.9652 101.985C68.2588 100.992 67.1716 100.754 66.2379 101.36C65.3042 101.966 65.0707 103.092 65.6462 104.138Z" stroke="#121216" stroke-width="1.61895" mask="url(#path-1-outside-1_5875_12320)"/>
<path d="M63.3127 112.055C62.4979 112.588 61.847 112.547 61.068 111.976L55.4755 107.863C55.2862 107.717 55.0876 107.525 54.9447 107.306C54.5684 106.732 54.7791 106.053 55.3829 105.658C55.8994 105.32 56.4224 105.372 56.9587 105.842L61.962 110.039L62.0056 110.011L60.1454 103.725C59.9242 103.069 60.1044 102.567 60.5991 102.243C61.1884 101.857 61.8989 101.974 62.2514 102.512C62.38 102.709 62.4719 102.96 62.5255 103.185L64.0871 109.999C64.3085 110.925 64.0838 111.55 63.3127 112.055Z" stroke="#121216" stroke-width="1.61895" mask="url(#path-1-outside-1_5875_12320)"/>
<path d="M54.9707 118.682C54.3203 119.192 53.626 119.095 53.0899 118.41L47.0432 110.687C46.5125 110.009 46.5849 109.312 47.2354 108.803L51.9322 105.125C52.5004 104.68 53.1221 104.713 53.5402 105.247C53.9584 105.781 53.8337 106.397 53.2723 106.837L49.6094 109.705L51.4695 112.081L54.9544 109.352C55.4679 108.95 56.053 108.978 56.4389 109.471C56.8249 109.964 56.7184 110.533 56.1981 110.94L52.7132 113.669L54.6644 116.161L58.3274 113.293C58.8888 112.854 59.5173 112.881 59.9354 113.415C60.3536 113.949 60.2358 114.56 59.6675 115.005L54.9707 118.682Z" stroke="#121216" stroke-width="1.61895" mask="url(#path-1-outside-1_5875_12320)"/>
<path d="M22.8514 142.172C22.2853 142.648 21.5883 142.643 21.0292 141.977L14.4088 134.092C13.8832 133.466 13.9297 132.791 14.529 132.288C15.1283 131.785 15.7944 131.861 16.32 132.487L18.7468 135.377L18.7867 135.344C18.4114 134.126 18.7656 132.966 19.8511 132.054C21.436 130.724 23.2028 130.989 24.5895 132.64L27.7152 136.363C28.2743 137.029 28.1655 137.71 27.5928 138.191C27.0268 138.667 26.3298 138.661 25.7706 137.995L22.9916 134.686C22.22 133.767 21.2975 133.588 20.4118 134.331C19.4928 135.103 19.4958 136.202 20.2842 137.141L22.9737 140.344C23.5329 141.01 23.4241 141.692 22.8514 142.172Z" stroke="#121216" stroke-width="1.61895" mask="url(#path-1-outside-1_5875_12320)"/>
<path d="M31.7517 134.822C29.5061 136.678 27.0391 136.381 25.117 134.055C23.206 131.743 23.3403 129.161 25.4652 127.405C27.503 125.722 30.0225 125.986 31.6344 127.937C32.083 128.479 32.0295 129.043 31.4865 129.491L27.3842 132.881L27.4562 132.968C28.3369 134.034 29.5565 134.199 30.5485 133.38C31.2658 132.787 31.5356 132.158 31.55 131.097C31.5806 130.711 31.6939 130.493 31.9486 130.283C32.3709 129.934 32.9343 129.919 33.3055 130.368C33.4328 130.522 33.5189 130.722 33.5647 130.955C33.8199 132.233 33.1392 133.675 31.7517 134.822ZM26.4128 131.665L29.4628 129.144C28.6471 128.239 27.5397 128.128 26.6817 128.837C25.8238 129.546 25.721 130.691 26.4128 131.665Z" stroke="#121216" stroke-width="1.61895" mask="url(#path-1-outside-1_5875_12320)"/>
<path d="M36.0505 131.675C35.4407 132.137 34.7499 132.06 34.2404 131.388L29.9548 125.733C29.4664 125.088 29.5778 124.415 30.16 123.974C30.7283 123.543 31.4 123.623 31.8884 124.268L32.256 124.753L32.2976 124.721C31.7932 123.652 31.9881 122.643 32.7297 122.081C33 121.876 33.2621 121.775 33.5021 121.79C33.8117 121.795 34.0978 121.971 34.3604 122.318C34.602 122.637 34.6888 122.953 34.6208 123.266C34.5528 123.579 34.33 123.89 33.9402 124.196C33.029 124.909 33.0972 125.675 33.7641 126.556L36.2641 129.854C36.7735 130.527 36.6673 131.207 36.0505 131.675Z" stroke="#121216" stroke-width="1.61895" mask="url(#path-1-outside-1_5875_12320)"/>
<path d="M42.5967 127.119C40.1945 128.767 37.7637 128.252 36.0569 125.764C34.3599 123.29 34.724 120.731 36.997 119.171C39.1769 117.676 41.6628 118.164 43.0942 120.251C43.4926 120.832 43.389 121.388 42.8082 121.786L38.4198 124.796L38.4837 124.89C39.2658 126.03 40.4658 126.303 41.527 125.575C42.2943 125.049 42.6191 124.447 42.7282 123.391C42.7931 123.009 42.9254 122.802 43.1979 122.615C43.6496 122.306 44.2121 122.342 44.5416 122.822C44.6548 122.987 44.7226 123.193 44.7475 123.429C44.8876 124.725 44.081 126.101 42.5967 127.119ZM37.5609 123.498L40.8235 121.26C40.0918 120.286 38.9989 120.076 38.081 120.705C37.1632 121.335 36.9587 122.467 37.5609 123.498Z" stroke="#121216" stroke-width="1.61895" mask="url(#path-1-outside-1_5875_12320)"/>
<path d="M76.8459 103.721C76.2252 104.168 75.5364 104.075 75.0431 103.391L70.8929 97.636C70.4199 96.98 70.5473 96.3093 71.1398 95.882C71.7181 95.465 72.3877 95.5611 72.8607 96.217L73.2168 96.7107L73.2591 96.6802C72.7801 95.5997 72.999 94.595 73.7537 94.0508C74.0287 93.8524 74.2932 93.7582 74.5328 93.7784C74.8422 93.7911 75.124 93.9738 75.3783 94.3265C75.6123 94.6509 75.6916 94.969 75.6161 95.2807C75.5407 95.5924 75.3106 95.8977 74.9137 96.1946C73.9858 96.8851 74.0357 97.6532 74.6816 98.5489L77.1026 101.906C77.5959 102.59 77.4736 103.268 76.8459 103.721Z" stroke="#121216" stroke-width="1.61895" mask="url(#path-1-outside-1_5875_12320)"/>
<path d="M84.3447 103.284C83.3841 103.847 82.651 103.782 82.2645 103.122C82.0054 102.679 82.1506 102.221 82.646 101.931C82.7961 101.843 82.883 101.802 83.0331 101.715C83.4158 101.491 83.732 101.084 83.6653 100.367L83.6109 100.016L77.0828 94.7489C76.8685 94.5721 76.6829 94.3583 76.5775 94.1782C76.2305 93.5853 76.468 92.8721 77.1134 92.4943C77.6913 92.1562 78.1364 92.2282 78.6899 92.7607L83.6973 97.306L83.7348 97.284L82.2159 90.6771C82.0402 89.9638 82.2017 89.5166 82.7646 89.1872C83.395 88.8183 84.0719 88.9764 84.41 89.5542C84.5154 89.7343 84.6197 90.0159 84.6677 90.2699L86.1249 98.4242C86.591 100.942 86.1084 102.252 84.3447 103.284Z" stroke="#121216" stroke-width="1.61895" mask="url(#path-1-outside-1_5875_12320)"/>
<path d="M96.4239 91.7987C94.8268 92.8036 93.1392 92.8483 91.8701 91.9414C91.5505 91.711 91.3249 91.4831 91.1211 91.1592C90.7183 90.5189 90.8684 89.8594 91.494 89.4658C92.0533 89.1139 92.5439 89.1751 93.1002 89.6675C93.7481 90.2564 94.4913 90.3436 95.1978 89.899C96.1252 89.3156 96.2645 88.4266 95.593 87.3594L91.6755 81.1329C91.2124 80.3969 91.356 79.7107 92.0552 79.2707C92.7544 78.8308 93.4352 78.9984 93.8982 79.7344L97.825 85.9757C99.2466 88.2352 98.6981 90.3678 96.4239 91.7987Z" stroke="#121216" stroke-width="1.61895" mask="url(#path-1-outside-1_5875_12320)"/>
<path d="M151.938 62.2407C151.182 62.5733 150.533 62.3078 150.183 61.5118L146.234 52.5336C145.887 51.7456 146.13 51.0879 146.886 50.7552L150.682 49.0851C152.839 48.1362 154.679 48.6474 155.453 50.4064C156.006 51.664 155.529 53.1278 154.392 53.8466L154.42 53.9103C156.033 53.3434 157.679 53.9774 158.348 55.4977C159.237 57.5194 158.274 59.4537 155.822 60.5321L151.938 62.2407ZM150.188 55.0022L151.916 54.2424C153.197 53.6787 153.681 52.7915 153.254 51.8204C152.847 50.8971 151.972 50.6554 150.849 51.1491L148.875 52.0174L150.188 55.0022ZM152.352 59.9211L154.422 59.0108C155.807 58.4016 156.296 57.4834 155.813 56.385C155.34 55.3105 154.316 55.0771 152.899 55.7003L150.885 56.5861L152.352 59.9211Z" stroke="#121216" stroke-width="1.61895" mask="url(#path-1-outside-1_5875_12320)"/>
<path d="M162.542 57.5092C159.875 58.6821 157.583 57.7243 156.368 54.9623C155.16 52.2163 155.993 49.7695 158.516 48.6595C160.936 47.5951 163.288 48.5364 164.307 50.8526C164.59 51.4973 164.385 52.0245 163.74 52.3081L158.869 54.451L158.915 54.5544C159.471 55.82 160.6 56.3116 161.778 55.7934C162.629 55.4188 163.06 54.8872 163.364 53.8703C163.498 53.5071 163.667 53.3285 163.969 53.1954C164.471 52.9749 165.017 53.1147 165.251 53.648C165.332 53.831 165.36 54.0466 165.341 54.2831C165.238 55.5823 164.189 56.7844 162.542 57.5092ZM158.266 53.0157L161.888 51.4226C161.35 50.3293 160.315 49.9201 159.296 50.3683C158.277 50.8164 157.866 51.8903 158.266 53.0157Z" stroke="#121216" stroke-width="1.61895" mask="url(#path-1-outside-1_5875_12320)"/>
<path d="M169.75 54.629C167.121 55.6188 164.803 54.5218 163.74 51.698C162.689 48.9068 163.687 46.5239 166.308 45.5372C168.057 44.8784 169.832 45.1762 170.77 46.2354C170.928 46.4082 171.057 46.6014 171.121 46.7722C171.342 47.3582 171.015 47.8716 170.453 48.083C169.981 48.2607 169.626 48.1808 169.219 47.8414C168.5 47.2389 167.839 47.0882 167.082 47.3731C165.878 47.8267 165.511 49.0983 166.146 50.7828C166.792 52.4999 167.901 53.1975 169.089 52.7502C169.919 52.4376 170.278 51.8377 170.411 51.0813C170.542 50.4654 170.726 50.1639 171.23 49.9739C171.784 49.7655 172.369 49.9632 172.59 50.5491C172.66 50.7363 172.685 50.95 172.668 51.2258C172.595 52.61 171.418 54.0008 169.75 54.629Z" stroke="#121216" stroke-width="1.61895" mask="url(#path-1-outside-1_5875_12320)"/>
<path d="M182.982 48.7697C182.278 49.0478 181.632 48.8078 181.316 48.0072L178.714 41.4245C178.401 40.632 178.707 40.0342 179.378 39.7689C180.049 39.5036 180.681 39.7307 180.994 40.5232L181.208 41.065L181.257 41.0458C181.208 39.8588 181.867 38.8038 183.047 38.3372C184.301 37.8418 185.43 38.1435 186.169 39.1606L186.217 39.1414C186.174 37.8963 186.937 36.7998 188.207 36.298C189.905 35.6267 191.506 36.3406 192.196 38.0873L194.117 42.9475C194.433 43.7481 194.118 44.3685 193.414 44.6465C192.719 44.9214 192.072 44.6814 191.756 43.8808L190.068 39.611C189.672 38.6082 188.953 38.2565 188.039 38.6176C187.141 38.9724 186.81 39.8608 187.19 40.8231L188.852 45.0282C189.169 45.8288 188.902 46.43 188.198 46.7081C187.503 46.983 186.896 46.727 186.58 45.9264L184.864 41.5838C184.496 40.6538 183.753 40.3117 182.88 40.6569C181.982 41.0116 181.644 41.9306 182.028 42.9011L183.677 47.0739C183.993 47.8744 183.677 48.4948 182.982 48.7697Z" stroke="#121216" stroke-width="1.61895" mask="url(#path-1-outside-1_5875_12320)"/>
<path d="M198.364 42.5902C195.664 43.6848 193.401 42.6605 192.267 39.8642C191.139 37.0841 192.044 34.6626 194.598 33.6268C197.048 32.6335 199.371 33.6431 200.322 35.988C200.587 36.6407 200.366 37.1617 199.714 37.4264L194.782 39.4261L194.825 39.5308C195.344 40.8121 196.457 41.3365 197.65 40.8529C198.512 40.5033 198.959 39.9845 199.292 38.9769C199.437 38.6178 199.61 38.4442 199.917 38.32C200.424 38.1142 200.966 38.2698 201.185 38.8097C201.26 38.9951 201.282 39.2114 201.256 39.4472C201.115 40.7429 200.032 41.9139 198.364 42.5902ZM194.221 37.9738L197.888 36.4871C197.382 35.3786 196.359 34.9394 195.328 35.3576C194.297 35.7758 193.854 36.8372 194.221 37.9738Z" stroke="#121216" stroke-width="1.61895" mask="url(#path-1-outside-1_5875_12320)"/>
<path d="M205.269 39.8161C203.219 40.4254 201.634 40.0981 200.897 39.1741C200.791 39.0331 200.711 38.8846 200.671 38.7513C200.505 38.1928 200.811 37.6939 201.378 37.5255C201.769 37.4091 202.155 37.485 202.6 37.761C203.26 38.245 203.895 38.365 204.82 38.09C205.704 37.8275 206.17 37.2899 205.994 36.698C205.85 36.2146 205.465 36.0478 204.533 36.1162L202.938 36.2453C201.077 36.3903 199.928 35.7609 199.534 34.4356C199.026 32.7269 200.175 31.1882 202.492 30.4997C204.343 29.9498 205.951 30.388 206.543 31.3099C206.613 31.425 206.673 31.5343 206.708 31.651C206.854 32.1428 206.647 32.5762 206.022 32.7619C205.705 32.856 205.32 32.8434 205.027 32.6494C204.441 32.2339 203.833 31.9608 202.958 32.2208C202.133 32.466 201.674 33.0287 201.845 33.6038C201.984 34.0706 202.426 34.275 203.374 34.2017L204.944 34.08C206.963 33.9154 207.955 34.3828 208.351 35.7164C208.879 37.4919 207.628 39.1152 205.269 39.8161Z" stroke="#121216" stroke-width="1.61895" mask="url(#path-1-outside-1_5875_12320)"/>
<path d="M218.637 35.62C216.937 36.1252 215.318 35.4088 214.84 33.8001C214.357 32.1747 215.327 30.8613 217.522 30.0642L219.732 29.2621L219.557 28.6703C219.309 27.8368 218.582 27.5267 217.665 27.7991C216.923 28.0196 216.545 28.395 216.211 29.2562C216.033 29.6355 215.77 29.8772 215.378 29.9936C214.786 30.1694 214.247 29.9123 214.084 29.3622C214.027 29.1705 214.016 28.9831 214.045 28.7749C214.145 27.5842 215.383 26.4997 217.233 25.9498C219.526 25.2687 221.369 26.009 221.904 27.8094L223.418 32.9023C223.658 33.7109 223.29 34.2738 222.598 34.4793C221.94 34.675 221.372 34.4445 221.109 33.7425L220.973 33.284L220.923 33.2989C220.705 34.3977 219.754 35.2881 218.637 35.62ZM218.915 33.6234C219.982 33.3064 220.651 32.3545 220.364 31.3876L220.171 30.7375L218.322 31.4139C217.433 31.7506 217.038 32.3125 217.226 32.946C217.424 33.6129 218.098 33.8662 218.915 33.6234Z" stroke="#121216" stroke-width="1.61895" mask="url(#path-1-outside-1_5875_12320)"/>
<path d="M235.037 30.8412C234.245 31.0764 233.635 30.7317 233.387 29.8982L230.593 20.4959C230.348 19.6707 230.671 19.0485 231.463 18.8132L235.439 17.6318C237.698 16.9606 239.459 17.6982 240.006 19.5403C240.398 20.8573 239.741 22.2498 238.523 22.8205L238.543 22.8872C240.214 22.5268 241.768 23.3621 242.241 24.9541C242.87 27.0713 241.672 28.8697 239.105 29.6325L235.037 30.8412ZM234.208 23.4405L236.016 22.903C237.358 22.5043 237.949 21.6846 237.647 20.6677C237.36 19.7008 236.521 19.3513 235.346 19.7005L233.279 20.3147L234.208 23.4405ZM235.738 28.5917L237.906 27.9478C239.356 27.5168 239.956 26.6672 239.614 25.5169C239.28 24.3916 238.293 24.0317 236.809 24.4726L234.701 25.0992L235.738 28.5917Z" stroke="#121216" stroke-width="1.61895" mask="url(#path-1-outside-1_5875_12320)"/>
<path d="M245.428 27.3781C244.721 27.5918 244.082 27.3123 243.831 26.4798L240.862 16.6488C240.611 15.8164 240.986 15.2219 241.693 15.0082C242.409 14.792 243.042 15.0824 243.293 15.9148L246.262 25.7459C246.513 26.5783 246.144 27.162 245.428 27.3781Z" stroke="#121216" stroke-width="1.61895" mask="url(#path-1-outside-1_5875_12320)"/>
<path d="M264.578 22.6354C263.866 22.8308 263.235 22.535 263.005 21.6964L260.289 11.7924C260.059 10.9538 260.449 10.3691 261.162 10.1737C261.883 9.97597 262.508 10.2825 262.738 11.1211L264.267 16.6978L264.301 16.6886L266.66 12.5344C266.893 12.1009 267.13 11.8824 267.499 11.7813C268.128 11.6088 268.716 11.9436 268.882 12.5474C268.983 12.9164 268.936 13.1727 268.673 13.5963L266.977 16.3876L270.36 18.8952C270.728 19.1823 270.863 19.3796 270.95 19.6983C271.13 20.3524 270.776 20.9363 270.088 21.1248C269.568 21.2674 269.224 21.1634 268.68 20.6905L265.537 18.2702L264.954 19.2052L265.453 21.025C265.683 21.8636 265.3 22.4377 264.578 22.6354Z" stroke="#121216" stroke-width="1.61895" mask="url(#path-1-outside-1_5875_12320)"/>
<path d="M273.054 20.5856C272.344 20.7577 271.743 20.456 271.542 19.6278L269.115 9.61357C268.91 8.76849 269.317 8.19565 270.036 8.02153C270.762 7.84537 271.378 8.17037 271.583 9.01545L272.455 12.6155L272.506 12.6032C272.745 11.4091 273.603 10.521 274.887 10.2097C277.178 9.65458 278.996 11.0659 279.705 13.9899C280.411 16.9054 279.452 18.9991 277.161 19.5543C275.835 19.8758 274.673 19.4773 273.91 18.5439L273.859 18.5562L273.976 19.0379C274.175 19.8576 273.772 20.4115 273.054 20.5856ZM275.835 17.7731C277.06 17.4761 277.579 16.2587 277.178 14.6024C276.779 12.9545 275.756 12.093 274.53 12.39C273.33 12.6808 272.771 13.9528 273.164 15.5753C273.561 17.2148 274.635 18.064 275.835 17.7731Z" stroke="#121216" stroke-width="1.61895" mask="url(#path-1-outside-1_5875_12320)"/>
<path d="M283.944 17.0958C281.981 17.5635 280.374 16.5967 279.87 14.482L278.741 9.74517C278.54 8.89931 278.949 8.32803 279.668 8.15668C280.395 7.98331 281.01 8.31066 281.211 9.15652L282.217 13.3774C282.506 14.587 283.259 15.0867 284.351 14.8266C285.45 14.5646 285.948 13.6146 285.662 12.4135L284.688 8.32797C284.486 7.48211 284.895 6.91083 285.614 6.73947C286.342 6.5661 286.956 6.89346 287.158 7.73932L288.799 14.6246C288.994 15.4451 288.615 15.9914 287.904 16.1608C287.194 16.3301 286.609 16.0136 286.413 15.1931L286.28 14.6349L286.23 14.647C286.053 15.8957 285.314 16.7692 283.944 17.0958Z" stroke="#121216" stroke-width="1.61895" mask="url(#path-1-outside-1_5875_12320)"/>
<path d="M293.367 15.6537C291.258 16.0106 289.724 15.494 289.104 14.4877C289.016 14.335 288.954 14.1779 288.931 14.0407C288.834 13.4663 289.197 13.0079 289.78 12.9093C290.183 12.8411 290.557 12.9631 290.965 13.2909C291.562 13.8512 292.178 14.047 293.129 13.886C294.038 13.7322 294.566 13.2548 294.463 12.6461C294.379 12.1488 294.016 11.9367 293.083 11.8919L291.484 11.8272C289.619 11.746 288.555 10.9824 288.324 9.61919C288.027 7.86158 289.353 6.47309 291.736 6.0698C293.64 5.74775 295.184 6.37723 295.659 7.36387C295.715 7.48667 295.761 7.60235 295.782 7.72238C295.867 8.22823 295.609 8.63342 294.966 8.74223C294.641 8.79735 294.26 8.73825 293.992 8.51018C293.461 8.02688 292.891 7.68233 291.991 7.83466C291.142 7.97827 290.619 8.48133 290.719 9.07292C290.8 9.55304 291.214 9.80934 292.164 9.85131L293.737 9.92034C295.762 10.0011 296.689 10.5849 296.921 11.9567C297.23 13.7829 295.793 15.2432 293.367 15.6537Z" stroke="#121216" stroke-width="1.61895" mask="url(#path-1-outside-1_5875_12320)"/>
<path d="M298.227 12.0015L297.303 7.06116L296.825 7.15069C296.235 7.26101 295.792 6.97238 295.683 6.39116C295.574 5.80995 295.883 5.38061 296.473 5.27029L296.951 5.18075L296.761 4.16363C296.611 3.36018 296.988 2.7765 297.766 2.63101C298.544 2.48551 299.107 2.89332 299.257 3.69676L299.447 4.71389L300.328 4.54921C300.917 4.43888 301.354 4.73767 301.461 5.31033C301.568 5.883 301.269 6.31929 300.679 6.42961L299.799 6.59429L300.619 10.979C300.741 11.6286 301.014 11.8606 301.561 11.8026L301.726 11.7893C302.354 11.7426 302.736 11.9366 302.844 12.5178C302.982 13.2529 302.334 13.7633 301.283 13.96L301.198 13.9759C299.531 14.2877 298.53 13.6169 298.227 12.0015Z" stroke="#121216" stroke-width="1.61895" mask="url(#path-1-outside-1_5875_12320)"/>
<path d="M307.547 12.3843C304.687 12.9362 302.664 11.4934 302.092 8.53071C301.524 5.58508 302.879 3.38411 305.586 2.86186C308.181 2.36102 310.266 3.80085 310.745 6.28542C310.879 6.977 310.562 7.44553 309.87 7.57898L304.645 8.58724L304.666 8.69823C304.928 10.0558 305.919 10.7856 307.183 10.5418C308.096 10.3655 308.635 9.94278 309.156 9.01859C309.368 8.6943 309.572 8.55755 309.896 8.49494C310.434 8.39115 310.935 8.64865 311.046 9.2207C311.084 9.41707 311.063 9.63352 310.992 9.85985C310.603 11.1038 309.314 12.0433 307.547 12.3843ZM304.375 7.05399L308.26 6.30438C307.978 5.11894 307.06 4.49025 305.967 4.70113C304.874 4.91201 304.235 5.8678 304.375 7.05399Z" stroke="#121216" stroke-width="1.61895" mask="url(#path-1-outside-1_5875_12320)"/>
<path d="M132.472 71.2956C129.894 72.6524 127.54 71.8575 126.134 69.1874C124.737 66.5327 125.397 64.0335 127.836 62.7496C130.175 61.5184 132.587 62.2926 133.766 64.5318C134.094 65.1551 133.926 65.6953 133.303 66.0234L128.594 68.5021L128.647 68.6021C129.291 69.8256 130.45 70.237 131.589 69.6376C132.413 69.2042 132.805 68.6437 133.037 67.6081C133.146 67.2363 133.301 67.0464 133.593 66.8925C134.078 66.6373 134.633 66.7386 134.904 67.2541C134.997 67.4311 135.041 67.6441 135.038 67.8814C135.026 69.1847 134.065 70.4572 132.472 71.2956ZM127.892 67.1126L131.393 65.2698C130.78 64.2168 129.719 63.8811 128.734 64.3995C127.749 64.9179 127.414 66.0179 127.892 67.1126Z" stroke="#121216" stroke-width="1.61895" mask="url(#path-1-outside-1_5875_12320)"/>
<path d="M137.968 72.556C136.9 72.8672 136.204 72.6259 135.99 71.8913C135.847 71.3987 136.099 70.9901 136.65 70.8296C136.817 70.781 136.911 70.7626 137.078 70.7139C137.504 70.5899 137.91 70.2725 138.02 69.5612L138.052 69.2075L133.004 62.5088C132.839 62.285 132.711 62.0325 132.653 61.8321C132.461 61.1726 132.865 60.5386 133.583 60.3295C134.225 60.1423 134.64 60.3205 135.047 60.9718L138.796 66.5998L138.838 66.5876L138.974 59.8097C138.977 59.0751 139.243 58.6808 139.869 58.4984C140.57 58.2941 141.188 58.6122 141.376 59.2551C141.434 59.4555 141.467 59.7539 141.451 60.012L140.878 68.2757C140.717 70.8314 139.93 71.9845 137.968 72.556Z" stroke="#121216" stroke-width="1.61895" mask="url(#path-1-outside-1_5875_12320)"/>
<path d="M121.682 77.1509C121.025 77.4901 120.347 77.3317 119.948 76.5591L116.692 70.2545C116.329 69.5515 116.515 68.9073 117.195 68.5562C117.875 68.2051 118.546 68.4064 118.913 69.1172L119.153 69.5807L119.199 69.5568C119.109 68.3018 119.652 67.3069 120.927 66.6486C122.766 65.699 124.399 66.3233 125.401 68.2625L127.635 72.5892C128.034 73.3618 127.77 74.0069 127.114 74.346C126.449 74.6892 125.778 74.5268 125.379 73.7542L123.388 69.8989C122.83 68.8172 122 68.4624 120.988 68.9851C119.976 69.5078 119.718 70.5807 120.272 71.6546L122.204 75.394C122.603 76.1666 122.346 76.8078 121.682 77.1509Z" stroke="#121216" stroke-width="1.61895" mask="url(#path-1-outside-1_5875_12320)"/>
<path d="M117.184 80.1804C116.517 80.5554 115.843 80.3857 115.43 79.6505L111.952 73.4657C111.556 72.7608 111.758 72.1085 112.394 71.7505C113.016 71.4011 113.67 71.5717 114.067 72.2766L114.365 72.8072L114.411 72.7816C114.056 71.6542 114.386 70.6804 115.197 70.2243C115.493 70.0581 115.766 69.9942 116.002 70.0412C116.308 70.0886 116.568 70.3018 116.781 70.6807C116.977 71.0294 117.02 71.3543 116.91 71.6556C116.8 71.9568 116.537 72.2344 116.109 72.4849C115.11 73.0668 115.073 73.8356 115.614 74.7982L117.643 78.4061C118.056 79.1413 117.859 79.8011 117.184 80.1804Z" stroke="#121216" stroke-width="1.61895" mask="url(#path-1-outside-1_5875_12320)"/>
<path d="M102.72 87.8942C100.156 89.0637 97.7681 88.1654 96.4975 85.3808C95.2449 82.6357 96.1446 80.2084 98.684 79.0497C101.223 77.8911 103.643 78.7943 104.899 81.5474C106.173 84.3399 105.283 86.7247 102.72 87.8942ZM101.915 86.13C103.046 85.6139 103.329 84.3282 102.553 82.6273C101.784 80.9423 100.612 80.3013 99.489 80.8139C98.3656 81.3265 98.0739 82.6352 98.8427 84.3202C99.6188 86.0211 100.775 86.6498 101.915 86.13Z" stroke="#121216" stroke-width="1.61895" mask="url(#path-1-outside-1_5875_12320)"/>
<path d="M110.199 84.0826C108.459 85.1039 106.64 84.6494 105.539 82.7746L103.074 78.5751C102.634 77.8251 102.858 77.1592 103.496 76.785C104.141 76.4065 104.824 76.5398 105.264 77.2898L107.461 81.0318C108.09 82.1042 108.957 82.3616 109.924 81.7938C110.899 81.2215 111.097 80.1676 110.472 79.1027L108.346 75.4806C107.906 74.7307 108.13 74.0648 108.768 73.6906C109.413 73.3121 110.096 73.4454 110.536 74.1953L114.119 80.2996C114.546 81.027 114.343 81.6604 113.713 82.0301C113.083 82.3999 112.431 82.2683 112.004 81.5409L111.714 81.046L111.669 81.0724C111.866 82.318 111.414 83.3696 110.199 84.0826Z" stroke="#121216" stroke-width="1.61895" mask="url(#path-1-outside-1_5875_12320)"/>
<path d="M259.335 22.9775C256.628 23.7251 254.419 22.4227 253.615 19.5142C252.822 16.6392 254.032 14.3566 256.731 13.6113C258.533 13.1136 260.274 13.5711 261.112 14.7109C261.253 14.8973 261.364 15.1013 261.412 15.2773C261.579 15.8808 261.207 16.3625 260.629 16.5222C260.142 16.6564 259.796 16.5446 259.422 16.1698C258.76 15.5046 258.115 15.2946 257.336 15.5099C256.095 15.8524 255.615 17.0856 256.094 18.8207C256.583 20.5893 257.623 21.3845 258.847 21.0465C259.702 20.8104 260.114 20.2455 260.315 19.5044C260.501 18.9028 260.711 18.6192 261.231 18.4757C261.801 18.3183 262.366 18.5682 262.533 19.1717C262.586 19.3645 262.591 19.5795 262.549 19.8527C262.351 21.2246 261.053 22.5031 259.335 22.9775Z" stroke="#121216" stroke-width="1.61895" mask="url(#path-1-outside-1_5875_12320)"/>
<path d="M251.338 25.8002C248.635 26.5937 246.398 25.3652 245.536 22.4283C244.686 19.5331 245.922 17.2583 248.6 16.4721C251.278 15.686 253.545 16.9238 254.397 19.8273C255.262 22.7726 254.041 25.0067 251.338 25.8002ZM250.792 23.9396C251.985 23.5894 252.448 22.3569 251.921 20.5631C251.4 18.7859 250.331 17.985 249.146 18.3327C247.961 18.6805 247.487 19.9345 248.008 21.7117C248.535 23.5055 249.59 24.2922 250.792 23.9396Z" stroke="#121216" stroke-width="1.61895" mask="url(#path-1-outside-1_5875_12320)"/>
</svg>
