<svg width="958" height="215" viewBox="0 0 958 215" fill="none" xmlns="http://www.w3.org/2000/svg">
<g filter="url(#filter0_d_5991_11129)">
<path d="M24.9808 176.132C22.7071 177.081 20.619 177.333 18.7165 176.888C16.8952 176.409 15.4085 175.361 14.2565 173.744C13.1856 172.093 12.7202 169.951 12.8602 167.318L15.5061 85.9628C15.6524 82.6593 16.3644 80.0255 17.6422 78.0614C18.8861 76.0161 20.6855 74.5017 23.0405 73.5183C25.3954 72.5349 27.7373 72.3198 30.0664 72.873C32.3615 73.345 34.6946 74.7071 37.0657 76.9594L97.0278 132.169C98.999 133.92 100.212 135.798 100.667 137.801C101.17 139.689 100.951 141.449 100.012 143.082C99.0381 144.633 97.4551 145.866 95.2626 146.781C92.5016 147.934 90.0785 148.183 87.993 147.528C85.9888 146.84 83.8417 145.352 81.5519 143.066L67.1731 129.187L76.9123 131.271L26.1194 152.482L31.4841 144.091L31.3681 164.023C31.3369 167.374 30.9024 169.987 30.0645 171.863C29.2739 173.624 27.5794 175.046 24.9808 176.132ZM31.6477 94.8142L31.571 138.476L26.2984 135.099L64.4235 119.177L63.1186 125.301L31.8913 94.7125L31.6477 94.8142Z" fill="white"/>
<path d="M129.991 138.412C126.731 139.157 124.038 138.825 121.91 137.415C119.783 136.005 118.347 133.671 117.602 130.411L101.287 58.9903C100.523 55.6445 100.803 52.9177 102.127 50.81C103.536 48.6826 105.871 47.2466 109.131 46.5019L140.402 39.3586C150.525 37.0461 158.89 37.7077 165.498 41.3435C172.105 44.9793 176.409 51.1725 178.408 59.9231C179.701 65.5852 179.574 70.7594 178.027 75.4457C176.48 80.1319 173.602 84.1292 169.393 87.4376C165.27 90.7265 159.819 93.145 153.042 94.6932L153.572 92.2704L158.848 91.0651C162.451 90.242 165.788 90.4275 168.859 91.6216C171.996 92.7102 174.963 94.8308 177.759 97.9832L189.119 110.959C190.81 112.83 191.847 114.804 192.232 116.883C192.616 118.961 192.226 120.811 191.062 122.431C189.897 124.051 187.9 125.184 185.069 125.831C182.238 126.478 179.784 126.406 177.708 125.617C175.718 124.808 173.752 123.316 171.811 121.141L154.254 101.186C152.419 99.0781 150.459 97.8106 148.376 97.3839C146.378 96.9375 144.05 97.0181 141.39 97.6256L131.61 99.8597L137.548 125.854C138.293 129.114 138.013 131.841 136.709 134.034C135.491 136.208 133.251 137.668 129.991 138.412ZM128.318 85.447L146.205 81.3609C151.524 80.1459 155.268 78.1622 157.438 75.4099C159.693 72.6381 160.331 69.1074 159.351 64.8179C158.391 60.6141 156.293 57.7535 153.058 56.2358C149.909 54.6986 145.674 54.5375 140.355 55.7526L122.468 59.8387L128.318 85.447Z" fill="white"/>
<path d="M223.944 119.89C216.387 121.121 209.654 120.836 203.743 119.035C197.905 117.133 193.107 113.947 189.347 109.477C185.66 104.907 183.265 99.2342 182.161 92.4595C181.086 85.8586 181.534 79.8563 183.507 74.4528C185.466 68.9624 188.694 64.4242 193.192 60.8383C197.762 57.1513 203.218 54.7914 209.558 53.7584C214.162 53.0084 218.458 53.1109 222.447 54.0658C226.423 54.9339 229.99 56.5817 233.15 59.0092C236.295 61.3499 238.895 64.4481 240.95 68.3039C242.99 72.0728 244.414 76.4326 245.221 81.3833C245.489 83.0336 245.173 84.3779 244.273 85.4162C243.358 86.3677 241.901 87.0062 239.904 87.3317L198.995 93.9966L197.34 83.8346L230.171 78.4857L228.383 80.6492C227.803 77.0882 226.801 74.22 225.377 72.0447C223.938 69.7826 222.121 68.2063 219.925 67.3158C217.816 66.4111 215.329 66.1923 212.463 66.6593C209.249 67.1828 206.633 68.3668 204.616 70.2113C202.598 72.0557 201.208 74.4667 200.444 77.4441C199.681 80.4216 199.618 83.8646 200.255 87.773L200.425 88.8153C201.5 95.4163 203.812 100.033 207.362 102.664C210.998 105.281 215.856 106.095 221.936 105.104C224.02 104.765 226.366 104.115 228.974 103.155C231.582 102.195 233.966 100.96 236.127 99.4487C237.969 98.1678 239.7 97.5737 241.32 97.6664C242.926 97.6723 244.255 98.169 245.308 99.1566C246.36 100.144 247.05 101.369 247.377 102.832C247.792 104.28 247.728 105.806 247.187 107.41C246.632 108.927 245.52 110.312 243.852 111.564C241.168 113.696 238.022 115.456 234.414 116.846C230.908 118.309 227.418 119.324 223.944 119.89Z" fill="white"/>
<path d="M268.328 113.952C263.609 114.513 259.262 114.099 255.286 112.71C251.311 111.322 248.087 109.179 245.616 106.282C243.145 103.386 241.676 99.9712 241.209 96.0388C240.648 91.32 241.431 87.4608 243.556 84.4611C245.67 81.3741 249.413 78.9355 254.783 77.1454C260.143 75.2679 267.367 73.7893 276.455 72.7096L283.402 71.8842L284.617 82.1082L277.801 82.9181C273.344 83.4476 269.749 84.1406 267.015 84.9971C264.358 85.7559 262.485 86.776 261.396 88.0574C260.395 89.3283 260.014 90.9688 260.253 92.9786C260.544 95.4254 261.613 97.3366 263.46 98.7123C265.395 100.078 267.978 100.568 271.212 100.184C273.746 99.8829 275.907 99.0502 277.694 97.6858C279.559 96.2236 280.94 94.4201 281.837 92.2752C282.724 90.043 283.011 87.6161 282.7 84.9946L280.909 69.9206C280.452 66.0756 279.256 63.4705 277.322 62.1052C275.377 60.6525 272.307 60.1754 268.113 60.6737C265.753 60.954 263.212 61.5662 260.488 62.5101C257.841 63.3563 254.936 64.632 251.771 66.3373C249.952 67.4396 248.274 67.8605 246.736 67.6001C245.189 67.2523 243.949 66.5134 243.017 65.3834C242.075 64.1661 241.515 62.8146 241.339 61.3291C241.152 59.7561 241.412 58.2187 242.12 56.7167C242.818 55.1273 244.13 53.8637 246.056 52.9258C249.966 50.7775 253.676 49.1847 257.186 48.1473C260.784 47.0996 264.112 46.394 267.17 46.0306C273.899 45.2312 279.524 45.582 284.044 47.0831C288.642 48.4865 292.277 51.112 294.95 54.9595C297.612 58.7197 299.322 63.7894 300.08 70.1685L303.537 99.2678C303.922 102.501 303.431 105.085 302.066 107.02C300.7 108.954 298.532 110.098 295.561 110.451C292.59 110.804 290.17 110.205 288.302 108.655C286.522 107.094 285.44 104.697 285.055 101.464L284.479 96.6138L285.49 97.2912C285.319 100.325 284.489 103.037 283.001 105.43C281.59 107.724 279.646 109.639 277.17 111.174C274.683 112.621 271.736 113.548 268.328 113.952Z" fill="white"/>
<path d="M327.051 107.877C319.25 108.576 313.229 106.951 308.988 103.002C304.739 98.965 302.229 92.6518 301.46 84.0622L296.147 24.7677C295.848 21.4371 296.457 18.8645 297.973 17.0499C299.569 15.1399 301.989 14.0396 305.232 13.749C308.387 13.4663 310.876 14.1268 312.698 15.7305C314.6 17.2388 315.701 19.6583 315.999 22.9889L321.241 81.4945C321.563 85.0881 322.548 87.6947 324.195 89.3141C325.922 90.8381 328.056 91.4862 330.598 91.2585C331.299 91.1956 331.953 91.0929 332.558 90.9503C333.164 90.8077 333.818 90.7049 334.519 90.6421C335.905 90.3412 336.909 90.693 337.529 91.6977C338.229 92.6068 338.712 94.5515 338.979 97.5315C339.215 100.161 338.87 102.224 337.944 103.721C337.01 105.13 335.467 106.151 333.315 106.786C332.446 106.952 331.446 107.13 330.314 107.32C329.191 107.597 328.103 107.783 327.051 107.877Z" fill="white"/>
<path d="M342.019 106.957C338.767 107.124 336.218 106.373 334.37 104.706C332.61 103.034 331.646 100.572 331.479 97.3202L329.078 50.5217C328.911 47.27 329.62 44.7664 331.204 43.0109C332.872 41.1631 335.243 40.1602 338.319 40.0024C341.483 39.8401 343.945 40.5949 345.705 42.2669C347.461 43.851 348.422 46.269 348.589 49.5207L349.021 57.9576L347.301 52.7589C348.851 48.6261 351.409 45.2346 354.974 42.5844C358.538 39.9343 362.826 38.4807 367.835 38.2236C372.844 37.9666 377.08 38.9389 380.541 41.1404C384.003 43.3419 386.563 46.8674 388.221 51.7168L386.376 51.8114C388.079 47.2301 390.843 43.5637 394.667 40.8121C398.574 37.9682 403.121 36.4132 408.306 36.1471C413.315 35.8901 417.454 36.6911 420.721 38.5501C424.072 40.3167 426.642 43.1808 428.432 47.1423C430.216 51.0159 431.267 56.0287 431.582 62.1806L433.118 92.1053C433.285 95.357 432.534 97.9068 430.867 99.7547C429.287 101.598 426.915 102.601 423.752 102.763C420.5 102.93 417.95 102.18 416.102 100.512C414.342 98.8402 413.379 96.3783 413.212 93.1266L411.71 63.8611C411.489 59.5548 410.626 56.4709 409.121 54.6096C407.699 52.6559 405.362 51.7625 402.11 51.9293C398.331 52.1232 395.455 53.5926 393.481 56.3373C391.507 59.0821 390.644 62.8713 390.892 67.7049L392.251 94.202C392.418 97.4538 391.668 100.004 390.001 101.851C388.421 103.695 386.049 104.698 382.885 104.86C379.721 105.022 377.216 104.27 375.368 102.602C373.52 100.935 372.513 98.4751 372.346 95.2234L370.844 65.9579C370.623 61.6516 369.76 58.5677 368.255 56.7064C366.833 54.7527 364.496 53.8593 361.244 54.0261C357.465 54.22 354.589 55.6894 352.615 58.4341C350.641 61.1789 349.778 64.9681 350.026 69.8017L351.385 96.2988C351.732 103.066 348.61 106.619 342.019 106.957Z" fill="white"/>
<path d="M485.171 102.772C478.219 102.738 472.154 101.345 466.975 98.592C461.884 95.8394 457.943 91.9044 455.152 86.7868C452.361 81.6693 450.982 75.6346 451.015 68.6827C451.04 63.4907 451.855 58.8306 453.459 54.7023C455.063 50.574 457.368 47.0651 460.374 44.1755C463.468 41.1984 467.131 38.9721 471.362 37.4965C475.594 35.9329 480.305 35.1636 485.497 35.1887C492.449 35.2222 498.47 36.6153 503.561 39.3679C508.74 42.1209 512.725 46.0122 515.517 51.0417C518.397 56.0717 519.82 62.0626 519.786 69.0146C519.761 74.2945 518.902 78.9984 517.21 83.1263C515.606 87.2546 513.301 90.8075 510.295 93.785C507.288 96.7626 503.625 99.0329 499.306 100.596C495.075 102.072 490.363 102.797 485.171 102.772ZM485.243 87.8561C488.147 87.8701 490.658 87.1782 492.777 85.7804C494.896 84.3826 496.578 82.3227 497.823 79.6007C499.069 76.7907 499.702 73.2297 499.723 68.9177C499.754 62.4938 498.456 57.7795 495.831 54.7748C493.206 51.6821 489.737 50.1253 485.425 50.1045C482.609 50.0909 480.098 50.7388 477.892 52.0482C475.773 53.358 474.091 55.4179 472.846 58.2279C471.689 60.9503 471.1 64.4675 471.079 68.7795C471.048 75.2034 472.345 80.0057 474.969 83.1864C477.595 86.2791 481.019 87.8357 485.243 87.8561Z" fill="white"/>
<path d="M530.27 103.308C527.016 103.209 524.536 102.253 522.83 100.44C521.213 98.6298 520.453 96.0974 520.553 92.8429L521.801 51.942L517.051 51.797C514.588 51.7218 512.673 51.0031 511.306 49.6408C510.027 48.2811 509.423 46.4578 509.492 44.1709C509.568 41.708 510.284 39.881 511.641 38.6898C513.088 37.4134 515.043 36.8128 517.506 36.8879L528.061 37.2101L522.095 42.3105L522.22 38.2204C522.507 28.8087 525.053 21.8432 529.857 17.3236C534.749 12.8067 541.784 10.2041 550.961 9.51578L555.195 9.24882C557.487 9.14271 559.28 9.54958 560.572 10.4694C561.953 11.392 562.841 12.5636 563.238 13.9844C563.635 15.4052 563.679 16.8592 563.369 18.3464C563.062 19.7457 562.408 21.0023 561.405 22.1163C560.494 23.1449 559.245 23.6791 557.659 23.7187L555.808 23.7943C551.047 24.0012 547.626 25.0413 545.544 26.9146C543.464 28.7 542.365 31.5278 542.247 35.398L542.11 39.8839L539.672 37.5645L551.546 37.9269C554.097 38.0047 556.012 38.7235 557.291 40.0831C558.573 41.3548 559.177 43.2221 559.101 45.685C559.031 47.9719 558.317 49.7549 556.957 51.034C555.597 52.3132 553.642 52.9138 551.091 52.8359L541.724 52.55L540.475 93.451C540.269 100.224 536.867 103.51 530.27 103.308Z" fill="white"/>
<path d="M581.878 106.193C578.896 105.948 576.684 104.927 575.243 103.131C573.801 101.334 573.203 98.9454 573.449 95.9634L579.719 19.7931C579.965 16.8112 580.989 14.5556 582.793 13.0264C584.684 11.5045 587.12 10.8662 590.102 11.1117C592.734 11.3283 594.751 12.0242 596.156 13.1994C597.655 14.2941 598.961 16.1234 600.075 18.6874L625.894 76.7053L621.421 76.3371L656.38 23.3225C657.898 20.9751 659.442 19.3804 661.012 18.5384C662.677 17.6159 664.782 17.2594 667.325 17.4687C670.307 17.7142 672.519 18.7351 673.96 20.5314C675.49 22.335 676.131 24.7277 675.886 27.7096L669.615 103.88C669.37 106.862 668.389 109.121 666.674 110.657C664.958 112.194 662.609 112.839 659.627 112.594C656.645 112.348 654.389 111.324 652.86 109.52C651.419 107.724 650.821 105.335 651.066 102.353L655.452 49.0732L658.346 49.3115L630.271 91.1049C629.081 92.6847 627.836 93.8625 626.536 94.6385C625.331 95.3339 623.764 95.6023 621.835 95.4434C619.905 95.2846 618.362 94.7161 617.207 93.738C616.051 92.7599 615.056 91.4418 614.221 89.7837L593.106 43.8084L596.263 44.0683L591.866 97.4796C591.621 100.462 590.64 102.721 588.924 104.257C587.296 105.801 584.948 106.446 581.878 106.193Z" fill="white"/>
<path d="M700.851 118.355C693.963 117.411 688.133 115.235 683.359 111.827C678.673 108.431 675.281 104.014 673.185 98.5748C671.088 93.1357 670.511 86.9723 671.455 80.0847C672.16 74.9408 673.578 70.4276 675.709 66.545C677.84 62.6624 680.585 59.4857 683.944 57.0148C687.401 54.4688 691.324 52.7415 695.712 51.8329C700.112 50.8372 704.884 50.6918 710.028 51.3968C716.916 52.3408 722.703 54.5107 727.389 57.9065C732.162 61.3143 735.604 65.6941 737.712 71.046C739.908 76.4099 740.534 82.5357 739.59 89.4233C738.873 94.6544 737.406 99.2052 735.188 103.076C733.057 106.958 730.306 110.179 726.935 112.737C723.565 115.295 719.636 117.066 715.149 118.049C710.761 118.958 705.995 119.06 700.851 118.355ZM702.876 103.577C705.753 103.971 708.334 103.614 710.617 102.506C712.901 101.398 714.838 99.5762 716.429 97.0408C718.032 94.4182 719.127 90.9708 719.712 86.6988C720.584 80.3343 719.916 75.4906 717.707 72.1679C715.509 68.7579 712.275 66.7602 708.003 66.1746C705.213 65.7923 702.638 66.1056 700.279 67.1146C698.008 68.1356 696.07 69.9574 694.468 72.58C692.964 75.1274 691.919 78.5372 691.333 82.8092C690.461 89.1737 691.118 94.1045 693.303 97.6017C695.5 101.012 698.691 103.003 702.876 103.577Z" fill="white"/>
<path d="M755.918 127.661C750.387 126.601 745.761 124.326 742.039 120.835C738.404 117.361 735.9 112.894 734.527 107.434C733.154 101.974 733.121 95.8304 734.43 89.0026C735.738 82.1749 738.031 76.5214 741.308 72.0421C744.586 67.5629 748.556 64.3811 753.218 62.4968C757.966 60.629 763.106 60.2251 768.637 61.285C773.65 62.2455 777.826 64.3001 781.165 67.4487C784.591 70.6139 786.622 74.2737 787.26 78.4279L785.834 78.1546L791.721 47.4296C792.35 44.1453 793.643 41.8395 795.6 40.512C797.574 39.0981 800.159 38.6975 803.357 39.3103C806.468 39.9065 808.723 41.2345 810.12 43.2942C811.534 45.2676 811.926 47.8964 811.297 51.1806L797.162 124.947C796.55 128.144 795.213 130.442 793.154 131.839C791.18 133.253 788.638 133.662 785.526 133.066C782.415 132.47 780.161 131.142 778.763 129.082C777.452 127.039 777.103 124.418 777.716 121.22L779.405 112.405L779.862 117.734C777.841 121.737 774.594 124.654 770.122 126.485C765.752 128.246 761.018 128.638 755.918 127.661ZM764.559 114.13C767.411 114.676 770.007 114.457 772.346 113.471C774.686 112.486 776.717 110.77 778.44 108.322C780.18 105.788 781.456 102.404 782.267 98.1691C783.476 91.8599 783.066 86.9876 781.036 83.5522C779.023 80.0304 775.899 77.8638 771.664 77.0523C768.898 76.5224 766.311 76.6986 763.902 77.581C761.579 78.4799 759.548 80.1963 757.808 82.7301C756.171 85.1941 754.947 88.5436 754.135 92.7785C752.926 99.0877 753.32 104.046 755.317 107.655C757.33 111.176 760.411 113.335 764.559 114.13Z" fill="white"/>
<path d="M827.073 144.096C819.666 142.158 813.627 139.167 808.954 135.124C804.389 131.018 801.295 126.16 799.67 120.55C798.154 114.877 798.264 108.72 800.003 102.08C801.696 95.6096 804.54 90.3049 808.535 86.1655C812.551 81.941 817.342 79.1017 822.908 77.6477C828.581 76.1309 834.525 76.1859 840.74 77.8127C845.252 78.9937 849.137 80.8296 852.397 83.3202C855.679 85.7257 858.271 88.6785 860.175 92.1787C862.101 95.5937 863.221 99.4801 863.536 103.838C863.873 108.11 863.406 112.673 862.136 117.526C861.713 119.143 860.879 120.244 859.635 120.828C858.412 121.326 856.822 121.319 854.864 120.807L814.767 110.311L817.375 100.35L849.554 108.774L847.043 110.027C847.957 106.537 848.204 103.508 847.784 100.942C847.386 98.2914 846.365 96.1136 844.718 94.4092C843.158 92.7271 840.972 91.5184 838.163 90.783C835.013 89.9584 832.142 89.9801 829.55 90.8479C826.958 91.7158 824.709 93.3558 822.804 95.768C820.899 98.1802 819.445 101.302 818.442 105.133L818.175 106.154C816.481 112.624 816.723 117.782 818.901 121.626C821.163 125.493 825.274 128.207 831.233 129.767C833.276 130.302 835.684 130.659 838.457 130.839C841.23 131.019 843.91 130.857 846.499 130.352C848.702 129.928 850.525 130.087 851.968 130.828C853.434 131.485 854.447 132.478 855.009 133.807C855.57 135.137 855.704 136.536 855.411 138.006C855.202 139.498 854.525 140.867 853.38 142.114C852.258 143.275 850.68 144.09 848.647 144.559C845.329 145.418 841.739 145.752 837.878 145.56C834.08 145.476 830.478 144.988 827.073 144.096Z" fill="white"/>
<path d="M871.204 157.704C863.77 155.238 858.895 151.349 856.577 146.038C854.287 140.643 854.5 133.852 857.215 125.667L875.956 69.1617C877.009 65.9877 878.592 63.8704 880.705 62.8098C882.93 61.6933 885.587 61.6476 888.678 62.6727C891.685 63.67 893.705 65.2671 894.738 67.464C895.882 69.6051 895.927 72.2626 894.875 75.4365L876.382 131.19C875.247 134.614 875.112 137.397 875.977 139.539C876.955 141.624 878.654 143.069 881.076 143.872C881.745 144.094 882.385 144.26 882.997 144.37C883.61 144.481 884.25 144.647 884.918 144.868C886.31 145.145 887.09 145.867 887.259 147.036C887.539 148.148 887.208 150.125 886.266 152.964C885.435 155.47 884.296 157.225 882.851 158.229C881.433 159.149 879.611 159.472 877.384 159.197C876.521 159.004 875.533 158.769 874.419 158.492C873.278 158.299 872.206 158.036 871.204 157.704Z" fill="white"/>
<path d="M897.534 169.398C893.979 167.865 890.441 165.957 886.922 163.672C883.484 161.423 880.56 158.869 878.151 156.009C876.884 154.505 876.148 152.989 875.943 151.464C875.854 149.892 876.129 148.477 876.767 147.219C877.405 145.961 878.315 144.963 879.495 144.226C880.756 143.524 882.062 143.273 883.414 143.472C884.881 143.626 886.243 144.357 887.499 145.665C890.22 148.468 892.832 150.744 895.336 152.494C897.839 154.245 900.424 155.695 903.091 156.844C906.566 158.343 909.297 158.898 911.286 158.509C913.39 158.075 914.825 156.969 915.591 155.191C916.288 153.575 916.286 152.136 915.584 150.875C914.882 149.614 913.59 148.386 911.709 147.192L899.975 139.401C895.348 136.352 892.253 132.861 890.691 128.929C889.243 124.951 889.461 120.78 891.342 116.417C893.084 112.376 895.714 109.389 899.231 107.456C902.783 105.441 906.869 104.52 911.491 104.692C916.228 104.818 921.142 105.979 926.233 108.174C929.87 109.742 933.084 111.511 935.876 113.482C938.668 115.452 941.164 117.774 943.365 120.448C944.506 121.803 945.098 123.208 945.141 124.664C945.265 126.155 944.927 127.495 944.127 128.683C943.408 129.906 942.418 130.869 941.157 131.571C939.896 132.273 938.549 132.507 937.117 132.273C935.766 132.073 934.421 131.302 933.084 129.959C931.02 127.632 929.002 125.755 927.03 124.33C925.092 122.823 923.113 121.634 921.092 120.763C917.456 119.195 914.569 118.669 912.43 119.184C910.326 119.619 908.891 120.725 908.124 122.503C907.532 123.876 907.471 125.24 907.942 126.593C908.528 127.9 909.721 129.133 911.521 130.292L923.255 138.083C928.125 141.237 931.358 144.739 932.956 148.591C934.588 152.361 934.429 156.509 932.478 161.034C929.83 167.176 925.315 170.979 918.933 172.444C912.667 173.863 905.534 172.848 897.534 169.398Z" fill="white"/>
<path d="M921.534 197.779C919.571 198.408 917.91 198.396 916.553 197.742C915.149 197.163 914.213 196.256 913.747 195.021C913.28 193.787 913.373 192.491 914.027 191.134C914.707 189.898 916.09 188.952 918.175 188.295C921.13 187.254 923.542 185.919 925.41 184.29C927.279 182.662 928.708 181.068 929.699 179.508L927.354 184.43C924.383 182.543 922.511 180.155 921.74 177.267C920.968 174.379 921.526 171.45 923.413 168.478C925.159 165.73 927.428 164.044 930.222 163.421C933.063 162.723 935.969 163.318 938.94 165.205C941.986 167.14 943.702 169.69 944.09 172.855C944.524 175.946 943.562 179.348 941.203 183.062C939.976 184.993 938.54 186.844 936.895 188.614C935.249 190.383 933.199 192.052 930.744 193.62C928.288 195.188 925.218 196.574 921.534 197.779Z" fill="white"/>
</g>
<defs>
<filter id="filter0_d_5991_11129" x="0.335938" y="0.732361" width="957.328" height="214.009" filterUnits="userSpaceOnUse" color-interpolation-filters="sRGB">
<feFlood flood-opacity="0" result="BackgroundImageFix"/>
<feColorMatrix in="SourceAlpha" type="matrix" values="0 0 0 0 0 0 0 0 0 0 0 0 0 0 0 0 0 0 127 0" result="hardAlpha"/>
<feOffset dy="4"/>
<feGaussianBlur stdDeviation="6.25"/>
<feComposite in2="hardAlpha" operator="out"/>
<feColorMatrix type="matrix" values="0 0 0 0 0 0 0 0 0 0 0 0 0 0 0 0 0 0 0.25 0"/>
<feBlend mode="normal" in2="BackgroundImageFix" result="effect1_dropShadow_5991_11129"/>
<feBlend mode="normal" in="SourceGraphic" in2="effect1_dropShadow_5991_11129" result="shape"/>
</filter>
</defs>
</svg>
