<svg width="736" height="80" viewBox="0 0 736 80" fill="none" xmlns="http://www.w3.org/2000/svg">
<path d="M10.757 72.228C9.75996 72.5192 8.91862 72.466 8.23294 72.0683C7.54726 71.6706 7.05881 70.9733 6.76758 69.9763L0.387401 48.134C0.0885097 47.1108 0.124794 46.2602 0.496255 45.5821C0.893953 44.8965 1.5913 44.408 2.58831 44.1168L12.1517 41.3233C15.2476 40.4189 17.8536 40.4693 19.9696 41.4743C22.0856 42.4793 23.5345 44.3199 24.3162 46.9961C24.822 48.7277 24.8784 50.3343 24.4854 51.816C24.0924 53.2976 23.274 54.5902 22.0302 55.6939C20.8127 56.7899 19.1676 57.6407 17.0949 58.2461L17.2143 57.4851L18.8279 57.0138C19.9298 56.6919 20.9679 56.6876 21.9422 57.001C22.9351 57.2805 23.8942 57.8831 24.8195 58.8088L28.5815 62.6219C29.1405 63.1706 29.4988 63.7635 29.6565 64.4009C29.8142 65.0382 29.7275 65.6188 29.3964 66.1427C29.0653 66.6665 28.4669 67.0549 27.6011 67.3078C26.7353 67.5607 25.9732 67.584 25.3149 67.3776C24.6829 67.1636 24.0459 66.7374 23.4038 66.0992L17.5909 60.2369C16.9828 59.6172 16.3518 59.2605 15.698 59.1667C15.0703 59.0653 14.3499 59.1334 13.5365 59.3709L10.5455 60.2446L12.8677 68.1944C13.1589 69.1914 13.1226 70.042 12.7588 70.7463C12.4213 71.4429 11.754 71.9368 10.757 72.228ZM9.25798 55.8368L14.7284 54.2389C16.3551 53.7637 17.4793 53.0794 18.101 52.1859C18.749 51.2847 18.8814 50.1782 18.4982 48.8664C18.1227 47.5808 17.4193 46.7326 16.3882 46.3219C15.3832 45.9036 14.0674 45.932 12.4407 46.4072L6.97031 48.0051L9.25798 55.8368Z" fill="white"/>
<path d="M41.8368 63.6938C39.5326 64.2818 37.4415 64.3781 35.5635 63.9829C33.7052 63.5544 32.1331 62.7002 30.8474 61.4204C29.5815 60.1073 28.6849 58.4179 28.1577 56.3521C27.6441 54.3392 27.6184 52.4699 28.0807 50.744C28.5363 48.9916 29.4107 47.499 30.7041 46.2663C32.0171 45.0003 33.6404 44.1207 35.5737 43.6273C36.9774 43.2691 38.3095 43.1831 39.57 43.3692C40.8237 43.5288 41.9726 43.9409 43.0167 44.6054C44.054 45.2434 44.9433 46.1307 45.6847 47.2673C46.4193 48.3775 46.9793 49.6874 47.3645 51.197C47.4929 51.7002 47.432 52.1248 47.1818 52.4707C46.9248 52.7902 46.4917 53.0276 45.8826 53.1831L33.4083 56.3663L32.6176 53.2676L42.6288 50.7129L42.1351 51.4313C41.858 50.3454 41.4693 49.4855 40.969 48.8515C40.4619 48.191 39.8565 47.7531 39.1528 47.5378C38.4755 47.3157 37.6998 47.3161 36.8259 47.5392C35.8459 47.7892 35.0691 48.2272 34.4954 48.8532C33.9217 49.4791 33.5576 50.2632 33.4031 51.2053C33.2485 52.1474 33.3233 53.2144 33.6275 54.4062L33.7086 54.724C34.2222 56.7369 35.0641 58.1017 36.2344 58.8186C37.4312 59.5288 38.9565 59.6473 40.8104 59.1742C41.446 59.012 42.1541 58.7467 42.9346 58.3783C43.715 58.0099 44.4189 57.5623 45.0461 57.0355C45.5809 56.5887 46.1002 56.3575 46.604 56.3418C47.101 56.2996 47.5258 56.4169 47.8785 56.6936C48.2312 56.9703 48.4783 57.3304 48.6196 57.7739C48.7875 58.2106 48.8097 58.6845 48.6862 59.1956C48.556 59.6801 48.25 60.1391 47.7681 60.5723C46.9961 61.3053 46.071 61.9363 44.993 62.4652C43.9482 63.0139 42.8962 63.4235 41.8368 63.6938Z" fill="white"/>
<path d="M57.7667 59.8876C56.3271 60.2133 54.9708 60.2259 53.6978 59.9255C52.4248 59.625 51.3597 59.0673 50.5028 58.2523C49.6458 57.4374 49.0815 56.4301 48.8101 55.2304C48.4844 53.7908 48.6012 52.5733 49.1607 51.578C49.7141 50.556 50.7914 49.6817 52.3925 48.9551C53.9876 48.2018 56.1714 47.5115 58.944 46.8841L61.0634 46.4046L61.7692 49.5237L59.6898 49.9942C58.3301 50.3019 57.2419 50.6322 56.425 50.9852C55.6287 51.3055 55.0831 51.6811 54.7883 52.1122C54.5202 52.5372 54.4555 53.0562 54.5942 53.6694C54.7631 54.4159 55.1551 54.9717 55.7702 55.337C56.412 55.6962 57.2261 55.7642 58.2125 55.541C58.9856 55.3661 59.6262 55.039 60.1343 54.5597C60.663 54.0477 61.0313 53.4459 61.2391 52.7544C61.4409 52.0361 61.4513 51.2771 61.2704 50.4773L60.2298 45.8786C59.9644 44.7056 59.5108 43.9394 58.869 43.5802C58.2212 43.1943 57.2575 43.1462 55.9778 43.4357C55.258 43.5986 54.4927 43.8698 53.6818 44.2495C52.8916 44.5965 52.0352 45.0845 51.1126 45.7136C50.5864 46.1129 50.0816 46.2972 49.5982 46.2664C49.1088 46.209 48.702 46.0209 48.3776 45.7019C48.0471 45.3563 47.8307 44.9569 47.7281 44.5037C47.6195 44.0238 47.6503 43.5405 47.8204 43.0536C47.9844 42.5401 48.3489 42.1073 48.9138 41.7553C50.0522 40.9652 51.1468 40.3532 52.1976 39.9193C53.275 39.4793 54.2803 39.1538 55.2134 38.9426C57.2662 38.4781 59.0151 38.4047 60.4601 38.7223C61.9258 39.0072 63.1336 39.7007 64.0836 40.8029C65.0276 41.8784 65.7198 43.3893 66.1601 45.3354L68.1689 54.213C68.3921 55.1994 68.3241 56.0135 67.9648 56.6552C67.6056 57.297 66.9728 57.7204 66.0664 57.9255C65.16 58.1306 64.3932 58.0239 63.766 57.6053C63.1655 57.1807 62.7536 56.4752 62.5304 55.4888L62.1956 54.0092L62.5298 54.1858C62.575 55.1284 62.4064 55.9933 62.024 56.7804C61.6622 57.5348 61.1237 58.1892 60.4084 58.7434C59.687 59.2709 58.8064 59.6523 57.7667 59.8876Z" fill="white"/>
<path d="M78.6664 55.4076C76.9515 55.7529 75.3539 55.6425 73.8736 55.0762C72.4202 54.5046 71.1752 53.5145 70.1388 52.1061C69.1023 50.6976 68.371 48.935 67.9447 46.8181C67.5184 44.7013 67.5132 42.8064 67.9291 41.1333C68.345 39.4603 69.1124 38.079 70.2313 36.9893C71.377 35.8942 72.8073 35.174 74.5222 34.8287C76.0764 34.5157 77.5185 34.6157 78.8486 35.1285C80.2054 35.6359 81.2197 36.4494 81.8912 37.5689L81.4491 37.6579L79.5308 28.1321C79.3257 27.1139 79.4265 26.299 79.8331 25.6873C80.2343 25.0489 80.9306 24.6299 81.922 24.4302C82.8867 24.2359 83.6909 24.3528 84.3347 24.7808C84.9732 25.182 85.3949 25.8917 85.6 26.9099L90.2055 49.7798C90.4051 50.7712 90.291 51.5889 89.863 52.2327C89.4618 52.8711 88.7789 53.2875 87.8142 53.4817C86.8496 53.676 86.0454 53.5591 85.4015 53.1311C84.7845 52.6977 84.3762 51.9853 84.1765 50.9939L83.6261 48.2608L84.3839 49.7393C84.2732 51.1278 83.6825 52.3481 82.6117 53.4002C81.5624 54.4201 80.2473 55.0892 78.6664 55.4076ZM79.5604 50.5015C80.4447 50.3234 81.1652 49.9553 81.722 49.3971C82.2787 48.8388 82.661 48.1066 82.8689 47.2004C83.0713 46.2674 83.0404 45.1444 82.776 43.8314C82.382 41.8754 81.6914 40.5228 80.7041 39.7736C79.7114 38.9976 78.5585 38.7419 77.2456 39.0063C76.3881 39.1789 75.6649 39.5337 75.076 40.0705C74.5138 40.602 74.1315 41.3342 73.929 42.2672C73.748 43.168 73.7896 44.2749 74.054 45.5879C74.448 47.5439 75.144 48.9233 76.1421 49.7261C77.1348 50.502 78.2743 50.7605 79.5604 50.5015Z" fill="white"/>
<path d="M99.8041 58.766C99.1045 58.8913 98.4923 58.8066 97.9675 58.5118C97.4426 58.2171 97.0844 57.7675 96.8928 57.1632C96.7061 56.5857 96.7005 55.9342 96.8759 55.2085L98.51 48.7513L98.9582 51.2534L88.8799 36.1478C88.4855 35.4964 88.2757 34.8676 88.2504 34.2612C88.2472 33.6231 88.4564 33.0858 88.878 32.6493C89.3217 32.1811 89.9875 31.8674 90.8754 31.7084C91.6018 31.5783 92.2116 31.6495 92.7048 31.9222C93.22 32.1631 93.7503 32.7207 94.2956 33.5949L101.227 44.8491L99.9351 45.0805L102.683 32.0509C102.896 31.0686 103.202 30.3751 103.601 29.9703C104.023 29.5338 104.637 29.2433 105.445 29.0987C106.144 28.9734 106.729 29.0629 107.2 29.3673C107.694 29.6399 108.033 30.065 108.22 30.6425C108.434 31.2151 108.442 31.8801 108.244 32.6375L102.613 55.8469C102.374 56.834 102.027 57.5347 101.574 57.9492C101.147 58.3588 100.557 58.631 99.8041 58.766Z" fill="white"/>
<path d="M130.842 46.2176C128.978 46.5053 127.363 46.4365 125.997 46.0111C124.659 45.5816 123.587 44.8205 122.783 43.7278C122.005 42.631 121.476 41.1776 121.197 39.3677L120.021 31.7499L118.319 32.0126C117.563 32.1294 116.937 32.0185 116.442 31.68C115.975 31.3373 115.687 30.8148 115.578 30.1125C115.461 29.3561 115.577 28.7576 115.923 28.3168C116.293 27.8449 116.856 27.5506 117.612 27.4338L119.314 27.1711L118.839 24.0916C118.68 23.0651 118.832 22.2535 119.293 21.6569C119.75 21.0332 120.464 20.6463 121.437 20.4962C122.436 20.3419 123.234 20.4953 123.831 20.9564C124.424 21.3904 124.799 22.1207 124.957 23.1472L125.433 26.2267L129.282 25.6325C130.039 25.5158 130.651 25.6287 131.118 25.9714C131.582 26.287 131.872 26.823 131.989 27.5794C132.097 28.2818 131.98 28.8668 131.638 29.3346C131.295 29.8023 130.745 30.0946 129.989 30.2113L126.14 30.8055L127.278 38.1802C127.453 39.3147 127.841 40.126 128.442 40.6141C129.07 41.098 129.964 41.2503 131.126 41.071C131.531 41.0084 131.903 40.9095 132.242 40.7743C132.58 40.639 132.896 40.535 133.189 40.4621C133.563 40.3767 133.893 40.4503 134.177 40.6829C134.458 40.8885 134.665 41.4235 134.799 42.288C134.899 42.9363 134.878 43.5202 134.737 44.0398C134.596 44.5594 134.272 44.969 133.765 45.2685C133.435 45.4578 132.965 45.6409 132.356 45.8178C131.779 46.0176 131.274 46.1509 130.842 46.2176Z" fill="white"/>
<path d="M144.411 44.2995C142.272 44.598 140.346 44.4391 138.632 43.8228C136.944 43.2028 135.558 42.1681 134.473 40.7189C133.387 39.2697 132.695 37.4758 132.397 35.3372C132.174 33.74 132.217 32.2713 132.527 30.9309C132.837 29.5906 133.389 28.4095 134.185 27.3877C135.004 26.3351 136.031 25.4879 137.266 24.8464C138.498 24.1777 139.912 23.7319 141.509 23.509C143.648 23.2105 145.561 23.3713 147.248 23.9913C148.962 24.6076 150.36 25.6268 151.442 27.0489C152.55 28.4673 153.254 30.2458 153.553 32.3844C153.779 34.0086 153.724 35.4928 153.388 36.8369C153.078 38.1773 152.527 39.3719 151.735 40.4208C150.943 41.4696 149.918 42.3303 148.659 43.0027C147.424 43.6443 146.008 44.0765 144.411 44.2995ZM143.77 39.7109C144.664 39.5863 145.405 39.262 145.994 38.7382C146.584 38.2144 147.009 37.5064 147.271 36.6143C147.529 35.6951 147.566 34.5723 147.38 33.2458C147.105 31.2697 146.496 29.8781 145.556 29.071C144.611 28.2369 143.476 27.9124 142.15 28.0975C141.283 28.2184 140.54 28.5292 139.92 29.0297C139.327 29.5264 138.901 30.2344 138.643 31.1536C138.409 32.0419 138.384 33.1493 138.569 34.4757C138.845 36.4519 139.457 37.8706 140.405 38.7318C141.349 39.5659 142.471 39.8923 143.77 39.7109Z" fill="white"/>
<path d="M168.996 40.6799C167.937 40.8008 167.09 40.6087 166.455 40.1036C165.819 39.5984 165.441 38.8163 165.32 37.7572L162.794 15.638C162.673 14.5788 162.865 13.7316 163.37 13.0961C163.875 12.4607 164.657 12.0825 165.717 11.9616L175.574 10.8357C177.611 10.6031 179.383 10.7033 180.891 11.1364C182.398 11.5695 183.582 12.3009 184.443 13.3306C185.33 14.3571 185.863 15.6444 186.039 17.1923C186.235 18.9032 185.912 20.4119 185.071 21.7185C184.229 23.025 182.977 23.9797 181.312 24.5824L181.238 23.9307C183.261 24.0573 184.885 24.6696 186.111 25.7676C187.361 26.8354 188.096 28.3333 188.316 30.2614C188.608 32.8142 187.953 34.911 186.352 36.5519C184.748 38.1656 182.398 39.1493 179.302 39.5029L168.996 40.6799ZM171.191 35.6836L177.912 34.916C179.541 34.7299 180.701 34.2812 181.39 33.5697C182.076 32.8311 182.347 31.8372 182.205 30.588C182.062 29.3388 181.575 28.4453 180.743 27.9075C179.911 27.3698 178.681 27.1939 177.051 27.38L170.33 28.1476L171.191 35.6836ZM169.795 23.4631L175.824 22.7745C177.399 22.5947 178.533 22.1626 179.225 21.4783C179.917 20.794 180.195 19.8544 180.058 18.6595C179.925 17.4918 179.444 16.6526 178.615 16.142C177.787 15.6314 176.585 15.466 175.01 15.6459L168.981 16.3344L169.795 23.4631Z" fill="white"/>
<path d="M194.269 38.251C193.235 38.353 192.42 38.1589 191.822 37.6685C191.224 37.1782 190.876 36.4298 190.776 35.4234L189.347 20.9388C189.247 19.9323 189.431 19.1452 189.897 18.5773C190.387 17.9796 191.108 17.6338 192.06 17.5398C193.039 17.4432 193.814 17.6413 194.385 18.1344C194.953 18.6002 195.286 19.3363 195.385 20.3427L195.595 22.4644L195.187 22.5047C195.352 20.8404 195.948 19.5044 196.975 18.4967C198.002 17.489 199.393 16.8435 201.151 16.5602C201.826 16.4387 202.36 16.5644 202.754 16.9376C203.172 17.2808 203.439 17.8999 203.555 18.7948C203.693 19.6327 203.582 20.3166 203.222 20.8465C202.889 21.3737 202.266 21.7373 201.352 21.9374L200.422 22.1116C198.885 22.4007 197.773 22.9636 197.086 23.8004C196.427 24.6345 196.169 25.7724 196.311 27.2141L197.06 34.8032C197.159 35.8096 196.964 36.6117 196.473 37.2094C196.01 37.8045 195.276 38.1517 194.269 38.251Z" fill="white"/>
<path d="M208.551 36.8382C207.544 36.9306 206.742 36.716 206.145 36.1943C205.573 35.643 205.239 34.8365 205.141 33.775L203.86 19.8116C203.76 18.7228 203.943 17.8689 204.408 17.2499C204.897 16.6011 205.645 16.2305 206.652 16.1382C207.632 16.0483 208.408 16.279 208.98 16.8304C209.577 17.3521 209.926 18.1573 210.025 19.246L211.306 33.2094C211.404 34.2709 211.221 35.1249 210.759 35.7711C210.294 36.3902 209.558 36.7459 208.551 36.8382ZM206.345 12.7902C205.202 12.8951 204.294 12.7177 203.62 12.2579C202.972 11.7685 202.602 11.0338 202.512 10.0539C202.42 9.04682 202.649 8.25722 203.201 7.68513C203.777 7.08332 204.637 6.72998 205.78 6.6251C206.923 6.52023 207.819 6.71252 208.468 7.20197C209.114 7.6642 209.483 8.39887 209.576 9.40598C209.666 10.3859 209.436 11.1755 208.887 11.7748C208.336 12.3469 207.489 12.6854 206.345 12.7902Z" fill="white"/>
<path d="M217.031 36.1603C216.023 36.242 215.225 36.0324 214.636 35.5317C214.074 35.0287 213.752 34.2732 213.671 33.2652L212.496 18.7577C212.414 17.7496 212.611 16.9658 213.087 16.4063C213.588 15.8173 214.315 15.4841 215.268 15.4069C216.249 15.3275 217.02 15.5392 217.582 16.0422C218.142 16.5179 218.462 17.2598 218.544 18.2678L218.732 20.5972L218.174 19.285C218.692 17.8993 219.536 16.8026 220.704 15.995C221.898 15.1579 223.285 14.6754 224.865 14.5474C226.473 14.4172 227.819 14.6235 228.905 15.1663C229.989 15.6818 230.841 16.5452 231.46 17.7565C232.077 18.9406 232.462 20.4861 232.617 22.3932L233.368 31.6698C233.45 32.6779 233.24 33.4764 232.739 34.0654C232.266 34.6522 231.525 34.9864 230.517 35.0681C229.536 35.1475 228.751 34.9369 228.162 34.4361C227.601 33.9332 227.279 33.1777 227.197 32.1696L226.469 23.1791C226.357 21.7896 226.017 20.8162 225.451 20.2587C224.91 19.6718 224.122 19.4203 223.086 19.5041C221.779 19.6101 220.763 20.1037 220.039 20.985C219.342 21.8641 219.049 22.9848 219.16 24.347L219.841 32.7654C220.011 34.8632 219.075 35.9948 217.031 36.1603Z" fill="white"/>
<path d="M245.924 41.4804C244.452 41.5783 243.025 41.5498 241.645 41.395C240.293 41.2384 239.082 40.9491 238.013 40.5271C237.367 40.2961 236.894 39.9714 236.592 39.5532C236.318 39.1331 236.178 38.6767 236.172 38.184C236.194 37.6895 236.329 37.2422 236.576 36.8423C236.851 36.4405 237.201 36.1433 237.626 35.9506C238.054 35.7853 238.52 35.7953 239.025 35.9809C240.262 36.4466 241.39 36.7277 242.41 36.8242C243.457 36.919 244.349 36.9419 245.085 36.8929C246.831 36.7769 248.114 36.2944 248.934 35.4454C249.754 34.5965 250.11 33.3538 250.001 31.7175L249.794 28.6083L250.162 28.5838C249.837 29.8656 249.059 30.9446 247.83 31.8207C246.601 32.6968 245.209 33.1866 243.654 33.2899C241.854 33.4096 240.259 33.1048 238.868 32.3754C237.475 31.6188 236.361 30.5149 235.525 29.0639C234.687 27.5855 234.202 25.8509 234.07 23.86C233.97 22.3599 234.084 20.9827 234.411 19.7282C234.766 18.4719 235.296 17.382 236.002 16.4585C236.735 15.5331 237.631 14.8024 238.691 14.2662C239.777 13.701 240.988 13.3739 242.324 13.2851C243.933 13.1781 245.378 13.4793 246.658 14.1886C247.963 14.8689 248.862 15.8227 249.354 17.05L249.032 18.3863L248.877 16.0545C248.81 15.0454 249.019 14.2645 249.502 13.7119C250.012 13.1301 250.757 12.8066 251.739 12.7414C252.721 12.6761 253.489 12.899 254.043 13.41C254.596 13.8937 254.906 14.6401 254.973 15.6492L255.968 30.6222C256.191 33.9768 255.432 36.5612 253.69 38.3754C251.977 40.2151 249.388 41.2501 245.924 41.4804ZM245.188 28.5447C246.115 28.4831 246.891 28.2123 247.517 27.7324C248.17 27.2507 248.661 26.6017 248.99 25.7854C249.318 24.9419 249.444 23.961 249.37 22.8428C249.257 21.1518 248.748 19.8708 247.84 18.9998C246.959 18.0996 245.836 17.6948 244.472 17.7855C243.545 17.8471 242.755 18.1188 242.102 18.6005C241.448 19.0549 240.957 19.7039 240.629 20.5475C240.327 21.362 240.213 22.3284 240.288 23.4466C240.4 25.1375 240.897 26.433 241.779 27.3332C242.661 28.2334 243.797 28.6372 245.188 28.5447Z" fill="white"/>
<path d="M278.027 32.1967C276.99 32.246 276.184 31.9969 275.611 31.4495C275.038 30.902 274.726 30.0959 274.675 29.0311L274.111 17.1545L275.595 20.7372L265.278 7.47652C264.869 6.92131 264.676 6.31478 264.699 5.65693C264.722 4.97177 264.967 4.3718 265.435 3.85702C265.903 3.34224 266.588 3.06346 267.488 3.02068C268.144 2.98957 268.739 3.12552 269.273 3.42852C269.834 3.73022 270.378 4.22434 270.903 4.91087L277.905 14.0601L276.594 14.1223L282.698 4.35086C283.181 3.58906 283.662 3.04633 284.139 2.72267C284.642 2.3704 285.235 2.17807 285.918 2.14566C286.791 2.10418 287.485 2.30384 287.998 2.74465C288.511 3.15816 288.797 3.70555 288.856 4.38682C288.915 5.04078 288.715 5.73436 288.257 6.46757L279.363 20.5583L280.459 16.8531L281.023 28.7297C281.128 30.9412 280.129 32.0969 278.027 32.1967Z" fill="white"/>
<path d="M297.03 31.5243C294.872 31.6003 292.972 31.2432 291.331 30.4532C289.717 29.6622 288.444 28.4899 287.515 26.9363C286.585 25.3827 286.082 23.5269 286.006 21.3689C285.949 19.7573 286.144 18.3008 286.59 16.9997C287.037 15.6985 287.709 14.5808 288.606 13.6467C289.529 12.6842 290.638 11.9478 291.933 11.4372C293.227 10.8993 294.679 10.602 296.291 10.5453C298.449 10.4693 300.335 10.8268 301.949 11.6178C303.591 12.4079 304.876 13.566 305.805 15.0923C306.761 16.6176 307.277 18.4592 307.353 20.6172C307.411 22.2562 307.203 23.7267 306.729 25.0289C306.283 26.3301 305.612 27.4614 304.716 28.4229C303.819 29.3843 302.711 30.1345 301.39 30.6733C300.095 31.1839 298.642 31.4675 297.03 31.5243ZM296.867 26.8941C297.768 26.8624 298.539 26.6164 299.179 26.1563C299.82 25.6961 300.316 25.0359 300.669 24.1757C301.02 23.2881 301.172 22.175 301.125 20.8365C301.055 18.8424 300.594 17.3954 299.742 16.4955C298.889 15.5683 297.793 15.1283 296.454 15.1754C295.58 15.2062 294.809 15.4385 294.14 15.8723C293.499 16.3051 293.003 16.9653 292.651 17.8529C292.326 18.7122 292.187 19.8111 292.234 21.1496C292.304 23.1437 292.766 24.618 293.62 25.5726C294.473 26.4998 295.556 26.9403 296.867 26.8941Z" fill="white"/>
<path d="M316.444 30.9645C314.75 31.0027 313.335 30.7202 312.201 30.117C311.066 29.5138 310.212 28.5898 309.637 27.3451C309.089 26.0725 308.793 24.4934 308.751 22.6079L308.542 13.3443C308.518 12.3059 308.76 11.5212 309.268 10.9903C309.803 10.4588 310.562 10.1819 311.546 10.1597C312.529 10.1375 313.3 10.3798 313.859 10.8867C314.417 11.3936 314.708 12.1662 314.731 13.2046L314.944 22.6322C314.971 23.8346 315.237 24.7308 315.743 25.3209C316.247 25.8836 317.033 26.153 318.098 26.1289C319.274 26.1024 320.221 25.6709 320.94 24.8345C321.686 23.9701 322.044 22.8548 322.013 21.4885L321.822 13.0446C321.799 12.0062 322.041 11.2215 322.548 10.6906C323.083 10.1591 323.842 9.88222 324.826 9.86003C325.837 9.83721 326.608 10.0795 327.139 10.587C327.697 11.0939 327.988 11.8665 328.012 12.9049L328.34 27.4562C328.388 29.5604 327.414 30.6349 325.419 30.68C324.435 30.7021 323.678 30.4458 323.146 29.911C322.615 29.3762 322.337 28.6033 322.315 27.5922L322.253 24.8459L322.904 26.4306C322.334 27.8378 321.497 28.9366 320.394 29.7271C319.291 30.5175 317.974 30.93 316.444 30.9645Z" fill="white"/>
<path d="M333.936 30.5442C332.897 30.5571 332.101 30.2937 331.547 29.7538C330.994 29.214 330.711 28.4385 330.698 27.4272L330.517 12.8733C330.505 11.8621 330.755 11.0936 331.268 10.5678C331.808 10.0144 332.556 9.73174 333.512 9.71984C334.496 9.70759 335.251 9.97155 335.777 10.5117C336.303 11.0245 336.572 11.7866 336.585 12.7978L336.611 14.9297L336.201 14.9348C336.509 13.2908 337.217 12.0109 338.327 11.095C339.436 10.1792 340.878 9.6555 342.654 9.52406C343.336 9.4609 343.858 9.63209 344.218 10.0376C344.606 10.4155 344.819 11.0552 344.857 11.9568C344.922 12.8034 344.753 13.4752 344.349 13.9723C343.973 14.469 343.32 14.7778 342.392 14.8987L341.451 14.9925C339.894 15.1485 338.738 15.6139 337.983 16.3887C337.254 17.1632 336.899 18.2747 336.917 19.7232L337.012 27.3486C337.025 28.3599 336.761 29.1422 336.221 29.6957C335.709 30.2488 334.947 30.5316 333.936 30.5442Z" fill="white"/>
<path d="M365.39 30.4998C364.515 30.4925 363.806 30.2816 363.263 29.8671C362.72 29.4253 362.288 28.7657 361.968 27.8883L353.879 4.53247C353.532 3.49089 353.608 2.60315 354.106 1.86926C354.631 1.13559 355.523 0.773962 356.78 0.784383C357.655 0.791633 358.323 1.00218 358.784 1.41601C359.272 1.83008 359.663 2.47568 359.957 3.3528L366.555 23.5392L364.792 23.5246L372.092 3.49439C372.427 2.62247 372.829 1.98345 373.297 1.57731C373.793 1.14407 374.437 0.930736 375.229 0.937306C375.995 0.943649 376.608 1.16741 377.069 1.60858C377.53 2.02241 377.921 2.68168 378.242 3.58636L384.881 23.6911L383.364 23.6785L390.419 3.6053C390.699 2.76026 391.087 2.13478 391.582 1.72888C392.078 1.29563 392.75 1.08253 393.597 1.08955C394.663 1.09838 395.439 1.47383 395.925 2.21588C396.41 2.95793 396.458 3.84669 396.066 4.88215L387.509 28.141C387.202 28.9858 386.786 29.6248 386.263 30.0578C385.741 30.4634 385.028 30.6625 384.126 30.6551C383.252 30.6478 382.557 30.437 382.041 30.0228C381.525 29.5811 381.107 28.9216 380.786 28.0443L374.46 9.66423L375.444 9.67238L368.732 27.9854C368.397 28.83 367.968 29.4688 367.445 29.9018C366.95 30.3077 366.265 30.507 365.39 30.4998Z" fill="white"/>
<path d="M404.639 31.1276C402.481 31.0702 400.607 30.5965 399.017 29.7066C397.455 28.8174 396.258 27.5688 395.425 25.9608C394.593 24.3528 394.206 22.4695 394.263 20.3109C394.306 18.6988 394.59 17.2572 395.116 15.9861C395.642 14.7149 396.382 13.6409 397.335 12.7639C398.316 11.8603 399.468 11.1937 400.792 10.7641C402.117 10.3072 403.585 10.1001 405.197 10.143C407.356 10.2004 409.216 10.6737 410.779 11.5629C412.368 12.4528 413.579 13.6881 414.412 15.2688C415.273 16.8502 415.674 18.7202 415.617 20.8788C415.573 22.5182 415.275 23.9731 414.721 25.2435C414.195 26.5147 413.455 27.6024 412.502 28.5067C411.548 29.411 410.395 30.0912 409.043 30.5475C407.719 30.9771 406.251 31.1705 404.639 31.1276ZM404.762 26.4962C405.664 26.5202 406.449 26.3223 407.116 25.9026C407.783 25.4828 408.32 24.8545 408.725 24.0177C409.13 23.1535 409.351 22.052 409.387 20.7131C409.44 18.7185 409.069 17.2458 408.274 16.295C407.48 15.3168 406.413 14.81 405.074 14.7744C404.2 14.7511 403.416 14.9353 402.722 15.327C402.055 15.7194 401.519 16.3477 401.113 17.2119C400.735 18.0495 400.529 19.1377 400.493 20.4766C400.44 22.4712 400.81 23.9713 401.604 24.9767C402.398 25.9548 403.451 26.4613 404.762 26.4962Z" fill="white"/>
<path d="M419.835 31.5207C418.797 31.4798 418.015 31.1755 417.491 30.6078C416.966 30.0401 416.723 29.2509 416.763 28.2404L417.335 13.6966C417.375 12.6861 417.665 11.9315 418.204 11.433C418.772 10.9083 419.534 10.6647 420.489 10.7023C421.473 10.741 422.213 11.0437 422.71 11.6103C423.209 12.1497 423.438 12.9246 423.399 13.9352L423.315 16.0655L422.905 16.0494C423.297 14.4236 424.071 13.182 425.226 12.3248C426.382 11.4675 427.849 11.0192 429.629 10.9798C430.314 10.9521 430.826 11.15 431.164 11.5737C431.532 11.9711 431.711 12.621 431.703 13.5233C431.725 14.3722 431.521 15.0343 431.092 15.5098C430.69 15.9864 430.023 16.2611 429.09 16.3338L428.144 16.3786C426.582 16.4539 425.404 16.8589 424.609 17.5936C423.841 18.3293 423.429 19.4209 423.372 20.8685L423.072 28.4886C423.032 29.4991 422.729 30.2668 422.161 30.7916C421.621 31.3174 420.845 31.5604 419.835 31.5207Z" fill="white"/>
<path d="M438.31 32.3599C435.879 32.2566 434.092 31.5104 432.947 30.1212C431.803 28.7047 431.288 26.6583 431.402 23.9821L432.187 5.50776C432.231 4.47003 432.524 3.70276 433.065 3.20594C433.634 2.68297 434.424 2.44295 435.434 2.48588C436.417 2.52765 437.157 2.83265 437.652 3.40087C438.177 3.94294 438.417 4.73284 438.372 5.77057L437.598 23.9991C437.55 25.1188 437.747 25.9616 438.188 26.5275C438.658 27.0672 439.288 27.3539 440.08 27.3876C440.299 27.3968 440.504 27.3919 440.697 27.3727C440.889 27.3535 441.094 27.3486 441.313 27.3578C441.752 27.3218 442.047 27.4711 442.197 27.8058C442.375 28.1143 442.444 28.7328 442.405 29.6613C442.37 30.4805 442.18 31.1017 441.833 31.5247C441.488 31.9204 440.971 32.172 440.283 32.2796C440.009 32.2953 439.693 32.3092 439.337 32.3215C438.98 32.361 438.637 32.3738 438.31 32.3599Z" fill="white"/>
<path d="M449.854 32.9779C448.108 32.8818 446.589 32.374 445.298 31.4544C444.035 30.5363 443.078 29.2655 442.428 27.642C441.778 26.0185 441.513 24.1288 441.631 21.9727C441.75 19.8166 442.22 17.981 443.043 16.4659C443.865 14.9508 444.955 13.8062 446.311 13.0322C447.695 12.2597 449.26 11.9215 451.007 12.0176C452.59 12.1047 453.961 12.5633 455.12 13.3936C456.306 14.2253 457.083 15.2672 457.453 16.5194L457.002 16.4946L457.536 6.79229C457.593 5.75519 457.895 4.99163 458.442 4.5016C458.991 3.98428 459.77 3.75339 460.78 3.80893C461.762 3.86298 462.511 4.17793 463.027 4.7538C463.545 5.30237 463.775 6.0952 463.718 7.1323L462.436 30.4261C462.381 31.4359 462.065 32.1987 461.489 32.7145C460.941 33.2318 460.175 33.4635 459.193 33.4094C458.21 33.3554 457.461 33.0405 456.945 32.4646C456.457 31.8902 456.24 31.0981 456.296 30.0883L456.449 27.3045L456.811 28.9259C456.356 30.2422 455.478 31.2752 454.177 32.0249C452.905 32.7488 451.464 33.0665 449.854 32.9779ZM451.951 28.4532C452.852 28.5028 453.641 28.3272 454.32 27.9266C454.999 27.5259 455.553 26.9131 455.982 26.0881C456.412 25.2357 456.664 24.1409 456.737 22.8036C456.847 20.8113 456.518 19.3286 455.75 18.3557C454.984 17.3554 453.932 16.8185 452.595 16.7449C451.722 16.6969 450.932 16.8588 450.228 17.2307C449.55 17.604 448.996 18.2169 448.566 19.0692C448.165 19.8957 447.927 20.9777 447.854 22.315C447.744 24.3073 448.072 25.8172 448.837 26.8448C449.603 27.845 450.641 28.3812 451.951 28.4532Z" fill="white"/>
<path d="M483.174 35.1535C481.02 34.9931 479.171 34.4306 477.626 33.4658C476.108 32.5031 474.971 31.1988 474.217 29.5529C473.462 27.907 473.165 26.0073 473.326 23.854C473.445 22.2457 473.798 20.8193 474.384 19.5748C474.971 18.3302 475.76 17.2926 476.754 16.4621C477.777 15.6064 478.96 14.9956 480.303 14.6296C481.648 14.2364 483.125 14.0997 484.733 14.2195C486.886 14.3798 488.722 14.9414 490.24 15.9041C491.785 16.8689 492.936 18.1606 493.693 19.7792C494.476 21.3999 494.788 23.2869 494.628 25.4403C494.506 27.0758 494.138 28.5148 493.525 29.7573C492.939 31.0019 492.148 32.0531 491.152 32.9108C490.157 33.7686 488.973 34.3931 487.6 34.7842C486.258 35.1502 484.782 35.2733 483.174 35.1535ZM483.518 30.5333C484.417 30.6003 485.21 30.4401 485.897 30.0527C486.584 29.6653 487.149 29.0633 487.594 28.2467C488.04 27.4029 488.314 26.3131 488.413 24.9775C488.561 22.9877 488.261 21.4989 487.512 20.5113C486.765 19.4963 485.724 18.9391 484.389 18.8397C483.516 18.7747 482.724 18.9213 482.012 19.2794C481.328 19.6396 480.762 20.2416 480.316 21.0854C479.898 21.904 479.64 22.9811 479.541 24.3168C479.392 26.3066 479.691 27.8226 480.435 28.8648C481.182 29.8797 482.209 30.4359 483.518 30.5333Z" fill="white"/>
<path d="M499.606 36.3658C498.598 36.2806 497.845 35.9426 497.346 35.3518C496.875 34.7633 496.682 33.9652 496.767 32.9575L497.838 20.2927L496.367 20.1683C495.605 20.1038 495.023 19.8489 494.621 19.4035C494.247 18.9604 494.09 18.3848 494.15 17.6767C494.215 16.9141 494.467 16.3594 494.908 16.0126C495.378 15.6409 495.995 15.4873 496.757 15.5518L500.026 15.8281L498.09 17.3103L498.197 16.0438C498.444 13.1295 499.349 11.0117 500.915 9.6902C502.508 8.37103 504.733 7.68138 507.591 7.62126L508.909 7.60922C509.621 7.61462 510.171 7.77077 510.556 8.07767C510.969 8.38687 511.225 8.76512 511.324 9.21241C511.424 9.65971 511.413 10.1114 511.292 10.5675C511.173 10.9964 510.949 11.3752 510.62 11.7039C510.32 12.0077 509.924 12.1525 509.431 12.1383L508.856 12.1308C507.376 12.1154 506.297 12.3808 505.62 12.9271C504.945 13.4461 504.557 14.3048 504.456 15.5032L504.338 16.8922L503.621 16.1321L507.298 16.4429C508.088 16.5097 508.67 16.7646 509.044 17.2077C509.42 17.6236 509.576 18.2128 509.511 18.9754C509.451 19.6835 509.2 20.2246 508.757 20.5986C508.314 20.9726 507.697 21.1262 506.908 21.0594L504.007 20.8142L502.936 33.479C502.759 35.5762 501.649 36.5385 499.606 36.3658Z" fill="white"/>
<path d="M527.601 39.0565C526.568 38.951 525.809 38.5849 525.323 37.9584C524.837 37.3318 524.647 36.5019 524.753 35.4686L526.86 14.8299L519.641 14.0927C518.798 14.0067 518.169 13.7089 517.754 13.1994C517.339 12.69 517.173 12.0273 517.256 11.2116C517.342 10.3686 517.639 9.75323 518.145 9.36536C518.655 8.95029 519.331 8.7858 520.174 8.87187L540.935 10.9917C541.778 11.0778 542.407 11.3756 542.822 11.885C543.24 12.3673 543.406 13.0299 543.32 13.8729C543.236 14.6886 542.94 15.304 542.431 15.7191C541.921 16.1341 541.245 16.2986 540.402 16.2126L533.182 15.4754L531.075 36.1141C530.97 37.1474 530.616 37.9218 530.014 38.4373C529.439 38.9556 528.635 39.162 527.601 39.0565Z" fill="white"/>
<path d="M540.302 40.434C539.27 40.3137 538.515 39.9503 538.035 39.3439C537.555 38.7376 537.374 37.9322 537.491 36.9276L539.178 22.4707C539.296 21.4662 539.642 20.7362 540.218 20.2805C540.825 19.8009 541.603 19.6165 542.553 19.7274C543.531 19.8415 544.245 20.2001 544.698 20.8033C545.154 21.3793 545.323 22.1696 545.206 23.1741L544.958 25.2917L544.551 25.2442C545.067 23.6533 545.934 22.4748 547.152 21.7088C548.369 20.9427 549.867 20.6084 551.644 20.7057C552.329 20.7306 552.824 20.9673 553.13 21.4157C553.466 21.8401 553.595 22.5019 553.517 23.401C553.473 24.249 553.219 24.8935 552.755 25.3347C552.318 25.779 551.631 26.0016 550.696 26.0025L549.75 25.9746C548.186 25.9298 546.98 26.2431 546.131 26.9146C545.31 27.5892 544.815 28.646 544.647 30.0849L543.763 37.6595C543.646 38.664 543.284 39.4061 542.678 39.8857C542.098 40.3685 541.306 40.5513 540.302 40.434Z" fill="white"/>
<path d="M557.996 42.6989C556.533 42.5092 555.255 42.0542 554.163 41.3339C553.071 40.6136 552.263 39.7234 551.739 38.6632C551.215 37.6031 551.032 36.4631 551.19 35.2433C551.38 33.7796 551.909 32.6767 552.776 31.9348C553.648 31.1657 554.96 30.7157 556.714 30.5846C558.471 30.4264 560.759 30.53 563.578 30.8953L565.733 31.1746L565.322 34.3461L563.207 34.0721C561.825 33.8929 560.689 33.8284 559.801 33.8787C558.943 33.9053 558.302 34.0702 557.876 34.3734C557.478 34.6802 557.239 35.1452 557.158 35.7687C557.06 36.5277 557.236 37.1845 557.688 37.7392C558.167 38.2973 558.908 38.6414 559.911 38.7714C560.697 38.8733 561.411 38.7867 562.053 38.5116C562.726 38.2129 563.279 37.7746 563.712 37.1968C564.149 36.5919 564.42 35.8829 564.525 35.0697L565.131 30.3938C565.286 29.2011 565.123 28.3257 564.644 27.7675C564.169 27.1822 563.281 26.8053 561.98 26.6366C561.248 26.5418 560.436 26.533 559.544 26.6104C558.682 26.6641 557.71 26.8275 556.628 27.1006C555.996 27.2944 555.459 27.2937 555.016 27.0984C554.576 26.8761 554.259 26.5593 554.064 26.1482C553.873 25.71 553.807 25.2605 553.867 24.7997C553.93 24.3118 554.125 23.8685 554.452 23.4699C554.783 23.0443 555.274 22.7634 555.926 22.6273C557.267 22.2774 558.505 22.0796 559.641 22.0339C560.804 21.9917 561.86 22.032 562.809 22.155C564.896 22.4255 566.563 22.9585 567.811 23.7541C569.089 24.5261 569.984 25.593 570.496 26.9549C571.013 28.2896 571.142 29.9463 570.886 31.9251L569.716 40.9516C569.586 41.9546 569.242 42.6955 568.684 43.1744C568.126 43.6533 567.386 43.833 566.464 43.7136C565.542 43.5942 564.859 43.23 564.415 42.6211C563.997 42.0158 563.853 41.2116 563.983 40.2087L564.178 38.7042L564.431 38.9851C564.149 39.8856 563.693 40.6396 563.063 41.247C562.464 41.8308 561.733 42.2598 560.87 42.5339C560.011 42.7809 559.054 42.8359 557.996 42.6989Z" fill="white"/>
<path d="M579.68 45.5997C578.896 45.4854 578.235 45.1821 577.699 44.6897C577.167 44.1703 576.787 43.4657 576.557 42.576L572.487 27.5646C572.292 26.818 572.279 26.1531 572.447 25.5699C572.618 24.9596 572.973 24.5141 573.511 24.2334C574.08 23.9296 574.811 23.8427 575.704 23.9727C576.434 24.0791 577.004 24.3416 577.412 24.7602C577.825 25.1517 578.138 25.8464 578.352 26.8443L581.366 39.7132L580.068 39.5241L586.837 28.0389C587.35 27.1744 587.859 26.6134 588.367 26.3558C588.878 26.0712 589.539 25.9879 590.35 26.1061C591.054 26.2086 591.58 26.4787 591.931 26.9164C592.312 27.3311 592.501 27.8419 592.495 28.4487C592.517 29.0595 592.314 29.6929 591.887 30.3489L583.576 43.5984C583.098 44.4127 582.533 44.9794 581.878 45.2984C581.251 45.6214 580.518 45.7218 579.68 45.5997Z" fill="white"/>
<path d="M600.297 48.9036C597.95 48.5213 595.995 47.7736 594.432 46.6605C592.9 45.5248 591.8 44.1134 591.133 42.4262C590.498 40.7165 590.352 38.8095 590.694 36.7053C591.028 34.6549 591.752 32.9312 592.866 31.5341C593.984 30.11 595.382 29.0915 597.061 28.4786C598.77 27.8432 600.61 27.6859 602.579 28.0066C604.009 28.2395 605.264 28.6932 606.345 29.3677C607.431 30.0153 608.319 30.8523 609.01 31.8788C609.706 32.8783 610.167 34.0471 610.392 35.3854C610.621 36.6967 610.611 38.1212 610.36 39.6589C610.277 40.1715 610.051 40.5363 609.684 40.7534C609.32 40.9435 608.828 40.988 608.208 40.8869L595.501 38.8174L596.015 35.661L606.213 37.3219L605.473 37.783C605.653 36.6769 605.641 35.7333 605.436 34.9521C605.235 34.144 604.855 33.5006 604.296 33.0218C603.764 32.5475 603.053 32.2378 602.163 32.0928C601.165 31.9303 600.278 32.0212 599.501 32.3655C598.725 32.7099 598.078 33.283 597.56 34.0848C597.042 34.8866 596.684 35.8945 596.486 37.1085L596.433 37.4322C596.099 39.4825 596.325 41.0702 597.111 42.1952C597.924 43.3245 599.275 44.043 601.164 44.3506C601.811 44.456 602.566 44.4959 603.429 44.4703C604.291 44.4446 605.116 44.3157 605.901 44.0837C606.57 43.888 607.138 43.8836 607.606 44.0706C608.079 44.2306 608.421 44.508 608.634 44.9026C608.847 45.2973 608.929 45.7261 608.881 46.1891C608.861 46.6565 608.692 47.0998 608.374 47.5188C608.061 47.9109 607.597 48.2092 606.982 48.4137C605.981 48.7769 604.881 48.9855 603.682 49.0393C602.505 49.1246 601.376 49.0793 600.297 48.9036Z" fill="white"/>
<path d="M616.893 51.7436C614.498 51.3189 612.825 50.3421 611.875 48.8134C610.929 47.2577 610.69 45.1611 611.158 42.5236L614.387 24.3166C614.568 23.2939 614.96 22.5722 615.562 22.1516C616.195 21.7087 617.01 21.5756 618.006 21.7522C618.975 21.924 619.667 22.3244 620.083 22.9534C620.531 23.5602 620.664 24.3749 620.482 25.3976L617.297 43.3624C617.101 44.4658 617.184 45.3272 617.546 45.9466C617.94 46.5439 618.527 46.9117 619.308 47.0501C619.523 47.0883 619.727 47.1107 619.92 47.1172C620.114 47.1237 620.318 47.146 620.533 47.1842C620.973 47.2067 621.245 47.3938 621.35 47.7454C621.486 48.0748 621.472 48.6971 621.31 49.6121C621.167 50.4195 620.896 51.0099 620.496 51.3833C620.102 51.7297 619.556 51.9105 618.859 51.9258C618.586 51.905 618.271 51.877 617.917 51.8419C617.557 51.8337 617.216 51.8009 616.893 51.7436Z" fill="white"/>
<path d="M639.273 56.0905C637.423 55.719 635.931 55.0985 634.795 54.2291C633.687 53.3651 632.943 52.2816 632.563 50.9786C632.21 49.6811 632.214 48.1346 632.575 46.3391L634.094 38.7821L632.405 38.4429C631.655 38.2922 631.106 37.9727 630.758 37.4846C630.437 37.0019 630.346 36.4121 630.486 35.7154C630.637 34.9651 630.951 34.4427 631.428 34.1483C631.938 33.8325 632.568 33.7499 633.318 33.9007L635.006 34.2399L635.62 31.185C635.825 30.1667 636.246 29.4568 636.884 29.0553C637.528 28.627 638.332 28.5098 639.297 28.7037C640.288 28.9029 640.985 29.3216 641.386 29.9599C641.793 30.5713 641.894 31.3862 641.69 32.4045L641.076 35.4595L644.895 36.2268C645.645 36.3775 646.181 36.6943 646.502 37.177C646.829 37.6329 646.916 38.2361 646.766 38.9864C646.626 39.6832 646.314 40.1921 645.832 40.5133C645.349 40.8345 644.732 40.9198 643.982 40.769L640.163 40.0017L638.693 47.3175C638.467 48.443 638.552 49.3383 638.948 50.0033C639.371 50.6738 640.159 51.1248 641.311 51.3563C641.713 51.4371 642.096 51.4722 642.461 51.4618C642.825 51.4515 643.158 51.4625 643.458 51.4949C643.838 51.5435 644.122 51.726 644.31 52.0424C644.502 52.3321 644.513 52.9057 644.34 53.7632C644.211 54.4063 643.991 54.9475 643.68 55.3868C643.368 55.8261 642.923 56.0991 642.344 56.2058C641.969 56.2698 641.465 56.2801 640.832 56.2366C640.221 56.2253 639.701 56.1766 639.273 56.0905Z" fill="white"/>
<path d="M652.658 59.0162C650.55 58.5502 648.8 57.7295 647.408 56.5542C646.043 55.3847 645.104 53.9316 644.592 52.1949C644.08 50.4581 644.057 48.5356 644.523 46.4271C644.871 44.8524 645.424 43.491 646.182 42.3427C646.939 41.1945 647.869 40.2803 648.971 39.6001C650.106 38.8991 651.364 38.4633 652.745 38.2927C654.132 38.0954 655.613 38.1707 657.188 38.5187C659.297 38.9847 661.033 39.8024 662.398 40.9719C663.79 42.1473 664.745 43.59 665.263 45.3C665.808 47.0159 665.847 48.9281 665.381 51.0366C665.027 52.6379 664.458 54.0098 663.674 55.1521C662.916 56.3004 661.983 57.2279 660.875 57.9348C659.767 58.6417 658.506 59.0909 657.092 59.2823C655.711 59.4529 654.233 59.3642 652.658 59.0162ZM653.658 54.4923C654.539 54.687 655.346 54.6415 656.081 54.3561C656.816 54.0706 657.462 53.5555 658.019 52.8107C658.581 52.0392 659.007 50.9996 659.296 49.6918C659.726 47.7435 659.641 46.2271 659.041 45.1427C658.447 44.0316 657.496 43.3316 656.188 43.0426C655.334 42.8538 654.529 42.8859 653.774 43.1388C653.045 43.3976 652.399 43.9127 651.837 44.6842C651.307 45.4349 650.897 46.4641 650.608 47.7719C650.178 49.7202 650.257 51.2633 650.845 52.401C651.439 53.5121 652.377 54.2092 653.658 54.4923Z" fill="white"/>
<path d="M676.843 64.3362C675.839 64.0712 675.133 63.588 674.724 62.8866C674.342 62.1921 674.28 61.3559 674.538 60.3781L680.28 38.6138C680.552 37.5831 681.022 36.8732 681.69 36.484C682.358 36.0949 683.194 36.0329 684.199 36.2978C685.176 36.5558 685.86 37.0188 686.249 37.6869C686.638 38.3549 686.697 39.2043 686.425 40.235L681.227 59.9378L691.851 62.7409C692.697 62.9641 693.285 63.3596 693.616 63.9274C693.973 64.5022 694.043 65.1992 693.827 66.0185C693.604 66.8643 693.195 67.449 692.601 67.7728C692.033 68.1035 691.326 68.1574 690.481 67.9342L676.843 64.3362Z" fill="white"/>
<path d="M696.432 69.9693C695.46 69.6897 694.791 69.1985 694.424 68.4958C694.091 67.7743 694.072 66.9014 694.367 65.8769L698.243 52.4014C698.545 51.3507 699.026 50.6213 699.683 50.2132C700.375 49.7865 701.207 49.7129 702.179 49.9925C703.124 50.2645 703.763 50.7612 704.096 51.4827C704.463 52.1855 704.495 53.0622 704.193 54.1129L700.316 67.5884C700.022 68.6129 699.542 69.3423 698.876 69.7766C698.219 70.1847 697.404 70.2489 696.432 69.9693ZM703.108 46.7615C702.005 46.4441 701.223 45.949 700.762 45.2761C700.335 44.5845 700.258 43.7659 700.53 42.8202C700.81 41.8483 701.31 41.1959 702.032 40.8631C702.787 40.5115 703.716 40.4944 704.82 40.8118C705.923 41.1291 706.688 41.6336 707.115 42.3252C707.549 42.9906 707.626 43.8092 707.347 44.7811C707.075 45.7268 706.574 46.3791 705.845 46.7383C705.124 47.0711 704.211 47.0789 703.108 46.7615Z" fill="white"/>
<path d="M706.051 72.9216C705.085 72.6232 704.421 72.1321 704.06 71.4485C703.725 70.7729 703.707 69.952 704.005 68.9857L707.756 56.8416L706.345 56.4061C705.614 56.1803 705.1 55.8069 704.803 55.2862C704.532 54.7734 704.502 54.1776 704.712 53.4985C704.937 52.7673 705.303 52.2793 705.807 52.0347C706.346 51.772 706.981 51.7536 707.712 51.9794L710.846 52.9473L708.639 53.9819L709.014 52.7675C709.877 49.9731 711.214 48.0975 713.026 47.1408C714.864 46.1922 717.185 45.9937 719.99 46.5452L721.28 46.8148C721.975 46.9723 722.478 47.2421 722.789 47.6243C723.126 48.0145 723.296 48.4387 723.297 48.8969C723.299 49.355 723.192 49.794 722.976 50.2138C722.769 50.6075 722.469 50.9297 722.077 51.1805C721.719 51.4132 721.301 51.4701 720.823 51.351L720.262 51.2208C718.82 50.8897 717.709 50.9187 716.931 51.3078C716.161 51.6707 715.599 52.4267 715.244 53.5758L714.832 54.9078L714.294 54.0119L717.819 55.1008C718.577 55.3347 719.091 55.708 719.362 56.2207C719.641 56.7073 719.667 57.3163 719.441 58.0475C719.231 58.7265 718.87 59.2014 718.357 59.4722C717.845 59.743 717.21 59.7614 716.452 59.5275L713.671 58.6685L709.92 70.8125C709.299 72.8235 708.01 73.5265 706.051 72.9216Z" fill="white"/>
<path d="M723.546 78.8738C721.299 78.0941 719.501 77.0216 718.152 75.6565C716.838 74.2746 715.998 72.6953 715.63 70.9187C715.298 69.1252 715.482 67.2215 716.181 65.2073C716.862 63.2448 717.871 61.6711 719.208 60.486C720.554 59.2751 722.107 58.5119 723.865 58.1964C725.659 57.8641 727.498 58.0251 729.383 58.6793C730.752 59.1543 731.91 59.8169 732.859 60.6671C733.817 61.4915 734.549 62.4686 735.053 63.5986C735.567 64.7027 735.82 65.9333 735.812 67.2904C735.813 68.6216 735.558 70.0231 735.047 71.495C734.877 71.9856 734.592 72.3063 734.192 72.457C733.802 72.5818 733.31 72.5412 732.716 72.335L720.553 68.1138L721.602 65.0926L731.363 68.4803L730.555 68.8075C730.922 67.7488 731.072 66.8171 731.004 66.0123C730.945 65.1817 730.682 64.4826 730.213 63.915C729.771 63.3563 729.123 62.9291 728.271 62.6333C727.316 62.3017 726.426 62.2389 725.602 62.4449C724.779 62.6508 724.043 63.1042 723.394 63.8051C722.746 64.5059 722.22 65.4373 721.817 66.5993L721.709 66.9092C721.028 68.8717 720.978 70.4746 721.559 71.7178C722.166 72.9701 723.373 73.9099 725.181 74.5373C725.801 74.7523 726.538 74.9213 727.392 75.0442C728.246 75.1671 729.08 75.1817 729.894 75.088C730.586 75.0101 731.147 75.1035 731.576 75.3681C732.014 75.6069 732.304 75.9389 732.446 76.3642C732.587 76.7896 732.595 77.2262 732.468 77.6741C732.368 78.131 732.125 78.5386 731.74 78.8969C731.364 79.2294 730.856 79.4436 730.215 79.5394C729.167 79.7253 728.047 79.7418 726.856 79.5888C725.682 79.4706 724.579 79.2323 723.546 78.8738Z" fill="white"/>
</svg>
